$MeshFormat
4.1 0 8
$EndMeshFormat
$PhysicalNames
12
0 1 "EQ_motion"
1 2 "Fix_010"
1 3 "left_outer_slope_boundary"
1 4 "left_inner_slope_boundary"
1 5 "left_outer_foundation_boundary"
1 6 "left_inner_foundation_boundary"
1 7 "right_outer_foundation_boundary"
1 8 "right_inner_foundation_boundary"
2 9 "Slope"
2 10 "Foundation"
2 11 "PeriodicBoundary_Slope"
2 12 "PeriodicBoundary_Foundation"
$EndPhysicalNames
$Entities
13 18 6 0
1 0 0 0 0 
2 10 0 0 0 
3 10 10 0 0 
4 0 10 0 0 
5 52 0 0 0 
6 32 10 0 0 
7 0 -20 0 1 1 
8 10 -20 0 0 
9 52 -20 0 0 
10 72 -20 0 0 
11 72 0 0 0 
12 82 -20 0 0 
13 82 0 0 0 
1 0 0 0 10 0 0 0 2 1 -2 
2 10 0 0 10 10 0 1 4 2 2 -3 
3 0 10 0 10 10 0 0 2 3 -4 
4 0 0 0 0 10 0 1 3 2 1 -4 
5 10 0 0 52 0 0 0 2 2 -5 
6 32 0 0 52 10 0 0 2 5 -6 
7 10 10 0 32 10 0 0 2 6 -3 
8 0 -20 0 0 0 0 1 5 2 1 -7 
9 0 -20 0 10 -20 0 1 2 2 7 -8 
10 10 -20 0 10 0 0 1 6 2 8 -2 
11 10 -20 0 52 -20 0 1 2 2 8 -9 
12 52 -20 0 52 0 0 0 2 9 -5 
13 52 -20 0 72 -20 0 1 2 2 9 -10 
14 72 -20 0 72 0 0 1 8 2 10 -11 
15 52 0 0 72 0 0 0 2 11 -5 
16 72 -20 0 82 -20 0 1 2 2 10 -12 
17 82 -20 0 82 0 0 1 7 2 12 -13 
18 72 0 0 82 0 0 0 2 13 -11 
1 0 0 0 10 10 0 1 11 4 1 2 3 -4 
2 10 0 0 52 10 0 1 9 4 5 6 7 -2 
3 0 -20 0 10 0 0 1 12 4 9 10 -1 8 
4 10 -20 0 52 0 0 1 10 4 11 12 -5 -10 
5 52 -20 0 72 0 0 1 10 4 13 14 15 -12 
6 72 -20 0 82 0 0 1 12 4 16 17 18 -14 
$EndEntities
$Nodes
34 1133 1 1133
0 1 0 1
1
0 0 0
0 2 0 1
2
10 0 0
0 3 0 1
3
10 10 0
0 4 0 1
4
0 10 0
0 5 0 1
5
52 0 0
0 6 0 1
6
32 10 0
0 7 0 1
7
0 -20 0
0 8 0 1
8
10 -20 0
0 9 0 1
9
52 -20 0
0 10 0 1
10
72 -20 0
0 11 0 1
11
72 0 0
0 12 0 1
12
82 -20 0
0 13 0 1
13
82 0 0
1 2 0 19
14
15
16
17
18
19
20
21
22
23
24
25
26
27
28
29
30
31
32
10 0.499999999999551 0
10 0.9999999999991888 0
10 1.499999999998284 0
10 1.999999999996824 0
10 2.499999999995364 0
10 2.999999999993903 0
10 3.499999999992442 0
10 3.999999999991017 0
10 4.499999999991639 0
10 4.999999999992399 0
10 5.499999999993159 0
10 5.99999999999392 0
10 6.499999999994679 0
10 6.999999999995438 0
10 7.499999999996199 0
10 7.99999999999696 0
10 8.499999999997719 0
10 8.999999999998479 0
10 9.49999999999924 0
1 4 0 19
33
34
35
36
37
38
39
40
41
42
43
44
45
46
47
48
49
50
51
0 0.499999999999551 0
0 0.9999999999991888 0
0 1.499999999998284 0
0 1.999999999996824 0
0 2.499999999995364 0
0 2.999999999993903 0
0 3.499999999992442 0
0 3.999999999991017 0
0 4.499999999991639 0
0 4.999999999992399 0
0 5.499999999993159 0
0 5.99999999999392 0
0 6.499999999994679 0
0 6.999999999995438 0
0 7.499999999996199 0
0 7.99999999999696 0
0 8.499999999997719 0
0 8.999999999998479 0
0 9.49999999999924 0
1 5 0 19
52
53
54
55
56
57
58
59
60
61
62
63
64
65
66
67
68
69
70
12.09999999999455 0 0
14.1999999999891 0 0
16.29999999998462 0 0
18.39999999998806 0 0
20.49999999999149 0 0
22.59999999999494 0 0
24.69999999999837 0 0
26.79999999999431 0 0
28.89999999997997 0 0
30.99999999996633 0 0
33.09999999996908 0 0
35.19999999997251 0 0
37.29999999997595 0 0
39.39999999997939 0 0
41.49999999998282 0 0
43.59999999998625 0 0
45.69999999998969 0 0
47.79999999999313 0 0
49.89999999999657 0 0
1 6 0 19
71
72
73
74
75
76
77
78
79
80
81
82
83
84
85
86
87
88
89
51.00000000000018 0.4999999999999111 0
50.00000000000032 0.9999999999998395 0
49.00000000000068 1.49999999999966 0
48.00000000000126 1.99999999999937 0
47.00000000000184 2.49999999999908 0
46.00000000000242 2.999999999998789 0
45.000000000003 3.499999999998499 0
44.00000000000357 3.999999999998216 0
43.00000000000332 4.499999999998342 0
42.00000000000301 4.999999999998495 0
41.00000000000271 5.499999999998646 0
40.00000000000241 5.999999999998797 0
39.0000000000021 6.499999999998947 0
38.0000000000018 6.999999999999098 0
37.00000000000151 7.499999999999247 0
36.00000000000121 7.999999999999398 0
35.0000000000009 8.499999999999549 0
34.0000000000006 8.999999999999698 0
33.0000000000003 9.499999999999849 0
1 7 0 19
90
91
92
93
94
95
96
97
98
99
100
101
102
103
104
105
106
107
108
30.9 10 0
29.8 10 0
28.7 10 0
27.6 10 0
26.5 10 0
25.4 10 0
24.3 10 0
23.2 10 0
22.1 10 0
21 10 0
19.9 10 0
18.8 10 0
17.7 10 0
16.6 10 0
15.5 10 0
14.4 10 0
13.3 10 0
12.2 10 0
11.1 10 0
1 8 0 19
109
110
111
112
113
114
115
116
117
118
119
120
121
122
123
124
125
126
127
0 -0.9999999999991021 0
0 -1.999999999998378 0
0 -2.999999999996569 0
0 -3.999999999993648 0
0 -4.999999999990727 0
0 -5.999999999987806 0
0 -6.999999999984885 0
0 -7.999999999982034 0
0 -8.999999999983277 0
0 -9.999999999984798 0
0 -10.99999999998632 0
0 -11.99999999998784 0
0 -12.99999999998936 0
0 -13.99999999999088 0
0 -14.9999999999924 0
0 -15.99999999999392 0
0 -16.99999999999544 0
0 -17.99999999999696 0
0 -18.99999999999848 0
1 9 0 0
1 10 0 19
128
129
130
131
132
133
134
135
136
137
138
139
140
141
142
143
144
145
146
10 -19 0
10 -18 0
10 -17 0
10 -15.99999999999999 0
10 -14.99999999999999 0
10 -13.99999999999999 0
10 -12.99999999999999 0
10 -11.99999999999999 0
10 -10.99999999999999 0
10 -9.999999999999993 0
10 -8.999999999999995 0
10 -7.999999999999993 0
10 -6.999999999999995 0
10 -5.999999999999996 0
10 -4.999999999999996 0
10 -3.999999999999996 0
10 -3 0
10 -1.999999999999996 0
10 -1 0
1 11 0 19
147
148
149
150
151
152
153
154
155
156
157
158
159
160
161
162
163
164
165
12.09999999999455 -20 0
14.1999999999891 -20 0
16.29999999998462 -20 0
18.39999999998806 -20 0
20.49999999999149 -20 0
22.59999999999494 -20 0
24.69999999999837 -20 0
26.79999999999431 -20 0
28.89999999997997 -20 0
30.99999999996633 -20 0
33.09999999996908 -20 0
35.19999999997251 -20 0
37.29999999997595 -20 0
39.39999999997939 -20 0
41.49999999998282 -20 0
43.59999999998625 -20 0
45.69999999998969 -20 0
47.79999999999313 -20 0
49.89999999999657 -20 0
1 12 0 19
166
167
168
169
170
171
172
173
174
175
176
177
178
179
180
181
182
183
184
52 -19 0
52 -18 0
52 -17 0
52 -15.99999999999999 0
52 -14.99999999999999 0
52 -13.99999999999999 0
52 -12.99999999999999 0
52 -11.99999999999999 0
52 -10.99999999999999 0
52 -9.999999999999993 0
52 -8.999999999999995 0
52 -7.999999999999993 0
52 -6.999999999999995 0
52 -5.999999999999996 0
52 -4.999999999999996 0
52 -3.999999999999996 0
52 -3 0
52 -1.999999999999996 0
52 -1 0
1 13 0 9
185
186
187
188
189
190
191
192
193
54.00000000002859 -20 0
56.00000000005717 -20 0
58.00000000008576 -20 0
60.00000000011434 -20 0
62.00000000014293 -20 0
64.00000000016931 -20 0
66.0000000001274 -20 0
68.00000000008492 -20 0
70.00000000004246 -20 0
1 14 0 19
194
195
196
197
198
199
200
201
202
203
204
205
206
207
208
209
210
211
212
72 -19 0
72 -18 0
72 -17 0
72 -15.99999999999999 0
72 -14.99999999999999 0
72 -13.99999999999999 0
72 -12.99999999999999 0
72 -11.99999999999999 0
72 -10.99999999999999 0
72 -9.999999999999993 0
72 -8.999999999999995 0
72 -7.999999999999993 0
72 -6.999999999999995 0
72 -5.999999999999996 0
72 -4.999999999999996 0
72 -3.999999999999996 0
72 -3 0
72 -1.999999999999996 0
72 -1 0
1 15 0 9
213
214
215
216
217
218
219
220
221
70.00000000004246 0 0
68.00000000008494 0 0
66.0000000001274 0 0
64.00000000016931 0 0
62.00000000014294 0 0
60.00000000011435 0 0
58.00000000008576 0 0
56.00000000005718 0 0
54.00000000002859 0 0
1 16 0 0
1 17 0 19
222
223
224
225
226
227
228
229
230
231
232
233
234
235
236
237
238
239
240
82 -19 0
82 -18 0
82 -17 0
82 -15.99999999999999 0
82 -14.99999999999999 0
82 -13.99999999999999 0
82 -12.99999999999999 0
82 -11.99999999999999 0
82 -10.99999999999999 0
82 -9.999999999999993 0
82 -8.999999999999995 0
82 -7.999999999999993 0
82 -6.999999999999995 0
82 -5.999999999999996 0
82 -4.999999999999996 0
82 -3.999999999999996 0
82 -3 0
82 -1.999999999999996 0
82 -1 0
2 1 0 0
2 2 0 361
241
242
243
244
245
246
247
248
249
250
251
252
253
254
255
256
257
258
259
260
261
262
263
264
265
266
267
268
269
270
271
272
273
274
275
276
277
278
279
280
281
282
283
284
285
286
287
288
289
290
291
292
293
294
295
296
297
298
299
300
301
302
303
304
305
306
307
308
309
310
311
312
313
314
315
316
317
318
319
320
321
322
323
324
325
326
327
328
329
330
331
332
333
334
335
336
337
338
339
340
341
342
343
344
345
346
347
348
349
350
351
352
353
354
355
356
357
358
359
360
361
362
363
364
365
366
367
368
369
370
371
372
373
374
375
376
377
378
379
380
381
382
383
384
385
386
387
388
389
390
391
392
393
394
395
396
397
398
399
400
401
402
403
404
405
406
407
408
409
410
411
412
413
414
415
416
417
418
419
420
421
422
423
424
425
426
427
428
429
430
431
432
433
434
435
436
437
438
439
440
441
442
443
444
445
446
447
448
449
450
451
452
453
454
455
456
457
458
459
460
461
462
463
464
465
466
467
468
469
470
471
472
473
474
475
476
477
478
479
480
481
482
483
484
485
486
487
488
489
490
491
492
493
494
495
496
497
498
499
500
501
502
503
504
505
506
507
508
509
510
511
512
513
514
515
516
517
518
519
520
521
522
523
524
525
526
527
528
529
530
531
532
533
534
535
536
537
538
539
540
541
542
543
544
545
546
547
548
549
550
551
552
553
554
555
556
557
558
559
560
561
562
563
564
565
566
567
568
569
570
571
572
573
574
575
576
577
578
579
580
581
582
583
584
585
586
587
588
589
590
591
592
593
594
595
596
597
598
599
600
601
12.04999999999483 0.499999999999569 0
11.99999999999511 0.9999999999992212 0
11.9499999999954 1.499999999998353 0
11.8999999999957 1.999999999996951 0
11.849999999996 2.49999999999555 0
11.7999999999963 2.999999999994149 0
11.74999999999661 3.499999999992745 0
11.69999999999691 3.999999999991377 0
11.64999999999717 4.499999999991974 0
11.59999999999743 4.999999999992704 0
11.54999999999768 5.499999999993435 0
11.49999999999794 5.999999999994164 0
11.4499999999982 6.49999999999489 0
11.39999999999845 6.999999999995621 0
11.34999999999871 7.499999999996351 0
11.29999999999897 7.999999999997082 0
11.24999999999923 8.499999999997808 0
11.19999999999948 8.999999999998538 0
11.14999999999974 9.49999999999927 0
14.09999999998967 0.499999999999587 0
13.99999999999022 0.9999999999992539 0
13.89999999999081 1.499999999998422 0
13.7999999999914 1.999999999997079 0
13.69999999999201 2.499999999995736 0
13.59999999999261 2.999999999994391 0
13.49999999999322 3.499999999993048 0
13.39999999999382 3.999999999991737 0
13.29999999999434 4.49999999999231 0
13.19999999999485 4.999999999993009 0
13.09999999999537 5.499999999993707 0
12.99999999999588 5.999999999994408 0
12.8999999999964 6.499999999995104 0
12.79999999999691 6.999999999995804 0
12.69999999999743 7.499999999996504 0
12.59999999999794 7.999999999997204 0
12.49999999999845 8.4999999999979 0
12.39999999999897 8.9999999999986 0
12.29999999999949 9.499999999999298 0
16.14999999998541 0.499999999999605 0
15.99999999998621 0.9999999999992866 0
15.84999999998703 1.499999999998491 0
15.69999999998788 1.999999999997206 0
15.54999999998874 2.499999999995921 0
15.3999999999896 2.999999999994636 0
15.24999999999045 3.499999999993351 0
15.09999999999131 3.999999999992097 0
14.94999999999204 4.499999999992646 0
14.79999999999276 4.999999999993313 0
14.64999999999349 5.499999999993982 0
14.49999999999421 5.999999999994652 0
14.34999999999493 6.499999999995319 0
14.19999999999565 6.999999999995988 0
14.04999999999638 7.499999999996657 0
13.8999999999971 7.999999999997325 0
13.74999999999783 8.499999999997993 0
13.59999999999855 8.999999999998661 0
13.44999999999927 9.49999999999933 0
18.19999999998869 0.499999999999623 0
17.99999999998932 0.9999999999993189 0
17.79999999998999 1.499999999998559 0
17.5999999999907 1.999999999997333 0
17.39999999999141 2.499999999996107 0
17.19999999999213 2.99999999999488 0
16.99999999999284 3.499999999993654 0
16.79999999999355 3.999999999992457 0
16.5999999999941 4.49999999999298 0
16.39999999999463 4.999999999993618 0
16.19999999999517 5.499999999994255 0
15.9999999999957 5.999999999994895 0
15.79999999999624 6.499999999995532 0
15.59999999999678 6.99999999999617 0
15.39999999999732 7.49999999999681 0
15.19999999999785 7.999999999997447 0
14.99999999999839 8.499999999998085 0
14.79999999999892 8.999999999998725 0
14.59999999999946 9.499999999999361 0
20.24999999999197 0.499999999999641 0
19.99999999999243 0.9999999999993512 0
19.74999999999294 1.499999999998629 0
19.49999999999351 1.999999999997461 0
19.24999999999408 2.499999999996293 0
18.99999999999465 2.999999999995125 0
18.74999999999522 3.499999999993957 0
18.49999999999579 3.999999999992816 0
18.24999999999615 4.499999999993316 0
17.9999999999965 4.999999999993924 0
17.74999999999685 5.499999999994531 0
17.4999999999972 5.99999999999514 0
17.24999999999755 6.499999999995746 0
16.9999999999979 6.999999999996353 0
16.74999999999825 7.499999999996962 0
16.4999999999986 7.99999999999757 0
16.24999999999895 8.499999999998177 0
15.9999999999993 8.999999999998785 0
15.74999999999965 9.499999999999389 0
22.29999999999523 0.4999999999996589 0
21.99999999999554 0.9999999999993838 0
21.6999999999959 1.499999999998697 0
21.39999999999633 1.999999999997588 0
21.09999999999675 2.499999999996479 0
20.79999999999717 2.99999999999537 0
20.49999999999761 3.49999999999426 0
20.19999999999802 3.999999999993176 0
19.89999999999821 4.49999999999365 0
19.59999999999837 4.999999999994228 0
19.29999999999853 5.499999999994806 0
18.99999999999869 5.999999999995383 0
18.69999999999886 6.499999999995959 0
18.39999999999902 6.999999999996536 0
18.09999999999918 7.499999999997113 0
17.79999999999934 7.999999999997692 0
17.49999999999951 8.49999999999827 0
17.19999999999967 8.999999999998845 0
16.89999999999984 9.499999999999423 0
24.34999999999852 0.499999999999677 0
23.99999999999865 0.9999999999994166 0
23.64999999999885 1.499999999998766 0
23.29999999999913 1.999999999997715 0
22.94999999999942 2.499999999996664 0
22.59999999999971 2.999999999995614 0
22.24999999999999 3.499999999994563 0
21.90000000000027 3.999999999993537 0
21.55000000000026 4.499999999993985 0
21.20000000000024 4.999999999994531 0
20.85000000000021 5.499999999995079 0
20.50000000000019 5.999999999995627 0
20.15000000000016 6.499999999996172 0
19.80000000000014 6.999999999996719 0
19.45000000000012 7.499999999997265 0
19.10000000000009 7.999999999997813 0
18.75000000000007 8.499999999998359 0
18.40000000000005 8.999999999998906 0
18.05000000000003 9.499999999999455 0
26.39999999999468 0.499999999999695 0
25.999999999995 0.999999999999449 0
25.59999999999544 1.499999999998835 0
25.19999999999595 1.999999999997842 0
24.79999999999647 2.49999999999685 0
24.39999999999698 2.999999999995858 0
23.9999999999975 3.499999999994865 0
23.59999999999801 3.999999999993896 0
23.19999999999819 4.49999999999432 0
22.79999999999836 4.999999999994837 0
22.39999999999852 5.499999999995356 0
21.99999999999869 5.99999999999587 0
21.59999999999885 6.499999999996386 0
21.19999999999902 6.999999999996901 0
20.79999999999918 7.499999999997418 0
20.39999999999934 7.999999999997936 0
19.9999999999995 8.499999999998451 0
19.59999999999967 8.999999999998966 0
19.19999999999983 9.499999999999481 0
28.44999999998105 0.4999999999997131 0
27.99999999998212 0.9999999999994813 0
27.54999999998329 1.499999999998904 0
27.09999999998454 1.99999999999797 0
26.64999999998581 2.499999999997037 0
26.19999999998707 2.999999999996102 0
25.74999999998833 3.499999999995168 0
25.29999999998959 3.999999999994257 0
24.84999999999048 4.499999999994657 0
24.39999999999134 4.999999999995143 0
23.94999999999221 5.499999999995629 0
23.49999999999307 5.999999999996115 0
23.04999999999393 6.4999999999966 0
22.59999999999479 6.999999999997085 0
22.14999999999567 7.49999999999757 0
21.69999999999654 7.999999999998057 0
21.2499999999974 8.499999999998543 0
20.79999999999827 8.99999999999903 0
20.34999999999913 9.49999999999951 0
30.4999999999681 0.4999999999997311 0
29.99999999996986 0.9999999999995139 0
29.49999999997172 1.499999999998972 0
28.9999999999737 1.999999999998097 0
28.49999999997567 2.499999999997221 0
27.99999999997764 2.999999999996346 0
27.49999999997962 3.499999999995471 0
26.99999999998159 3.999999999994617 0
26.49999999998314 4.499999999994991 0
25.99999999998467 4.999999999995448 0
25.49999999998621 5.499999999995904 0
24.99999999998774 5.999999999996358 0
24.49999999998927 6.499999999996813 0
23.99999999999079 6.999999999997268 0
23.49999999999234 7.499999999997723 0
22.99999999999387 7.999999999998179 0
22.4999999999954 8.499999999998632 0
21.99999999999694 8.999999999999087 0
21.49999999999846 9.499999999999545 0
32.54999999997072 0.4999999999997491 0
31.99999999997235 0.9999999999995466 0
31.44999999997409 1.499999999999041 0
30.89999999997596 1.999999999998224 0
30.34999999997781 2.499999999997408 0
29.7999999999797 2.99999999999659 0
29.24999999998156 3.499999999995774 0
28.69999999998341 3.999999999994976 0
28.14999999998481 4.499999999995326 0
27.5999999999862 4.999999999995752 0
27.04999999998757 5.499999999996177 0
26.49999999998896 5.999999999996603 0
25.94999999999034 6.499999999997026 0
25.39999999999172 6.999999999997451 0
24.84999999999311 7.499999999997875 0
24.29999999999449 7.9999999999983 0
23.74999999999585 8.499999999998725 0
23.19999999999724 8.999999999999151 0
22.64999999999862 9.499999999999575 0
34.599999999974 0.4999999999997671 0
33.99999999997545 0.999999999999579 0
33.39999999997706 1.49999999999911 0
32.79999999997877 1.999999999998352 0
32.19999999998049 2.499999999997593 0
31.5999999999822 2.999999999996835 0
30.99999999998393 3.499999999996076 0
30.39999999998565 3.999999999995337 0
29.79999999998688 4.499999999995662 0
29.19999999998807 4.999999999996056 0
28.59999999998925 5.499999999996452 0
27.99999999999045 5.999999999996844 0
27.39999999999164 6.499999999997239 0
26.79999999999284 6.999999999997634 0
26.19999999999404 7.499999999998028 0
25.59999999999522 7.999999999998423 0
24.99999999999643 8.499999999998817 0
24.39999999999761 8.999999999999211 0
23.79999999999881 9.499999999999602 0
36.64999999997727 0.4999999999997851 0
35.99999999997856 0.9999999999996114 0
35.34999999998 1.499999999999178 0
34.69999999998159 1.999999999998479 0
34.04999999998316 2.499999999997779 0
33.39999999998474 2.999999999997079 0
32.74999999998631 3.49999999999638 0
32.09999999998789 3.999999999995696 0
31.44999999998892 4.499999999995996 0
30.79999999998994 4.999999999996361 0
30.14999999999094 5.499999999996727 0
29.49999999999194 5.999999999997089 0
28.84999999999295 6.499999999997452 0
28.19999999999395 6.999999999997817 0
27.54999999999496 7.499999999998179 0
26.89999999999597 7.999999999998545 0
26.24999999999698 8.499999999998909 0
25.59999999999798 8.999999999999272 0
24.94999999999898 9.499999999999634 0
38.69999999998053 0.499999999999803 0
37.99999999998168 0.9999999999996445 0
37.29999999998296 1.499999999999247 0
36.59999999998439 1.999999999998606 0
35.89999999998582 2.499999999997966 0
35.19999999998728 2.999999999997324 0
34.4999999999887 3.499999999996682 0
33.79999999999013 3.999999999996057 0
33.09999999999098 4.499999999996331 0
32.39999999999181 4.999999999996667 0
31.69999999999262 5.499999999997002 0
30.99999999999343 5.999999999997335 0
30.29999999999425 6.499999999997666 0
29.59999999999508 6.999999999998 0
28.8999999999959 7.499999999998331 0
28.19999999999672 7.999999999998666 0
27.49999999999753 8.499999999999002 0
26.79999999999836 8.999999999999332 0
26.09999999999917 9.499999999999666 0
40.74999999998381 0.499999999999821 0
39.99999999998477 0.9999999999996767 0
39.24999999998592 1.499999999999316 0
38.4999999999872 1.999999999998733 0
37.74999999998849 2.49999999999815 0
36.9999999999898 2.999999999997569 0
36.24999999999108 3.499999999996986 0
35.49999999999237 3.999999999996416 0
34.74999999999303 4.499999999996668 0
33.99999999999366 4.999999999996972 0
33.24999999999432 5.499999999997275 0
32.49999999999493 5.999999999997576 0
31.74999999999556 6.499999999997878 0
30.99999999999619 6.999999999998183 0
30.24999999999683 7.499999999998484 0
29.49999999999747 7.999999999998789 0
28.7499999999981 8.499999999999094 0
27.99999999999874 8.999999999999392 0
27.24999999999936 9.499999999999694 0
42.79999999998709 0.499999999999839 0
41.99999999998788 0.9999999999997092 0
41.19999999998886 1.499999999999384 0
40.39999999999 1.999999999998861 0
39.59999999999118 2.499999999998337 0
38.79999999999232 2.999999999997813 0
37.99999999999346 3.499999999997288 0
37.19999999999462 3.999999999996776 0
36.3999999999951 4.499999999997001 0
35.59999999999553 4.999999999997276 0
34.79999999999599 5.499999999997548 0
33.99999999999643 5.999999999997822 0
33.19999999999688 6.499999999998092 0
32.39999999999731 6.999999999998368 0
31.59999999999777 7.499999999998638 0
30.79999999999822 7.999999999998912 0
29.99999999999867 8.499999999999183 0
29.19999999999911 8.999999999999456 0
28.39999999999956 9.499999999999725 0
44.84999999999035 0.499999999999857 0
43.99999999999099 0.9999999999997419 0
43.14999999999182 1.499999999999453 0
42.29999999999283 1.999999999998988 0
41.44999999999381 2.499999999998523 0
40.59999999999483 2.999999999998056 0
39.74999999999584 3.499999999997591 0
38.89999999999683 3.999999999997137 0
38.04999999999715 4.499999999997337 0
37.19999999999741 4.99999999999758 0
36.34999999999766 5.499999999997824 0
35.49999999999793 5.999999999998067 0
34.64999999999819 6.499999999998305 0
33.79999999999845 6.999999999998549 0
32.94999999999871 7.499999999998788 0
32.09999999999897 7.999999999999032 0
31.24999999999922 8.499999999999272 0
30.39999999999948 8.999999999999513 0
29.54999999999973 9.499999999999758 0
46.89999999999362 0.4999999999998749 0
45.9999999999941 0.9999999999997745 0
45.09999999999478 1.499999999999522 0
44.19999999999564 1.999999999999115 0
43.29999999999649 2.499999999998709 0
42.39999999999736 2.999999999998301 0
41.49999999999822 3.499999999997894 0
40.59999999999908 3.999999999997496 0
39.69999999999921 4.499999999997672 0
38.79999999999928 4.999999999997885 0
37.89999999999934 5.499999999998099 0
36.99999999999942 5.999999999998308 0
36.09999999999949 6.499999999998519 0
35.19999999999956 6.999999999998732 0
34.29999999999963 7.49999999999894 0
33.39999999999971 7.999999999999154 0
32.49999999999978 8.499999999999364 0
31.59999999999987 8.999999999999577 0
30.69999999999993 9.499999999999789 0
48.94999999999691 0.4999999999998931 0
47.99999999999721 0.9999999999998068 0
47.04999999999773 1.499999999999591 0
46.09999999999845 1.999999999999243 0
45.14999999999916 2.499999999998894 0
44.1999999999999 2.999999999998546 0
43.2500000000006 3.499999999998197 0
42.30000000000133 3.999999999997856 0
41.35000000000127 4.499999999998007 0
40.40000000000115 4.99999999999819 0
39.45000000000102 5.499999999998371 0
38.50000000000092 5.999999999998552 0
37.5500000000008 6.499999999998733 0
36.60000000000068 6.999999999998916 0
35.65000000000058 7.499999999999094 0
34.70000000000046 7.999999999999278 0
33.75000000000033 8.499999999999456 0
32.80000000000023 8.999999999999638 0
31.85000000000012 9.499999999999817 0
2 3 0 0
2 4 0 361
602
603
604
605
606
607
608
609
610
611
612
613
614
615
616
617
618
619
620
621
622
623
624
625
626
627
628
629
630
631
632
633
634
635
636
637
638
639
640
641
642
643
644
645
646
647
648
649
650
651
652
653
654
655
656
657
658
659
660
661
662
663
664
665
666
667
668
669
670
671
672
673
674
675
676
677
678
679
680
681
682
683
684
685
686
687
688
689
690
691
692
693
694
695
696
697
698
699
700
701
702
703
704
705
706
707
708
709
710
711
712
713
714
715
716
717
718
719
720
721
722
723
724
725
726
727
728
729
730
731
732
733
734
735
736
737
738
739
740
741
742
743
744
745
746
747
748
749
750
751
752
753
754
755
756
757
758
759
760
761
762
763
764
765
766
767
768
769
770
771
772
773
774
775
776
777
778
779
780
781
782
783
784
785
786
787
788
789
790
791
792
793
794
795
796
797
798
799
800
801
802
803
804
805
806
807
808
809
810
811
812
813
814
815
816
817
818
819
820
821
822
823
824
825
826
827
828
829
830
831
832
833
834
835
836
837
838
839
840
841
842
843
844
845
846
847
848
849
850
851
852
853
854
855
856
857
858
859
860
861
862
863
864
865
866
867
868
869
870
871
872
873
874
875
876
877
878
879
880
881
882
883
884
885
886
887
888
889
890
891
892
893
894
895
896
897
898
899
900
901
902
903
904
905
906
907
908
909
910
911
912
913
914
915
916
917
918
919
920
921
922
923
924
925
926
927
928
929
930
931
932
933
934
935
936
937
938
939
940
941
942
943
944
945
946
947
948
949
950
951
952
953
954
955
956
957
958
959
960
961
962
12.09999999999455 -19 0
12.09999999999455 -18 0
12.09999999999455 -17 0
12.09999999999455 -15.99999999999999 0
12.09999999999455 -14.99999999999999 0
12.09999999999455 -13.99999999999999 0
12.09999999999455 -12.99999999999999 0
12.09999999999455 -11.99999999999999 0
12.09999999999455 -10.99999999999999 0
12.09999999999455 -9.999999999999993 0
12.09999999999455 -8.999999999999995 0
12.09999999999455 -7.999999999999992 0
12.09999999999455 -6.999999999999993 0
12.09999999999455 -5.999999999999996 0
12.09999999999455 -4.999999999999998 0
12.09999999999455 -3.999999999999996 0
12.09999999999455 -3 0
12.09999999999455 -1.999999999999996 0
12.09999999999455 -1 0
14.1999999999891 -19 0
14.1999999999891 -18 0
14.1999999999891 -17 0
14.1999999999891 -15.99999999999999 0
14.1999999999891 -14.99999999999999 0
14.1999999999891 -13.99999999999999 0
14.1999999999891 -12.99999999999999 0
14.1999999999891 -11.99999999999999 0
14.1999999999891 -10.99999999999999 0
14.1999999999891 -9.999999999999991 0
14.1999999999891 -8.999999999999995 0
14.1999999999891 -7.999999999999991 0
14.1999999999891 -6.999999999999995 0
14.1999999999891 -5.999999999999996 0
14.1999999999891 -4.999999999999997 0
14.1999999999891 -3.999999999999996 0
14.1999999999891 -2.999999999999999 0
14.1999999999891 -1.999999999999996 0
14.1999999999891 -0.9999999999999998 0
16.29999999998462 -19 0
16.29999999998463 -18 0
16.29999999998462 -17 0
16.29999999998462 -15.99999999999999 0
16.29999999998462 -14.99999999999999 0
16.29999999998462 -13.99999999999999 0
16.29999999998462 -12.99999999999999 0
16.29999999998462 -11.99999999999999 0
16.29999999998462 -10.99999999999999 0
16.29999999998462 -9.999999999999993 0
16.29999999998462 -8.999999999999991 0
16.29999999998462 -7.999999999999993 0
16.29999999998462 -6.999999999999996 0
16.29999999998462 -5.999999999999997 0
16.29999999998462 -4.999999999999998 0
16.29999999998462 -3.999999999999996 0
16.29999999998462 -3 0
16.29999999998462 -1.999999999999996 0
16.29999999998462 -1 0
18.39999999998807 -19 0
18.39999999998806 -18 0
18.39999999998806 -17 0
18.39999999998807 -15.99999999999999 0
18.39999999998807 -14.99999999999999 0
18.39999999998806 -13.99999999999999 0
18.39999999998806 -12.99999999999999 0
18.39999999998806 -11.99999999999999 0
18.39999999998806 -10.99999999999999 0
18.39999999998806 -9.999999999999993 0
18.39999999998806 -8.999999999999995 0
18.39999999998806 -7.999999999999991 0
18.39999999998806 -6.999999999999995 0
18.39999999998806 -5.999999999999996 0
18.39999999998806 -4.999999999999997 0
18.39999999998806 -3.999999999999996 0
18.39999999998806 -3 0
18.39999999998806 -1.999999999999996 0
18.39999999998806 -1 0
20.49999999999149 -19 0
20.49999999999149 -18 0
20.4999999999915 -17 0
20.49999999999149 -15.99999999999999 0
20.49999999999149 -14.99999999999999 0
20.49999999999149 -13.99999999999999 0
20.49999999999149 -12.99999999999999 0
20.49999999999149 -11.99999999999999 0
20.4999999999915 -10.99999999999999 0
20.49999999999149 -9.999999999999993 0
20.49999999999149 -8.999999999999995 0
20.49999999999149 -7.999999999999993 0
20.49999999999149 -6.999999999999994 0
20.49999999999149 -5.999999999999996 0
20.49999999999149 -4.999999999999997 0
20.49999999999149 -3.999999999999996 0
20.49999999999149 -3 0
20.49999999999149 -1.999999999999996 0
20.49999999999149 -1 0
22.59999999999494 -19 0
22.59999999999494 -18 0
22.59999999999494 -17 0
22.59999999999493 -16 0
22.59999999999493 -14.99999999999999 0
22.59999999999494 -13.99999999999999 0
22.59999999999494 -12.99999999999999 0
22.59999999999494 -11.99999999999999 0
22.59999999999494 -10.99999999999999 0
22.59999999999494 -9.999999999999993 0
22.59999999999493 -8.999999999999991 0
22.59999999999494 -7.999999999999993 0
22.59999999999494 -6.999999999999995 0
22.59999999999494 -5.999999999999996 0
22.59999999999494 -4.999999999999998 0
22.59999999999494 -3.999999999999996 0
22.59999999999494 -3 0
22.59999999999494 -1.999999999999997 0
22.59999999999493 -1 0
24.69999999999837 -19 0
24.69999999999837 -18 0
24.69999999999837 -16.99999999999999 0
24.69999999999837 -16 0
24.69999999999837 -14.99999999999999 0
24.69999999999837 -13.99999999999999 0
24.69999999999837 -12.99999999999999 0
24.69999999999837 -11.99999999999999 0
24.69999999999837 -10.99999999999999 0
24.69999999999837 -9.999999999999993 0
24.69999999999837 -8.999999999999993 0
24.69999999999837 -7.999999999999992 0
24.69999999999837 -6.999999999999995 0
24.69999999999837 -5.999999999999996 0
24.69999999999837 -4.999999999999998 0
24.69999999999837 -3.999999999999996 0
24.69999999999837 -3 0
24.69999999999837 -1.999999999999997 0
24.69999999999837 -1 0
26.79999999999432 -19 0
26.79999999999432 -18 0
26.79999999999431 -16.99999999999999 0
26.79999999999431 -15.99999999999999 0
26.79999999999431 -14.99999999999999 0
26.79999999999431 -13.99999999999999 0
26.79999999999432 -12.99999999999999 0
26.79999999999431 -11.99999999999999 0
26.79999999999431 -10.99999999999999 0
26.79999999999432 -9.999999999999993 0
26.79999999999431 -8.999999999999993 0
26.79999999999432 -7.999999999999991 0
26.79999999999432 -6.999999999999993 0
26.79999999999432 -5.999999999999996 0
26.79999999999431 -4.999999999999996 0
26.79999999999431 -3.999999999999996 0
26.79999999999432 -2.999999999999999 0
26.79999999999431 -1.999999999999996 0
26.79999999999432 -1 0
28.89999999997996 -19 0
28.89999999997998 -18 0
28.89999999997997 -17 0
28.89999999997996 -15.99999999999999 0
28.89999999997997 -14.99999999999999 0
28.89999999997996 -13.99999999999999 0
28.89999999997996 -12.99999999999999 0
28.89999999997997 -11.99999999999999 0
28.89999999997997 -10.99999999999999 0
28.89999999997996 -9.999999999999991 0
28.89999999997996 -8.999999999999995 0
28.89999999997996 -7.999999999999992 0
28.89999999997997 -6.999999999999995 0
28.89999999997997 -5.999999999999996 0
28.89999999997996 -4.999999999999997 0
28.89999999997998 -3.999999999999996 0
28.89999999997996 -3 0
28.89999999997997 -1.999999999999996 0
28.89999999997996 -1 0
30.99999999996634 -19 0
30.99999999996633 -18 0
30.99999999996633 -17 0
30.99999999996634 -15.99999999999999 0
30.99999999996633 -14.99999999999999 0
30.99999999996633 -13.99999999999999 0
30.99999999996633 -12.99999999999999 0
30.99999999996633 -11.99999999999999 0
30.99999999996634 -10.99999999999999 0
30.99999999996633 -9.999999999999993 0
30.99999999996634 -8.999999999999995 0
30.99999999996633 -7.999999999999993 0
30.99999999996633 -6.999999999999994 0
30.99999999996633 -5.999999999999996 0
30.99999999996633 -4.999999999999997 0
30.99999999996634 -3.999999999999996 0
30.99999999996633 -3 0
30.99999999996633 -1.999999999999996 0
30.99999999996633 -1 0
33.09999999996908 -19 0
33.09999999996909 -18 0
33.09999999996908 -17 0
33.09999999996908 -15.99999999999999 0
33.09999999996908 -14.99999999999999 0
33.09999999996908 -13.99999999999999 0
33.09999999996908 -12.99999999999999 0
33.09999999996908 -11.99999999999999 0
33.09999999996909 -10.99999999999999 0
33.09999999996908 -9.999999999999993 0
33.09999999996908 -8.999999999999995 0
33.09999999996908 -7.999999999999992 0
33.09999999996908 -6.999999999999995 0
33.09999999996908 -5.999999999999996 0
33.09999999996908 -4.999999999999996 0
33.09999999996908 -3.999999999999996 0
33.09999999996908 -3 0
33.09999999996908 -1.999999999999996 0
33.09999999996908 -1 0
35.19999999997251 -19 0
35.19999999997252 -18 0
35.19999999997251 -17 0
35.19999999997251 -15.99999999999999 0
35.19999999997251 -14.99999999999999 0
35.19999999997251 -13.99999999999999 0
35.19999999997251 -12.99999999999999 0
35.19999999997252 -11.99999999999999 0
35.19999999997251 -10.99999999999999 0
35.19999999997251 -9.999999999999993 0
35.19999999997251 -8.999999999999995 0
35.19999999997252 -7.999999999999991 0
35.19999999997251 -6.999999999999995 0
35.19999999997251 -5.999999999999996 0
35.19999999997251 -4.999999999999997 0
35.19999999997251 -3.999999999999996 0
35.19999999997251 -3 0
35.19999999997251 -1.999999999999996 0
35.19999999997251 -1 0
37.29999999997595 -19 0
37.29999999997595 -18 0
37.29999999997595 -17 0
37.29999999997595 -16 0
37.29999999997595 -14.99999999999999 0
37.29999999997595 -13.99999999999999 0
37.29999999997595 -12.99999999999999 0
37.29999999997595 -11.99999999999999 0
37.29999999997595 -10.99999999999999 0
37.29999999997595 -9.999999999999993 0
37.29999999997595 -8.999999999999996 0
37.29999999997595 -7.999999999999992 0
37.29999999997595 -6.999999999999994 0
37.29999999997595 -5.999999999999996 0
37.29999999997594 -4.999999999999997 0
37.29999999997595 -3.999999999999996 0
37.29999999997595 -3 0
37.29999999997595 -1.999999999999996 0
37.29999999997595 -1 0
39.3999999999794 -19 0
39.39999999997939 -18 0
39.3999999999794 -17 0
39.39999999997939 -15.99999999999999 0
39.39999999997938 -14.99999999999999 0
39.39999999997939 -13.99999999999999 0
39.39999999997939 -12.99999999999999 0
39.3999999999794 -11.99999999999999 0
39.39999999997939 -10.99999999999999 0
39.39999999997939 -9.999999999999993 0
39.3999999999794 -8.999999999999995 0
39.39999999997938 -7.999999999999992 0
39.39999999997939 -6.999999999999995 0
39.39999999997939 -5.999999999999997 0
39.39999999997939 -4.999999999999997 0
39.39999999997939 -3.999999999999996 0
39.39999999997939 -3 0
39.39999999997939 -1.999999999999996 0
39.39999999997939 -1 0
41.49999999998282 -19 0
41.4999999999828 -18 0
41.49999999998283 -17 0
41.49999999998283 -15.99999999999999 0
41.49999999998282 -14.99999999999999 0
41.49999999998282 -13.99999999999999 0
41.49999999998282 -12.99999999999999 0
41.49999999998282 -11.99999999999999 0
41.49999999998283 -10.99999999999999 0
41.49999999998282 -9.999999999999991 0
41.49999999998282 -8.999999999999995 0
41.49999999998282 -7.999999999999992 0
41.49999999998282 -6.999999999999994 0
41.49999999998283 -5.999999999999996 0
41.49999999998282 -4.999999999999997 0
41.49999999998282 -3.999999999999996 0
41.49999999998283 -3 0
41.49999999998282 -1.999999999999996 0
41.49999999998282 -1 0
43.59999999998625 -19 0
43.59999999998625 -18 0
43.59999999998625 -17 0
43.59999999998626 -15.99999999999999 0
43.59999999998626 -14.99999999999999 0
43.59999999998627 -13.99999999999999 0
43.59999999998625 -12.99999999999999 0
43.59999999998625 -11.99999999999999 0
43.59999999998625 -10.99999999999999 0
43.59999999998625 -9.999999999999993 0
43.59999999998625 -8.999999999999995 0
43.59999999998625 -7.999999999999991 0
43.59999999998625 -6.999999999999995 0
43.59999999998625 -5.999999999999996 0
43.59999999998625 -4.999999999999996 0
43.59999999998626 -3.999999999999996 0
43.59999999998625 -3 0
43.59999999998625 -1.999999999999996 0
43.59999999998625 -1 0
45.69999999998969 -19 0
45.69999999998969 -18 0
45.69999999998969 -17 0
45.69999999998969 -15.99999999999999 0
45.69999999998968 -14.99999999999999 0
45.69999999998969 -13.99999999999999 0
45.69999999998969 -12.99999999999999 0
45.69999999998969 -11.99999999999999 0
45.69999999998969 -10.99999999999999 0
45.69999999998969 -9.999999999999993 0
45.69999999998969 -8.999999999999995 0
45.69999999998969 -7.999999999999992 0
45.69999999998969 -6.999999999999995 0
45.69999999998969 -5.999999999999996 0
45.69999999998969 -4.999999999999997 0
45.69999999998969 -3.999999999999996 0
45.69999999998969 -3 0
45.69999999998969 -1.999999999999996 0
45.69999999998969 -1 0
47.79999999999313 -19 0
47.79999999999313 -18 0
47.79999999999312 -17 0
47.7999999999931 -15.99999999999999 0
47.79999999999313 -14.99999999999999 0
47.7999999999931 -13.99999999999999 0
47.79999999999313 -12.99999999999999 0
47.79999999999313 -11.99999999999999 0
47.79999999999313 -10.99999999999999 0
47.79999999999313 -9.999999999999991 0
47.79999999999314 -8.999999999999989 0
47.79999999999313 -7.999999999999993 0
47.79999999999313 -6.999999999999995 0
47.79999999999313 -5.999999999999996 0
47.79999999999313 -4.999999999999997 0
47.79999999999313 -3.999999999999996 0
47.79999999999312 -3 0
47.79999999999313 -1.999999999999996 0
47.79999999999313 -1 0
49.89999999999657 -19 0
49.89999999999657 -18 0
49.89999999999655 -17 0
49.89999999999657 -15.99999999999999 0
49.89999999999657 -14.99999999999999 0
49.89999999999657 -13.99999999999999 0
49.89999999999659 -12.99999999999999 0
49.89999999999656 -11.99999999999999 0
49.89999999999657 -10.99999999999999 0
49.89999999999657 -9.999999999999993 0
49.89999999999657 -8.999999999999993 0
49.89999999999657 -7.999999999999992 0
49.89999999999657 -6.999999999999995 0
49.89999999999657 -5.999999999999996 0
49.89999999999657 -4.999999999999997 0
49.89999999999657 -3.999999999999996 0
49.89999999999657 -3 0
49.89999999999656 -1.999999999999996 0
49.89999999999657 -1 0
2 5 0 171
963
964
965
966
967
968
969
970
971
972
973
974
975
976
977
978
979
980
981
982
983
984
985
986
987
988
989
990
991
992
993
994
995
996
997
998
999
1000
1001
1002
1003
1004
1005
1006
1007
1008
1009
1010
1011
1012
1013
1014
1015
1016
1017
1018
1019
1020
1021
1022
1023
1024
1025
1026
1027
1028
1029
1030
1031
1032
1033
1034
1035
1036
1037
1038
1039
1040
1041
1042
1043
1044
1045
1046
1047
1048
1049
1050
1051
1052
1053
1054
1055
1056
1057
1058
1059
1060
1061
1062
1063
1064
1065
1066
1067
1068
1069
1070
1071
1072
1073
1074
1075
1076
1077
1078
1079
1080
1081
1082
1083
1084
1085
1086
1087
1088
1089
1090
1091
1092
1093
1094
1095
1096
1097
1098
1099
1100
1101
1102
1103
1104
1105
1106
1107
1108
1109
1110
1111
1112
1113
1114
1115
1116
1117
1118
1119
1120
1121
1122
1123
1124
1125
1126
1127
1128
1129
1130
1131
1132
1133
54.00000000002857 -19 0
54.00000000002857 -18 0
54.00000000002858 -17 0
54.00000000002859 -15.99999999999999 0
54.00000000002859 -14.99999999999999 0
54.00000000002858 -13.99999999999999 0
54.00000000002861 -12.99999999999999 0
54.00000000002858 -11.99999999999999 0
54.00000000002858 -10.99999999999999 0
54.00000000002859 -9.999999999999991 0
54.00000000002858 -8.999999999999995 0
54.00000000002859 -7.999999999999993 0
54.00000000002859 -6.999999999999995 0
54.00000000002856 -5.999999999999996 0
54.00000000002859 -4.999999999999996 0
54.00000000002859 -3.999999999999996 0
54.00000000002857 -3 0
54.00000000002858 -1.999999999999996 0
54.00000000002859 -1 0
56.00000000005718 -19 0
56.00000000005717 -18 0
56.00000000005717 -17 0
56.00000000005718 -15.99999999999999 0
56.00000000005717 -14.99999999999999 0
56.00000000005716 -13.99999999999999 0
56.00000000005717 -12.99999999999999 0
56.00000000005719 -11.99999999999999 0
56.00000000005718 -10.99999999999999 0
56.00000000005717 -9.999999999999993 0
56.00000000005717 -8.999999999999995 0
56.00000000005717 -7.999999999999993 0
56.00000000005717 -6.999999999999995 0
56.00000000005717 -5.999999999999997 0
56.00000000005717 -4.999999999999997 0
56.00000000005717 -3.999999999999996 0
56.00000000005717 -3 0
56.00000000005717 -1.999999999999997 0
56.00000000005718 -1 0
58.00000000008576 -19 0
58.00000000008576 -18 0
58.00000000008576 -16.99999999999999 0
58.00000000008575 -15.99999999999999 0
58.00000000008576 -14.99999999999999 0
58.00000000008576 -13.99999999999999 0
58.00000000008575 -12.99999999999999 0
58.00000000008576 -11.99999999999999 0
58.00000000008577 -10.99999999999999 0
58.00000000008576 -9.999999999999991 0
58.00000000008576 -8.999999999999995 0
58.00000000008576 -7.999999999999992 0
58.00000000008577 -6.999999999999994 0
58.00000000008577 -5.999999999999996 0
58.00000000008576 -4.999999999999997 0
58.00000000008577 -3.999999999999996 0
58.00000000008577 -3 0
58.00000000008577 -1.999999999999996 0
58.00000000008576 -1 0
60.00000000011433 -19 0
60.00000000011433 -18 0
60.00000000011434 -16.99999999999999 0
60.00000000011435 -15.99999999999999 0
60.00000000011434 -14.99999999999999 0
60.00000000011433 -13.99999999999999 0
60.00000000011434 -12.99999999999999 0
60.00000000011435 -11.99999999999999 0
60.00000000011435 -10.99999999999999 0
60.00000000011435 -9.999999999999993 0
60.00000000011435 -8.999999999999995 0
60.00000000011434 -7.999999999999992 0
60.00000000011434 -6.999999999999995 0
60.00000000011434 -5.999999999999996 0
60.00000000011434 -4.999999999999997 0
60.00000000011434 -3.999999999999996 0
60.00000000011435 -3 0
60.00000000011435 -1.999999999999996 0
60.00000000011435 -1 0
62.00000000014293 -19 0
62.00000000014293 -18 0
62.00000000014294 -16.99999999999999 0
62.00000000014293 -15.99999999999999 0
62.00000000014293 -14.99999999999999 0
62.00000000014293 -13.99999999999999 0
62.00000000014293 -12.99999999999999 0
62.00000000014295 -11.99999999999999 0
62.00000000014294 -10.99999999999999 0
62.00000000014295 -9.999999999999993 0
62.00000000014293 -8.999999999999995 0
62.00000000014294 -7.999999999999992 0
62.00000000014293 -6.999999999999995 0
62.00000000014293 -5.999999999999996 0
62.00000000014295 -4.999999999999997 0
62.00000000014293 -3.999999999999996 0
62.00000000014293 -3 0
62.00000000014293 -1.999999999999996 0
62.00000000014295 -1 0
64.00000000016931 -19 0
64.00000000016931 -18 0
64.00000000016931 -16.99999999999999 0
64.00000000016932 -15.99999999999999 0
64.00000000016931 -14.99999999999999 0
64.00000000016931 -13.99999999999999 0
64.00000000016931 -12.99999999999999 0
64.00000000016931 -11.99999999999999 0
64.00000000016931 -10.99999999999999 0
64.00000000016931 -9.999999999999993 0
64.00000000016931 -8.999999999999993 0
64.00000000016931 -7.999999999999991 0
64.00000000016931 -6.999999999999995 0
64.00000000016931 -5.999999999999996 0
64.00000000016931 -4.999999999999997 0
64.00000000016931 -3.999999999999996 0
64.00000000016931 -3 0
64.00000000016931 -1.999999999999996 0
64.00000000016931 -1 0
66.00000000012741 -19 0
66.0000000001274 -17.99999999999999 0
66.0000000001274 -16.99999999999999 0
66.00000000012741 -16 0
66.0000000001274 -14.99999999999999 0
66.00000000012739 -13.99999999999999 0
66.0000000001274 -12.99999999999999 0
66.0000000001274 -11.99999999999999 0
66.0000000001274 -10.99999999999999 0
66.0000000001274 -9.999999999999993 0
66.0000000001274 -8.999999999999995 0
66.0000000001274 -7.999999999999992 0
66.0000000001274 -6.999999999999994 0
66.0000000001274 -5.999999999999996 0
66.0000000001274 -4.999999999999997 0
66.0000000001274 -3.999999999999996 0
66.00000000012741 -3 0
66.0000000001274 -1.999999999999996 0
66.0000000001274 -1 0
68.00000000008492 -19 0
68.00000000008492 -18 0
68.00000000008492 -17 0
68.00000000008492 -15.99999999999999 0
68.00000000008492 -14.99999999999999 0
68.00000000008495 -13.99999999999999 0
68.00000000008492 -12.99999999999999 0
68.00000000008492 -11.99999999999999 0
68.00000000008492 -10.99999999999999 0
68.00000000008492 -9.999999999999993 0
68.00000000008492 -8.999999999999995 0
68.00000000008492 -7.999999999999991 0
68.00000000008492 -6.999999999999995 0
68.00000000008492 -5.999999999999996 0
68.00000000008492 -4.999999999999997 0
68.00000000008492 -3.999999999999996 0
68.00000000008492 -3 0
68.00000000008492 -1.999999999999996 0
68.00000000008492 -1 0
70.00000000004248 -19 0
70.00000000004246 -18 0
70.00000000004248 -17 0
70.00000000004246 -15.99999999999999 0
70.00000000004248 -14.99999999999999 0
70.00000000004248 -13.99999999999999 0
70.00000000004246 -12.99999999999999 0
70.00000000004246 -11.99999999999999 0
70.00000000004246 -10.99999999999999 0
70.00000000004246 -9.999999999999991 0
70.00000000004246 -8.999999999999995 0
70.00000000004246 -7.999999999999992 0
70.00000000004246 -6.999999999999995 0
70.00000000004245 -5.999999999999996 0
70.00000000004246 -4.999999999999996 0
70.00000000004246 -3.999999999999996 0
70.00000000004248 -3 0
70.00000000004246 -1.999999999999996 0
70.00000000004246 -1 0
2 6 0 0
$EndNodes
$Elements
17 1213 1 1213
0 7 15 1
1 7 
1 2 1 20
2 2 14 
3 14 15 
4 15 16 
5 16 17 
6 17 18 
7 18 19 
8 19 20 
9 20 21 
10 21 22 
11 22 23 
12 23 24 
13 24 25 
14 25 26 
15 26 27 
16 27 28 
17 28 29 
18 29 30 
19 30 31 
20 31 32 
21 32 3 
1 4 1 20
22 1 33 
23 33 34 
24 34 35 
25 35 36 
26 36 37 
27 37 38 
28 38 39 
29 39 40 
30 40 41 
31 41 42 
32 42 43 
33 43 44 
34 44 45 
35 45 46 
36 46 47 
37 47 48 
38 48 49 
39 49 50 
40 50 51 
41 51 4 
1 8 1 20
42 1 109 
43 109 110 
44 110 111 
45 111 112 
46 112 113 
47 113 114 
48 114 115 
49 115 116 
50 116 117 
51 117 118 
52 118 119 
53 119 120 
54 120 121 
55 121 122 
56 122 123 
57 123 124 
58 124 125 
59 125 126 
60 126 127 
61 127 7 
1 9 1 1
62 7 8 
1 10 1 20
63 8 128 
64 128 129 
65 129 130 
66 130 131 
67 131 132 
68 132 133 
69 133 134 
70 134 135 
71 135 136 
72 136 137 
73 137 138 
74 138 139 
75 139 140 
76 140 141 
77 141 142 
78 142 143 
79 143 144 
80 144 145 
81 145 146 
82 146 2 
1 11 1 20
83 8 147 
84 147 148 
85 148 149 
86 149 150 
87 150 151 
88 151 152 
89 152 153 
90 153 154 
91 154 155 
92 155 156 
93 156 157 
94 157 158 
95 158 159 
96 159 160 
97 160 161 
98 161 162 
99 162 163 
100 163 164 
101 164 165 
102 165 9 
1 13 1 10
103 9 185 
104 185 186 
105 186 187 
106 187 188 
107 188 189 
108 189 190 
109 190 191 
110 191 192 
111 192 193 
112 193 10 
1 14 1 20
113 10 194 
114 194 195 
115 195 196 
116 196 197 
117 197 198 
118 198 199 
119 199 200 
120 200 201 
121 201 202 
122 202 203 
123 203 204 
124 204 205 
125 205 206 
126 206 207 
127 207 208 
128 208 209 
129 209 210 
130 210 211 
131 211 212 
132 212 11 
1 16 1 1
133 10 12 
1 17 1 20
134 12 222 
135 222 223 
136 223 224 
137 224 225 
138 225 226 
139 226 227 
140 227 228 
141 228 229 
142 229 230 
143 230 231 
144 231 232 
145 232 233 
146 233 234 
147 234 235 
148 235 236 
149 236 237 
150 237 238 
151 238 239 
152 239 240 
153 240 13 
2 1 3 20
154 1 2 14 33 
155 33 14 15 34 
156 34 15 16 35 
157 35 16 17 36 
158 36 17 18 37 
159 37 18 19 38 
160 38 19 20 39 
161 39 20 21 40 
162 40 21 22 41 
163 41 22 23 42 
164 42 23 24 43 
165 43 24 25 44 
166 44 25 26 45 
167 45 26 27 46 
168 46 27 28 47 
169 47 28 29 48 
170 48 29 30 49 
171 49 30 31 50 
172 50 31 32 51 
173 51 32 3 4 
2 2 3 400
174 2 52 241 14 
175 14 241 242 15 
176 15 242 243 16 
177 16 243 244 17 
178 17 244 245 18 
179 18 245 246 19 
180 19 246 247 20 
181 20 247 248 21 
182 21 248 249 22 
183 22 249 250 23 
184 23 250 251 24 
185 24 251 252 25 
186 25 252 253 26 
187 26 253 254 27 
188 27 254 255 28 
189 28 255 256 29 
190 29 256 257 30 
191 30 257 258 31 
192 31 258 259 32 
193 32 259 108 3 
194 52 53 260 241 
195 241 260 261 242 
196 242 261 262 243 
197 243 262 263 244 
198 244 263 264 245 
199 245 264 265 246 
200 246 265 266 247 
201 247 266 267 248 
202 248 267 268 249 
203 249 268 269 250 
204 250 269 270 251 
205 251 270 271 252 
206 252 271 272 253 
207 253 272 273 254 
208 254 273 274 255 
209 255 274 275 256 
210 256 275 276 257 
211 257 276 277 258 
212 258 277 278 259 
213 259 278 107 108 
214 53 54 279 260 
215 260 279 280 261 
216 261 280 281 262 
217 262 281 282 263 
218 263 282 283 264 
219 264 283 284 265 
220 265 284 285 266 
221 266 285 286 267 
222 267 286 287 268 
223 268 287 288 269 
224 269 288 289 270 
225 270 289 290 271 
226 271 290 291 272 
227 272 291 292 273 
228 273 292 293 274 
229 274 293 294 275 
230 275 294 295 276 
231 276 295 296 277 
232 277 296 297 278 
233 278 297 106 107 
234 54 55 298 279 
235 279 298 299 280 
236 280 299 300 281 
237 281 300 301 282 
238 282 301 302 283 
239 283 302 303 284 
240 284 303 304 285 
241 285 304 305 286 
242 286 305 306 287 
243 287 306 307 288 
244 288 307 308 289 
245 289 308 309 290 
246 290 309 310 291 
247 291 310 311 292 
248 292 311 312 293 
249 293 312 313 294 
250 294 313 314 295 
251 295 314 315 296 
252 296 315 316 297 
253 297 316 105 106 
254 55 56 317 298 
255 298 317 318 299 
256 299 318 319 300 
257 300 319 320 301 
258 301 320 321 302 
259 302 321 322 303 
260 303 322 323 304 
261 304 323 324 305 
262 305 324 325 306 
263 306 325 326 307 
264 307 326 327 308 
265 308 327 328 309 
266 309 328 329 310 
267 310 329 330 311 
268 311 330 331 312 
269 312 331 332 313 
270 313 332 333 314 
271 314 333 334 315 
272 315 334 335 316 
273 316 335 104 105 
274 56 57 336 317 
275 317 336 337 318 
276 318 337 338 319 
277 319 338 339 320 
278 320 339 340 321 
279 321 340 341 322 
280 322 341 342 323 
281 323 342 343 324 
282 324 343 344 325 
283 325 344 345 326 
284 326 345 346 327 
285 327 346 347 328 
286 328 347 348 329 
287 329 348 349 330 
288 330 349 350 331 
289 331 350 351 332 
290 332 351 352 333 
291 333 352 353 334 
292 334 353 354 335 
293 335 354 103 104 
294 57 58 355 336 
295 336 355 356 337 
296 337 356 357 338 
297 338 357 358 339 
298 339 358 359 340 
299 340 359 360 341 
300 341 360 361 342 
301 342 361 362 343 
302 343 362 363 344 
303 344 363 364 345 
304 345 364 365 346 
305 346 365 366 347 
306 347 366 367 348 
307 348 367 368 349 
308 349 368 369 350 
309 350 369 370 351 
310 351 370 371 352 
311 352 371 372 353 
312 353 372 373 354 
313 354 373 102 103 
314 58 59 374 355 
315 355 374 375 356 
316 356 375 376 357 
317 357 376 377 358 
318 358 377 378 359 
319 359 378 379 360 
320 360 379 380 361 
321 361 380 381 362 
322 362 381 382 363 
323 363 382 383 364 
324 364 383 384 365 
325 365 384 385 366 
326 366 385 386 367 
327 367 386 387 368 
328 368 387 388 369 
329 369 388 389 370 
330 370 389 390 371 
331 371 390 391 372 
332 372 391 392 373 
333 373 392 101 102 
334 59 60 393 374 
335 374 393 394 375 
336 375 394 395 376 
337 376 395 396 377 
338 377 396 397 378 
339 378 397 398 379 
340 379 398 399 380 
341 380 399 400 381 
342 381 400 401 382 
343 382 401 402 383 
344 383 402 403 384 
345 384 403 404 385 
346 385 404 405 386 
347 386 405 406 387 
348 387 406 407 388 
349 388 407 408 389 
350 389 408 409 390 
351 390 409 410 391 
352 391 410 411 392 
353 392 411 100 101 
354 60 61 412 393 
355 393 412 413 394 
356 394 413 414 395 
357 395 414 415 396 
358 396 415 416 397 
359 397 416 417 398 
360 398 417 418 399 
361 399 418 419 400 
362 400 419 420 401 
363 401 420 421 402 
364 402 421 422 403 
365 403 422 423 404 
366 404 423 424 405 
367 405 424 425 406 
368 406 425 426 407 
369 407 426 427 408 
370 408 427 428 409 
371 409 428 429 410 
372 410 429 430 411 
373 411 430 99 100 
374 61 62 431 412 
375 412 431 432 413 
376 413 432 433 414 
377 414 433 434 415 
378 415 434 435 416 
379 416 435 436 417 
380 417 436 437 418 
381 418 437 438 419 
382 419 438 439 420 
383 420 439 440 421 
384 421 440 441 422 
385 422 441 442 423 
386 423 442 443 424 
387 424 443 444 425 
388 425 444 445 426 
389 426 445 446 427 
390 427 446 447 428 
391 428 447 448 429 
392 429 448 449 430 
393 430 449 98 99 
394 62 63 450 431 
395 431 450 451 432 
396 432 451 452 433 
397 433 452 453 434 
398 434 453 454 435 
399 435 454 455 436 
400 436 455 456 437 
401 437 456 457 438 
402 438 457 458 439 
403 439 458 459 440 
404 440 459 460 441 
405 441 460 461 442 
406 442 461 462 443 
407 443 462 463 444 
408 444 463 464 445 
409 445 464 465 446 
410 446 465 466 447 
411 447 466 467 448 
412 448 467 468 449 
413 449 468 97 98 
414 63 64 469 450 
415 450 469 470 451 
416 451 470 471 452 
417 452 471 472 453 
418 453 472 473 454 
419 454 473 474 455 
420 455 474 475 456 
421 456 475 476 457 
422 457 476 477 458 
423 458 477 478 459 
424 459 478 479 460 
425 460 479 480 461 
426 461 480 481 462 
427 462 481 482 463 
428 463 482 483 464 
429 464 483 484 465 
430 465 484 485 466 
431 466 485 486 467 
432 467 486 487 468 
433 468 487 96 97 
434 64 65 488 469 
435 469 488 489 470 
436 470 489 490 471 
437 471 490 491 472 
438 472 491 492 473 
439 473 492 493 474 
440 474 493 494 475 
441 475 494 495 476 
442 476 495 496 477 
443 477 496 497 478 
444 478 497 498 479 
445 479 498 499 480 
446 480 499 500 481 
447 481 500 501 482 
448 482 501 502 483 
449 483 502 503 484 
450 484 503 504 485 
451 485 504 505 486 
452 486 505 506 487 
453 487 506 95 96 
454 65 66 507 488 
455 488 507 508 489 
456 489 508 509 490 
457 490 509 510 491 
458 491 510 511 492 
459 492 511 512 493 
460 493 512 513 494 
461 494 513 514 495 
462 495 514 515 496 
463 496 515 516 497 
464 497 516 517 498 
465 498 517 518 499 
466 499 518 519 500 
467 500 519 520 501 
468 501 520 521 502 
469 502 521 522 503 
470 503 522 523 504 
471 504 523 524 505 
472 505 524 525 506 
473 506 525 94 95 
474 66 67 526 507 
475 507 526 527 508 
476 508 527 528 509 
477 509 528 529 510 
478 510 529 530 511 
479 511 530 531 512 
480 512 531 532 513 
481 513 532 533 514 
482 514 533 534 515 
483 515 534 535 516 
484 516 535 536 517 
485 517 536 537 518 
486 518 537 538 519 
487 519 538 539 520 
488 520 539 540 521 
489 521 540 541 522 
490 522 541 542 523 
491 523 542 543 524 
492 524 543 544 525 
493 525 544 93 94 
494 67 68 545 526 
495 526 545 546 527 
496 527 546 547 528 
497 528 547 548 529 
498 529 548 549 530 
499 530 549 550 531 
500 531 550 551 532 
501 532 551 552 533 
502 533 552 553 534 
503 534 553 554 535 
504 535 554 555 536 
505 536 555 556 537 
506 537 556 557 538 
507 538 557 558 539 
508 539 558 559 540 
509 540 559 560 541 
510 541 560 561 542 
511 542 561 562 543 
512 543 562 563 544 
513 544 563 92 93 
514 68 69 564 545 
515 545 564 565 546 
516 546 565 566 547 
517 547 566 567 548 
518 548 567 568 549 
519 549 568 569 550 
520 550 569 570 551 
521 551 570 571 552 
522 552 571 572 553 
523 553 572 573 554 
524 554 573 574 555 
525 555 574 575 556 
526 556 575 576 557 
527 557 576 577 558 
528 558 577 578 559 
529 559 578 579 560 
530 560 579 580 561 
531 561 580 581 562 
532 562 581 582 563 
533 563 582 91 92 
534 69 70 583 564 
535 564 583 584 565 
536 565 584 585 566 
537 566 585 586 567 
538 567 586 587 568 
539 568 587 588 569 
540 569 588 589 570 
541 570 589 590 571 
542 571 590 591 572 
543 572 591 592 573 
544 573 592 593 574 
545 574 593 594 575 
546 575 594 595 576 
547 576 595 596 577 
548 577 596 597 578 
549 578 597 598 579 
550 579 598 599 580 
551 580 599 600 581 
552 581 600 601 582 
553 582 601 90 91 
554 70 5 71 583 
555 583 71 72 584 
556 584 72 73 585 
557 585 73 74 586 
558 586 74 75 587 
559 587 75 76 588 
560 588 76 77 589 
561 589 77 78 590 
562 590 78 79 591 
563 591 79 80 592 
564 592 80 81 593 
565 593 81 82 594 
566 594 82 83 595 
567 595 83 84 596 
568 596 84 85 597 
569 597 85 86 598 
570 598 86 87 599 
571 599 87 88 600 
572 600 88 89 601 
573 601 89 6 90 
2 3 3 20
574 7 8 128 127 
575 127 128 129 126 
576 126 129 130 125 
577 125 130 131 124 
578 124 131 132 123 
579 123 132 133 122 
580 122 133 134 121 
581 121 134 135 120 
582 120 135 136 119 
583 119 136 137 118 
584 118 137 138 117 
585 117 138 139 116 
586 116 139 140 115 
587 115 140 141 114 
588 114 141 142 113 
589 113 142 143 112 
590 112 143 144 111 
591 111 144 145 110 
592 110 145 146 109 
593 109 146 2 1 
2 4 3 400
594 8 147 602 128 
595 128 602 603 129 
596 129 603 604 130 
597 130 604 605 131 
598 131 605 606 132 
599 132 606 607 133 
600 133 607 608 134 
601 134 608 609 135 
602 135 609 610 136 
603 136 610 611 137 
604 137 611 612 138 
605 138 612 613 139 
606 139 613 614 140 
607 140 614 615 141 
608 141 615 616 142 
609 142 616 617 143 
610 143 617 618 144 
611 144 618 619 145 
612 145 619 620 146 
613 146 620 52 2 
614 147 148 621 602 
615 602 621 622 603 
616 603 622 623 604 
617 604 623 624 605 
618 605 624 625 606 
619 606 625 626 607 
620 607 626 627 608 
621 608 627 628 609 
622 609 628 629 610 
623 610 629 630 611 
624 611 630 631 612 
625 612 631 632 613 
626 613 632 633 614 
627 614 633 634 615 
628 615 634 635 616 
629 616 635 636 617 
630 617 636 637 618 
631 618 637 638 619 
632 619 638 639 620 
633 620 639 53 52 
634 148 149 640 621 
635 621 640 641 622 
636 622 641 642 623 
637 623 642 643 624 
638 624 643 644 625 
639 625 644 645 626 
640 626 645 646 627 
641 627 646 647 628 
642 628 647 648 629 
643 629 648 649 630 
644 630 649 650 631 
645 631 650 651 632 
646 632 651 652 633 
647 633 652 653 634 
648 634 653 654 635 
649 635 654 655 636 
650 636 655 656 637 
651 637 656 657 638 
652 638 657 658 639 
653 639 658 54 53 
654 149 150 659 640 
655 640 659 660 641 
656 641 660 661 642 
657 642 661 662 643 
658 643 662 663 644 
659 644 663 664 645 
660 645 664 665 646 
661 646 665 666 647 
662 647 666 667 648 
663 648 667 668 649 
664 649 668 669 650 
665 650 669 670 651 
666 651 670 671 652 
667 652 671 672 653 
668 653 672 673 654 
669 654 673 674 655 
670 655 674 675 656 
671 656 675 676 657 
672 657 676 677 658 
673 658 677 55 54 
674 150 151 678 659 
675 659 678 679 660 
676 660 679 680 661 
677 661 680 681 662 
678 662 681 682 663 
679 663 682 683 664 
680 664 683 684 665 
681 665 684 685 666 
682 666 685 686 667 
683 667 686 687 668 
684 668 687 688 669 
685 669 688 689 670 
686 670 689 690 671 
687 671 690 691 672 
688 672 691 692 673 
689 673 692 693 674 
690 674 693 694 675 
691 675 694 695 676 
692 676 695 696 677 
693 677 696 56 55 
694 151 152 697 678 
695 678 697 698 679 
696 679 698 699 680 
697 680 699 700 681 
698 681 700 701 682 
699 682 701 702 683 
700 683 702 703 684 
701 684 703 704 685 
702 685 704 705 686 
703 686 705 706 687 
704 687 706 707 688 
705 688 707 708 689 
706 689 708 709 690 
707 690 709 710 691 
708 691 710 711 692 
709 692 711 712 693 
710 693 712 713 694 
711 694 713 714 695 
712 695 714 715 696 
713 696 715 57 56 
714 152 153 716 697 
715 697 716 717 698 
716 698 717 718 699 
717 699 718 719 700 
718 700 719 720 701 
719 701 720 721 702 
720 702 721 722 703 
721 703 722 723 704 
722 704 723 724 705 
723 705 724 725 706 
724 706 725 726 707 
725 707 726 727 708 
726 708 727 728 709 
727 709 728 729 710 
728 710 729 730 711 
729 711 730 731 712 
730 712 731 732 713 
731 713 732 733 714 
732 714 733 734 715 
733 715 734 58 57 
734 153 154 735 716 
735 716 735 736 717 
736 717 736 737 718 
737 718 737 738 719 
738 719 738 739 720 
739 720 739 740 721 
740 721 740 741 722 
741 722 741 742 723 
742 723 742 743 724 
743 724 743 744 725 
744 725 744 745 726 
745 726 745 746 727 
746 727 746 747 728 
747 728 747 748 729 
748 729 748 749 730 
749 730 749 750 731 
750 731 750 751 732 
751 732 751 752 733 
752 733 752 753 734 
753 734 753 59 58 
754 154 155 754 735 
755 735 754 755 736 
756 736 755 756 737 
757 737 756 757 738 
758 738 757 758 739 
759 739 758 759 740 
760 740 759 760 741 
761 741 760 761 742 
762 742 761 762 743 
763 743 762 763 744 
764 744 763 764 745 
765 745 764 765 746 
766 746 765 766 747 
767 747 766 767 748 
768 748 767 768 749 
769 749 768 769 750 
770 750 769 770 751 
771 751 770 771 752 
772 752 771 772 753 
773 753 772 60 59 
774 155 156 773 754 
775 754 773 774 755 
776 755 774 775 756 
777 756 775 776 757 
778 757 776 777 758 
779 758 777 778 759 
780 759 778 779 760 
781 760 779 780 761 
782 761 780 781 762 
783 762 781 782 763 
784 763 782 783 764 
785 764 783 784 765 
786 765 784 785 766 
787 766 785 786 767 
788 767 786 787 768 
789 768 787 788 769 
790 769 788 789 770 
791 770 789 790 771 
792 771 790 791 772 
793 772 791 61 60 
794 156 157 792 773 
795 773 792 793 774 
796 774 793 794 775 
797 775 794 795 776 
798 776 795 796 777 
799 777 796 797 778 
800 778 797 798 779 
801 779 798 799 780 
802 780 799 800 781 
803 781 800 801 782 
804 782 801 802 783 
805 783 802 803 784 
806 784 803 804 785 
807 785 804 805 786 
808 786 805 806 787 
809 787 806 807 788 
810 788 807 808 789 
811 789 808 809 790 
812 790 809 810 791 
813 791 810 62 61 
814 157 158 811 792 
815 792 811 812 793 
816 793 812 813 794 
817 794 813 814 795 
818 795 814 815 796 
819 796 815 816 797 
820 797 816 817 798 
821 798 817 818 799 
822 799 818 819 800 
823 800 819 820 801 
824 801 820 821 802 
825 802 821 822 803 
826 803 822 823 804 
827 804 823 824 805 
828 805 824 825 806 
829 806 825 826 807 
830 807 826 827 808 
831 808 827 828 809 
832 809 828 829 810 
833 810 829 63 62 
834 158 159 830 811 
835 811 830 831 812 
836 812 831 832 813 
837 813 832 833 814 
838 814 833 834 815 
839 815 834 835 816 
840 816 835 836 817 
841 817 836 837 818 
842 818 837 838 819 
843 819 838 839 820 
844 820 839 840 821 
845 821 840 841 822 
846 822 841 842 823 
847 823 842 843 824 
848 824 843 844 825 
849 825 844 845 826 
850 826 845 846 827 
851 827 846 847 828 
852 828 847 848 829 
853 829 848 64 63 
854 159 160 849 830 
855 830 849 850 831 
856 831 850 851 832 
857 832 851 852 833 
858 833 852 853 834 
859 834 853 854 835 
860 835 854 855 836 
861 836 855 856 837 
862 837 856 857 838 
863 838 857 858 839 
864 839 858 859 840 
865 840 859 860 841 
866 841 860 861 842 
867 842 861 862 843 
868 843 862 863 844 
869 844 863 864 845 
870 845 864 865 846 
871 846 865 866 847 
872 847 866 867 848 
873 848 867 65 64 
874 160 161 868 849 
875 849 868 869 850 
876 850 869 870 851 
877 851 870 871 852 
878 852 871 872 853 
879 853 872 873 854 
880 854 873 874 855 
881 855 874 875 856 
882 856 875 876 857 
883 857 876 877 858 
884 858 877 878 859 
885 859 878 879 860 
886 860 879 880 861 
887 861 880 881 862 
888 862 881 882 863 
889 863 882 883 864 
890 864 883 884 865 
891 865 884 885 866 
892 866 885 886 867 
893 867 886 66 65 
894 161 162 887 868 
895 868 887 888 869 
896 869 888 889 870 
897 870 889 890 871 
898 871 890 891 872 
899 872 891 892 873 
900 873 892 893 874 
901 874 893 894 875 
902 875 894 895 876 
903 876 895 896 877 
904 877 896 897 878 
905 878 897 898 879 
906 879 898 899 880 
907 880 899 900 881 
908 881 900 901 882 
909 882 901 902 883 
910 883 902 903 884 
911 884 903 904 885 
912 885 904 905 886 
913 886 905 67 66 
914 162 163 906 887 
915 887 906 907 888 
916 888 907 908 889 
917 889 908 909 890 
918 890 909 910 891 
919 891 910 911 892 
920 892 911 912 893 
921 893 912 913 894 
922 894 913 914 895 
923 895 914 915 896 
924 896 915 916 897 
925 897 916 917 898 
926 898 917 918 899 
927 899 918 919 900 
928 900 919 920 901 
929 901 920 921 902 
930 902 921 922 903 
931 903 922 923 904 
932 904 923 924 905 
933 905 924 68 67 
934 163 164 925 906 
935 906 925 926 907 
936 907 926 927 908 
937 908 927 928 909 
938 909 928 929 910 
939 910 929 930 911 
940 911 930 931 912 
941 912 931 932 913 
942 913 932 933 914 
943 914 933 934 915 
944 915 934 935 916 
945 916 935 936 917 
946 917 936 937 918 
947 918 937 938 919 
948 919 938 939 920 
949 920 939 940 921 
950 921 940 941 922 
951 922 941 942 923 
952 923 942 943 924 
953 924 943 69 68 
954 164 165 944 925 
955 925 944 945 926 
956 926 945 946 927 
957 927 946 947 928 
958 928 947 948 929 
959 929 948 949 930 
960 930 949 950 931 
961 931 950 951 932 
962 932 951 952 933 
963 933 952 953 934 
964 934 953 954 935 
965 935 954 955 936 
966 936 955 956 937 
967 937 956 957 938 
968 938 957 958 939 
969 939 958 959 940 
970 940 959 960 941 
971 941 960 961 942 
972 942 961 962 943 
973 943 962 70 69 
974 165 9 166 944 
975 944 166 167 945 
976 945 167 168 946 
977 946 168 169 947 
978 947 169 170 948 
979 948 170 171 949 
980 949 171 172 950 
981 950 172 173 951 
982 951 173 174 952 
983 952 174 175 953 
984 953 175 176 954 
985 954 176 177 955 
986 955 177 178 956 
987 956 178 179 957 
988 957 179 180 958 
989 958 180 181 959 
990 959 181 182 960 
991 960 182 183 961 
992 961 183 184 962 
993 962 184 5 70 
2 5 3 200
994 9 185 963 166 
995 166 963 964 167 
996 167 964 965 168 
997 168 965 966 169 
998 169 966 967 170 
999 170 967 968 171 
1000 171 968 969 172 
1001 172 969 970 173 
1002 173 970 971 174 
1003 174 971 972 175 
1004 175 972 973 176 
1005 176 973 974 177 
1006 177 974 975 178 
1007 178 975 976 179 
1008 179 976 977 180 
1009 180 977 978 181 
1010 181 978 979 182 
1011 182 979 980 183 
1012 183 980 981 184 
1013 184 981 221 5 
1014 185 186 982 963 
1015 963 982 983 964 
1016 964 983 984 965 
1017 965 984 985 966 
1018 966 985 986 967 
1019 967 986 987 968 
1020 968 987 988 969 
1021 969 988 989 970 
1022 970 989 990 971 
1023 971 990 991 972 
1024 972 991 992 973 
1025 973 992 993 974 
1026 974 993 994 975 
1027 975 994 995 976 
1028 976 995 996 977 
1029 977 996 997 978 
1030 978 997 998 979 
1031 979 998 999 980 
1032 980 999 1000 981 
1033 981 1000 220 221 
1034 186 187 1001 982 
1035 982 1001 1002 983 
1036 983 1002 1003 984 
1037 984 1003 1004 985 
1038 985 1004 1005 986 
1039 986 1005 1006 987 
1040 987 1006 1007 988 
1041 988 1007 1008 989 
1042 989 1008 1009 990 
1043 990 1009 1010 991 
1044 991 1010 1011 992 
1045 992 1011 1012 993 
1046 993 1012 1013 994 
1047 994 1013 1014 995 
1048 995 1014 1015 996 
1049 996 1015 1016 997 
1050 997 1016 1017 998 
1051 998 1017 1018 999 
1052 999 1018 1019 1000 
1053 1000 1019 219 220 
1054 187 188 1020 1001 
1055 1001 1020 1021 1002 
1056 1002 1021 1022 1003 
1057 1003 1022 1023 1004 
1058 1004 1023 1024 1005 
1059 1005 1024 1025 1006 
1060 1006 1025 1026 1007 
1061 1007 1026 1027 1008 
1062 1008 1027 1028 1009 
1063 1009 1028 1029 1010 
1064 1010 1029 1030 1011 
1065 1011 1030 1031 1012 
1066 1012 1031 1032 1013 
1067 1013 1032 1033 1014 
1068 1014 1033 1034 1015 
1069 1015 1034 1035 1016 
1070 1016 1035 1036 1017 
1071 1017 1036 1037 1018 
1072 1018 1037 1038 1019 
1073 1019 1038 218 219 
1074 188 189 1039 1020 
1075 1020 1039 1040 1021 
1076 1021 1040 1041 1022 
1077 1022 1041 1042 1023 
1078 1023 1042 1043 1024 
1079 1024 1043 1044 1025 
1080 1025 1044 1045 1026 
1081 1026 1045 1046 1027 
1082 1027 1046 1047 1028 
1083 1028 1047 1048 1029 
1084 1029 1048 1049 1030 
1085 1030 1049 1050 1031 
1086 1031 1050 1051 1032 
1087 1032 1051 1052 1033 
1088 1033 1052 1053 1034 
1089 1034 1053 1054 1035 
1090 1035 1054 1055 1036 
1091 1036 1055 1056 1037 
1092 1037 1056 1057 1038 
1093 1038 1057 217 218 
1094 189 190 1058 1039 
1095 1039 1058 1059 1040 
1096 1040 1059 1060 1041 
1097 1041 1060 1061 1042 
1098 1042 1061 1062 1043 
1099 1043 1062 1063 1044 
1100 1044 1063 1064 1045 
1101 1045 1064 1065 1046 
1102 1046 1065 1066 1047 
1103 1047 1066 1067 1048 
1104 1048 1067 1068 1049 
1105 1049 1068 1069 1050 
1106 1050 1069 1070 1051 
1107 1051 1070 1071 1052 
1108 1052 1071 1072 1053 
1109 1053 1072 1073 1054 
1110 1054 1073 1074 1055 
1111 1055 1074 1075 1056 
1112 1056 1075 1076 1057 
1113 1057 1076 216 217 
1114 190 191 1077 1058 
1115 1058 1077 1078 1059 
1116 1059 1078 1079 1060 
1117 1060 1079 1080 1061 
1118 1061 1080 1081 1062 
1119 1062 1081 1082 1063 
1120 1063 1082 1083 1064 
1121 1064 1083 1084 1065 
1122 1065 1084 1085 1066 
1123 1066 1085 1086 1067 
1124 1067 1086 1087 1068 
1125 1068 1087 1088 1069 
1126 1069 1088 1089 1070 
1127 1070 1089 1090 1071 
1128 1071 1090 1091 1072 
1129 1072 1091 1092 1073 
1130 1073 1092 1093 1074 
1131 1074 1093 1094 1075 
1132 1075 1094 1095 1076 
1133 1076 1095 215 216 
1134 191 192 1096 1077 
1135 1077 1096 1097 1078 
1136 1078 1097 1098 1079 
1137 1079 1098 1099 1080 
1138 1080 1099 1100 1081 
1139 1081 1100 1101 1082 
1140 1082 1101 1102 1083 
1141 1083 1102 1103 1084 
1142 1084 1103 1104 1085 
1143 1085 1104 1105 1086 
1144 1086 1105 1106 1087 
1145 1087 1106 1107 1088 
1146 1088 1107 1108 1089 
1147 1089 1108 1109 1090 
1148 1090 1109 1110 1091 
1149 1091 1110 1111 1092 
1150 1092 1111 1112 1093 
1151 1093 1112 1113 1094 
1152 1094 1113 1114 1095 
1153 1095 1114 214 215 
1154 192 193 1115 1096 
1155 1096 1115 1116 1097 
1156 1097 1116 1117 1098 
1157 1098 1117 1118 1099 
1158 1099 1118 1119 1100 
1159 1100 1119 1120 1101 
1160 1101 1120 1121 1102 
1161 1102 1121 1122 1103 
1162 1103 1122 1123 1104 
1163 1104 1123 1124 1105 
1164 1105 1124 1125 1106 
1165 1106 1125 1126 1107 
1166 1107 1126 1127 1108 
1167 1108 1127 1128 1109 
1168 1109 1128 1129 1110 
1169 1110 1129 1130 1111 
1170 1111 1130 1131 1112 
1171 1112 1131 1132 1113 
1172 1113 1132 1133 1114 
1173 1114 1133 213 214 
1174 193 10 194 1115 
1175 1115 194 195 1116 
1176 1116 195 196 1117 
1177 1117 196 197 1118 
1178 1118 197 198 1119 
1179 1119 198 199 1120 
1180 1120 199 200 1121 
1181 1121 200 201 1122 
1182 1122 201 202 1123 
1183 1123 202 203 1124 
1184 1124 203 204 1125 
1185 1125 204 205 1126 
1186 1126 205 206 1127 
1187 1127 206 207 1128 
1188 1128 207 208 1129 
1189 1129 208 209 1130 
1190 1130 209 210 1131 
1191 1131 210 211 1132 
1192 1132 211 212 1133 
1193 1133 212 11 213 
2 6 3 20
1194 10 12 222 194 
1195 194 222 223 195 
1196 195 223 224 196 
1197 196 224 225 197 
1198 197 225 226 198 
1199 198 226 227 199 
1200 199 227 228 200 
1201 200 228 229 201 
1202 201 229 230 202 
1203 202 230 231 203 
1204 203 231 232 204 
1205 204 232 233 205 
1206 205 233 234 206 
1207 206 234 235 207 
1208 207 235 236 208 
1209 208 236 237 209 
1210 209 237 238 210 
1211 210 238 239 211 
1212 211 239 240 212 
1213 212 240 13 11 
$EndElements
