MESH dimension 3 ElemType Quadrilateral Nnode 8
Coordinates
    1               0              30               0
    2             0.5              30               0
    3               0            29.5               0
    4               0              29               0
    5               1              30               0
    6               1            29.5               0
    7             0.5              29               0
    8               1              29               0
    9               0            28.5               0
   10               1            28.5               0
   11               0              28               0
   12             0.5              28               0
   13               1              28               0
   14               0            27.5               0
   15               1            27.5               0
   16               0              27               0
   17             0.5              27               0
   18               1              27               0
   19               0            26.5               0
   20               1            26.5               0
   21               0              26               0
   22             0.5              26               0
   23               1              26               0
   24               0            25.5               0
   25               1            25.5               0
   26               0              25               0
   27             0.5              25               0
   28               1              25               0
   29               0            24.5               0
   30               1            24.5               0
   31               0              24               0
   32             0.5              24               0
   33               1              24               0
   34               0            23.5               0
   35               1            23.5               0
   36               0              23               0
   37             0.5              23               0
   38               1              23               0
   39               0            22.5               0
   40               1            22.5               0
   41               0              22               0
   42             0.5              22               0
   43               1              22               0
   44               0            21.5               0
   45               1            21.5               0
   46               0              21               0
   47             0.5              21               0
   48               1              21               0
   49               0            20.5               0
   50               1            20.5               0
   51               0              20               0
   52             0.5              20               0
   53               1              20               0
   54               0            19.5               0
   55               1            19.5               0
   56               0              19               0
   57             0.5              19               0
   58               1              19               0
   59               0            18.5               0
   60               1            18.5               0
   61               0              18               0
   62             0.5              18               0
   63               1              18               0
   64               0            17.5               0
   65               1            17.5               0
   66               0              17               0
   67             0.5              17               0
   68               1              17               0
   69               0            16.5               0
   70               1            16.5               0
   71               0              16               0
   72             0.5              16               0
   73               1              16               0
   74               0            15.5               0
   75               1            15.5               0
   76               0              15               0
   77             0.5              15               0
   78               1              15               0
   79               0            14.5               0
   80               1            14.5               0
   81               0              14               0
   82             0.5              14               0
   83               1              14               0
   84               0            13.5               0
   85               1            13.5               0
   86               0              13               0
   87             0.5              13               0
   88               1              13               0
   89               0            12.5               0
   90               1            12.5               0
   91               0              12               0
   92             0.5              12               0
   93               1              12               0
   94               0            11.5               0
   95               1            11.5               0
   96               0              11               0
   97             0.5              11               0
   98               1              11               0
   99               0            10.5               0
  100               1            10.5               0
  101               0              10               0
  102             0.5              10               0
  103               1              10               0
  104               0             9.5               0
  105               1             9.5               0
  106               0               9               0
  107             0.5               9               0
  108               1               9               0
  109               0             8.5               0
  110               1             8.5               0
  111               0               8               0
  112             0.5               8               0
  113               1               8               0
  114               0             7.5               0
  115               1             7.5               0
  116               0               7               0
  117             0.5               7               0
  118               1               7               0
  119               0             6.5               0
  120               1             6.5               0
  121               0               6               0
  122             0.5               6               0
  123               1               6               0
  124               0             5.5               0
  125               1             5.5               0
  126               0               5               0
  127             0.5               5               0
  128               1               5               0
  129               0             4.5               0
  130               1             4.5               0
  131               0               4               0
  132             0.5               4               0
  133               1               4               0
  134               0             3.5               0
  135               1             3.5               0
  136               0               3               0
  137             0.5               3               0
  138               1               3               0
  139               0             2.5               0
  140               1             2.5               0
  141               0               2               0
  142             0.5               2               0
  143               1               2               0
  144               0             1.5               0
  145               1             1.5               0
  146               0               1               0
  147             0.5               1               0
  148               1               1               0
  149               0             0.5               0
  150               1             0.5               0
  151               0               0               0
  152             0.5               0               0
  153               1               0               0
End Coordinates

Elements
1 153 148 146 151 150 147 149 152
2 148 143 141 146 145 142 144 147
3 143 138 136 141 140 137 139 142
4 138 133 131 136 135 132 134 137
5 133 128 126 131 130 127 129 132
6 128 123 121 126 125 122 124 127
7 123 118 116 121 120 117 119 122
8 118 113 111 116 115 112 114 117
9 113 108 106 111 110 107 109 112
10 108 103 101 106 105 102 104 107
11 103 98 96 101 100 97 99 102
12 98 93 91 96 95 92 94 97
13 93 88 86 91 90 87 89 92
14 88 83 81 86 85 82 84 87
15 83 78 76 81 80 77 79 82
16 78 73 71 76 75 72 74 77
17 73 68 66 71 70 67 69 72
18 68 63 61 66 65 62 64 67
19 63 58 56 61 60 57 59 62
20 58 53 51 56 55 52 54 57
21 48 46 51 53 47 49 52 50
22 43 41 46 48 42 44 47 45
23 38 36 41 43 37 39 42 40
24 33 31 36 38 32 34 37 35
25 28 26 31 33 27 29 32 30
26 23 21 26 28 22 24 27 25
27 18 16 21 23 17 19 22 20
28 13 11 16 18 12 14 17 15
29 8 4 11 13 7 9 12 10
30 5 1 4 8 2 3 7 6
End Elements
