$MeshFormat
4.1 0 8
$EndMeshFormat
$PhysicalNames
3
0 201 "rectangle_points"
1 202 "rectangle_lines"
2 203 "rectangle_surface"
$EndPhysicalNames
$Entities
4 4 1 0
1 0 0 0 1 201 
2 15 0 0 1 201 
3 15 4 0 1 201 
4 0 4 0 1 201 
1 0 0 0 15 0 0 1 202 2 1 -2 
2 15 0 0 15 4 0 1 202 2 2 -3 
3 0 4 0 15 4 0 1 202 2 3 -4 
4 0 0 0 0 4 0 1 202 2 4 -1 
1 0 0 0 15 4 0 1 203 4 1 2 3 4 
$EndEntities
$Nodes
9 329 1 329
0 1 0 1
1
0 0 0
0 2 0 1
2
15 0 0
0 3 0 1
3
15 4 0
0 4 0 1
4
0 4 0
1 1 0 29
5
6
7
8
9
10
11
12
13
14
15
16
17
18
19
20
21
22
23
24
25
26
27
28
29
30
31
32
33
0.4999999999998712 0 0
0.9999999999995183 0 0
1.499999999999772 0 0
1.999999999999871 0 0
2.499999999999415 0 0
2.999999999998959 0 0
3.499999999998503 0 0
3.999999999998025 0 0
4.499999999996237 0 0
4.9999999999943 0 0
5.499999999992363 0 0
5.999999999990425 0 0
6.499999999988487 0 0
6.99999999998655 0 0
7.499999999984786 0 0
7.999999999985638 0 0
8.499999999986663 0 0
8.999999999987688 0 0
9.499999999988715 0 0
9.999999999989742 0 0
10.49999999999077 0 0
10.99999999999179 0 0
11.49999999999282 0 0
11.99999999999384 0 0
12.49999999999487 0 0
12.99999999999589 0 0
13.49999999999692 0 0
13.99999999999795 0 0
14.49999999999898 0 0
1 2 0 7
34
35
36
37
38
39
40
15 0.4999999999990951 0
15 0.9999999999976495 0
15 1.499999999996191 0
15 1.999999999994777 0
15 2.49999999999605 0
15 2.999999999997367 0
15 3.499999999998683 0
1 3 0 29
41
42
43
44
45
46
47
48
49
50
51
52
53
54
55
56
57
58
59
60
61
62
63
64
65
66
67
68
69
14.49999999999874 4 0
13.99999999999748 4 0
13.49999999999622 4 0
12.99999999999496 4 0
12.4999999999937 4 0
11.99999999999244 4 0
11.49999999999118 4 0
10.99999999999002 4 0
10.49999999999407 4 0
9.999999999998737 4 0
9.500000000003396 4 0
9.000000000008059 4 0
8.500000000012722 4 0
8.000000000017128 4 0
7.500000000018748 4 0
7.000000000017661 4 0
6.500000000016399 4 0
6.000000000015138 4 0
5.500000000013877 4 0
5.000000000012616 4 0
4.500000000011351 4 0
4.000000000010091 4 0
3.500000000008828 4 0
3.000000000007569 4 0
2.500000000006306 4 0
2.000000000005045 4 0
1.500000000003784 4 0
1.000000000002521 4 0
0.5000000000012594 4 0
1 4 0 7
70
71
72
73
74
75
76
0 3.499999999998004 0
0 3.000000000001386 0
0 2.500000000004855 0
0 2.000000000008236 0
0 1.500000000006242 0
0 1.000000000004162 0
0 0.5000000000020806 0
2 1 0 253
77
78
79
80
81
82
83
84
85
86
87
88
89
90
91
92
93
94
95
96
97
98
99
100
101
102
103
104
105
106
107
108
109
110
111
112
113
114
115
116
117
118
119
120
121
122
123
124
125
126
127
128
129
130
131
132
133
134
135
136
137
138
139
140
141
142
143
144
145
146
147
148
149
150
151
152
153
154
155
156
157
158
159
160
161
162
163
164
165
166
167
168
169
170
171
172
173
174
175
176
177
178
179
180
181
182
183
184
185
186
187
188
189
190
191
192
193
194
195
196
197
198
199
200
201
202
203
204
205
206
207
208
209
210
211
212
213
214
215
216
217
218
219
220
221
222
223
224
225
226
227
228
229
230
231
232
233
234
235
236
237
238
239
240
241
242
243
244
245
246
247
248
249
250
251
252
253
254
255
256
257
258
259
260
261
262
263
264
265
266
267
268
269
270
271
272
273
274
275
276
277
278
279
280
281
282
283
284
285
286
287
288
289
290
291
292
293
294
295
296
297
298
299
300
301
302
303
304
305
306
307
308
309
310
311
312
313
314
315
316
317
318
319
320
321
322
323
324
325
326
327
328
329
10.31563648480221 3.5247871034939 0
8.705859059919623 3.523494557512638 0
4.718161788576539 0.3987315035277324 0
6.237200356745278 0.391582906021735 0
2.260251581194557 0.4518231665883615 0
12.75824000871094 0.4248296958381226 0
7.749999999985212 0.4330127018918243 0
11.25611923367856 0.4451782413675804 0
3.252841699983444 3.576588837976373 0
9.772356307716279 0.434233420689157 0
6.826889370021961 3.524898986391507 0
5.250000000013292 3.575747111985209 0
11.78972472246462 3.552362725556087 0
1.74539900049331 3.555728489641155 0
14.56698729810765 2.249999999995712 0
0.4330127018918242 1.750000000006358 0
13.24999999999559 3.566987298106691 0
8.724840053798781 0.4957330072475684 0
4.250000000010734 3.576369129575041 0
7.768841403347426 3.546712816015158 0
3.749999999998264 0.4330127018912378 0
13.71956679084342 0.4468585708458224 0
1.279169002233308 0.4161719706004496 0
0.4306533549308039 2.745913491197546 0
14.56698729810904 1.24999999999692 0
14.57815184779144 3.230662432700491 0
0.7959128095285848 3.547151376280642 0
0.4233860225293601 0.7521186846437852 0
0.4314082553319452 1.250353114112955 0
0.8627664639521564 1.505240337898697 0
0.8654822471435719 2.000873389655012 0
1.29541289085723 1.756200440137774 0
1.2983433770967 2.251178971636371 0
1.73133081699881 2.001229901967891 0
1.735027018371978 1.535158276344128 0
2.169139957865784 1.762473997469943 0
2.16805688540711 2.254540222412565 0
2.599428744187186 2.002533930222012 0
2.602681453259223 1.508910622367236 0
3.032081875698088 1.751907425438849 0
3.031088913238654 2.250000000010307 0
3.464267108874306 2.000317904249309 0
3.4701122615674 2.522382083417954 0
3.898143673719659 2.253783331286159 0
3.897313458763798 1.750683539264176 0
4.330331768654959 2.000744478433833 0
4.330127018916448 1.500000000012953 0
4.763173845764499 1.750124079750438 0
4.760989579790789 2.246351649030671 0
5.195799753356249 1.999412621473163 0
5.196099331969135 1.499922783547158 0
5.629097497912733 1.749889234180226 0
5.629095075254105 2.24988364261864 0
6.062171853450687 1.999990146341866 0
6.06214864333088 2.499950363902709 0
6.495167958615632 2.249961826436555 0
6.49518577124335 1.749991995474284 0
6.928198478146539 1.999992645982188 0
6.924044518227757 1.507197795716349 0
7.356364894300755 1.75839876242307 0
7.360406436190197 2.251398910397461 0
7.793285211744831 2.001632945481712 0
7.784147830391007 1.535596503301646 0
8.227535282308665 1.755298583144477 0
8.22713308995073 2.251155254781788 0
8.660284987893888 2.001075639666271 0
8.662721693112822 1.505242685284556 0
9.093683173945587 1.751053054171151 0
9.093304782602655 2.250181011394752 0
9.526355187796092 2.000205677606632 0
9.526292987928635 2.500046034417035 0
9.959307025585851 2.250041952016518 0
9.959307248214174 1.750041271617065 0
10.39230984319313 2.000013870619162 0
10.39230819581294 1.500009190386172 0
10.82531893865569 1.750003843514649 0
10.8253186121468 2.250002952369501 0
11.25833065854975 2.000001132661523 0
11.25833037453696 2.50000034738408 0
11.69134304019188 2.250000246688904 0
11.69535729417256 1.744027201013167 0
12.12505821496174 1.999062580946912 0
12.12447276148218 2.499843804621181 0
12.55750496660818 2.249817730943555 0
12.55754170710934 1.749871391645135 0
12.99043271741565 1.999948187113948 0
12.99202171610995 1.477640830435895 0
13.40339241365319 1.746264836274467 0
13.41402127284681 2.30388426135151 0
3.032021947301911 1.251803007975143 0
12.55738992970745 2.749971219030095 0
5.629145005024029 1.249968669631861 0
9.093266739721804 1.250000000020278 0
10.82531774565481 2.750000549972482 0
3.031088913237526 2.750000000010406 0
10.82531833758478 1.250002172330647 0
12.55736835485655 1.250000000022372 0
5.62008505518427 2.717806316882002 0
6.025332164344129 3.069246930102723 0
3.908063825702225 2.743603588022518 0
9.086650555571442 2.738563381359821 0
9.516798104797994 3.071053547986068 0
13.42339375864142 1.250000000023823 0
10.39772901175521 1.009395630202333 0
6.487111247742327 1.263990133065579 0
6.942844967656776 0.9791710300746422 0
3.903968990139424 1.261929078056652 0
13.8564064605334 1.500000000024543 0
11.24868174609088 2.996857644045605 0
5.213377594882596 1.003650074390311 0
5.645719367207129 0.7806278372445385 0
4.374492954202748 1.060124519638893 0
12.08347020020412 3.078480972065728 0
12.53352804588977 3.203105992231471 0
12.96709741498749 3.080709723827351 0
10.81086478692823 3.250129034054114 0
2.54667759292719 0.9327027001498559 0
3.017819233968678 0.7852716517959659 0
10.39230484539272 3.000000000019533 0
13.82751136977842 0.907958139904709 0
8.68936286610761 1.021693871386037 0
10.81697623626834 0.7578047000430832 0
11.25985045456966 0.9794906770938048 0
11.72745285624906 0.7205346208749707 0
11.71522757141939 1.213813788774205 0
12.14098623841401 0.956536922241309 0
10.34177590446859 0.4846988087494166 0
0.8206106114102669 0.9977991279719696 0
11.24872187335251 3.518055988163981 0
8.249999999986738 0.4330127018927574 0
7.97530511072094 0.8212758126452164 0
7.500268661769102 0.8598777632859976 0
7.249999999985667 0.4330127018906171 0
6.735824242628583 0.4628846791171576 0
10.39230736243067 2.500007062507543 0
6.047212186968203 1.032972540469194 0
0.4325289512910929 2.24946448014633 0
14.56884805638804 2.746777072113674 0
14.13614548087509 2.996239917467011 0
14.18560483131361 3.539420065119947 0
13.71756214735854 3.274829519514439 0
13.69032375954549 2.764978334502357 0
14.14547676327659 2.523162021679488 0
14.12897432361452 1.986305546817003 0
9.249999999987601 0.4330127018927712 0
9.514953640723085 0.9099312683061442 0
0.8653452399854167 2.499571722107352 0
1.2990381056718 2.750000000005055 0
0.8514740393201243 3.003019589459896 0
1.284710263831747 3.252495591055764 0
1.735606900629333 3.015560787713692 0
2.211473757281145 3.266505719373203 0
2.178621934643629 2.765348073602923 0
2.62493710571802 3.010794363279786 0
8.659144798298286 2.498495881205113 0
8.227241335940182 2.75000000001464 0
7.793918440005431 2.500697851784249 0
7.360830190791836 2.750579926986159 0
7.789748759899855 3.008228240621072 0
8.227241335940237 3.25000000001315 0
7.332038465341901 3.24916911967858 0
6.907175253740374 2.99518564020402 0
6.924478294886175 2.499491224069537 0
8.660254037830835 3.000000000013409 0
4.776694108628862 1.26837871928016 0
3.487468197233132 0.9219146184751124 0
1.756570097237808 0.4333409907927732 0
2.00004648026184 0.8605692716964222 0
1.536228242257178 0.8173804733917799 0
6.058320593723554 1.507800453193835 0
4.750000000012028 3.570010905664601 0
5.003489393898075 3.177329640760708 0
4.500581565655949 3.18373875486067 0
12.96468994504168 2.52238852038177 0
14.5864373176669 1.747717591132739 0
3.750473616671992 3.579533024798016 0
3.489947216718809 3.079136707811369 0
6.250000000015952 3.566987298106794 0
5.754222027402735 3.566419136613147 0
14.23301042717232 0.467052337424857 0
13.23980018067998 0.425473281955743 0
12.99732262226048 0.9228567424281301 0
3.469520263001776 1.489759262243206 0
9.959292143502726 1.250000000019706 0
2.6937575375516 3.531313062628422 0
11.69134295106884 2.750000000021979 0
12.20373130794913 0.4618112827998987 0
4.233743224519078 0.390000410098078 0
4.316254807978746 2.472156719152292 0
9.750000000001073 3.566987298111833 0
9.250000000005732 3.566987298111816 0
5.20448430448714 2.468527663536847 0
11.2632338758253 1.489556469231332 0
9.959292143500813 2.750000000015677 0
9.524476355650577 1.485205211956829 0
1.73516633674123 2.506309659556416 0
6.485717052488942 2.751745224090239 0
12.12455659273296 1.500348037911218 0
2.605537082738687 2.505536098256332 0
5.23466902677873 0.4809480825467485 0
4.752109835759265 2.734273429099743 0
0.4106335114151764 3.234668253136483 0
0.7865652396395455 0.4575562062422319 0
14.61477987426886 0.7643048810967075 0
8.20702586797257 1.222804233604059 0
12.2683591862754 3.575865642964802 0
1.307220026773201 1.217841478536515 0
2.743235242936159 0.4203096622144874 0
2.149167958797942 1.288819452357022 0
7.356684041392596 1.294587536557982 0
5.496705582934496 3.180364985223806 0
4.009054070994736 3.183098652753342 0
6.500000000016465 3.196635359825891 0
3.277460848946268 0.4138911230658541 0
9.995681858580326 0.8144262806914698 0
9.99052451353815 3.190755451309379 0
3.017050199859047 3.19158383543121 0
12.77059956816839 3.580521425924748 0
13.44151894444074 0.7906293470316456 0
12.53152970643822 0.8032069286659664 0
9.053518045630673 0.8188467577224386 0
9.043912351625124 3.180019756996751 0
4.040987951777229 0.7923914423838551 0
6.403752804751296 0.7977054969234141 0
5.757645627332566 0.364358725881827 0
7.250000000018208 3.659289501018702 0
10.74999999999204 3.662884844723602 0
13.73063339573229 3.676247376548214 0
1.265204414771989 3.671075091395512 0
11.62078645845745 3.174867523912901 0
8.246497215697321 3.66549049937728 0
4.815424436806794 0.8405597845804426 0
10.77603479791143 0.3405335680205073 0
2.230126059067481 3.670709454328556 0
11.74999999999332 0.3138503731883592 0
13.72125542861897 1.988204492931326 0
14.27870246480824 1.49735493666957 0
13.28640427010675 2.761512042240343 0
14.23674934673238 1.046818333812054 0
0.3660254037852353 3.633974596214566 0
0.3660254037857451 0.366025403786337 0
14.63397459621441 0.3660254037850794 0
14.6339745962146 3.633974596214579 0
13.35299936323481 3.13929911758345 0
5.270936363325328 2.870470415257666 0
13.82001030958048 2.313306931456337 0
4.267205838631747 2.86200248341927 0
8.363460511306634 0.7902315700173782 0
7.749999999985721 1.135263290262036 0
1.749999999999669 1.133974596220612 0
1.15049496056393 0.7791370977906463 0
5.989081203528377 0.662125063242602 0
4.465799103043048 0.6919562067057301 0
$EndNodes
$Elements
9 660 1 660
0 1 15 1
1 1 
0 2 15 1
2 2 
0 3 15 1
3 3 
0 4 15 1
4 4 
1 1 1 30
5 1 5 
6 5 6 
7 6 7 
8 7 8 
9 8 9 
10 9 10 
11 10 11 
12 11 12 
13 12 13 
14 13 14 
15 14 15 
16 15 16 
17 16 17 
18 17 18 
19 18 19 
20 19 20 
21 20 21 
22 21 22 
23 22 23 
24 23 24 
25 24 25 
26 25 26 
27 26 27 
28 27 28 
29 28 29 
30 29 30 
31 30 31 
32 31 32 
33 32 33 
34 33 2 
1 2 1 8
35 2 34 
36 34 35 
37 35 36 
38 36 37 
39 37 38 
40 38 39 
41 39 40 
42 40 3 
1 3 1 30
43 3 41 
44 41 42 
45 42 43 
46 43 44 
47 44 45 
48 45 46 
49 46 47 
50 47 48 
51 48 49 
52 49 50 
53 50 51 
54 51 52 
55 52 53 
56 53 54 
57 54 55 
58 55 56 
59 56 57 
60 57 58 
61 58 59 
62 59 60 
63 60 61 
64 61 62 
65 62 63 
66 63 64 
67 64 65 
68 65 66 
69 66 67 
70 67 68 
71 68 69 
72 69 4 
1 4 1 8
73 4 70 
74 70 71 
75 71 72 
76 72 73 
77 73 74 
78 74 75 
79 75 76 
80 76 1 
2 1 2 580
81 237 87 238 
82 196 98 256 
83 81 193 244 
84 86 24 203 
85 89 189 282 
86 196 256 315 
87 87 237 302 
88 193 81 284 
89 192 77 195 
90 175 254 255 
91 208 182 209 
92 189 89 306 
93 171 119 253 
94 178 266 267 
95 222 260 271 
96 228 230 261 
97 97 242 290 
98 163 173 258 
99 175 255 287 
100 191 93 294 
101 103 225 226 
102 179 163 258 
103 209 182 210 
104 169 222 271 
105 119 176 253 
106 93 191 320 
107 77 192 303 
108 78 236 240 
109 24 25 203 
110 228 261 310 
111 86 203 291 
112 202 200 263 
113 17 18 210 
114 41 42 216 
115 242 97 299 
116 184 196 315 
117 313 184 315 
118 103 226 305 
119 96 235 236 
120 178 267 298 
121 190 191 294 
122 263 200 311 
123 242 194 290 
124 90 226 227 
125 244 193 285 
126 276 186 308 
127 284 10 290 
128 45 282 294 
129 41 216 319 
130 266 178 292 
131 90 227 228 
132 199 84 200 
133 236 78 307 
134 198 84 199 
135 192 185 205 
136 18 209 210 
137 80 17 210 
138 194 193 284 
139 202 173 274 
140 171 253 293 
141 189 190 282 
142 204 104 279 
143 260 222 291 
144 174 175 287 
145 235 96 237 
146 187 186 276 
147 201 157 269 
148 205 185 306 
149 182 208 286 
150 225 103 278 
151 254 175 289 
152 201 202 274 
153 79 276 308 
154 238 87 289 
155 194 284 290 
156 282 190 294 
157 199 201 269 
158 204 279 327 
159 157 201 274 
160 195 77 292 
161 96 236 307 
162 113 229 272 
163 258 173 296 
164 197 94 297 
165 78 240 298 
166 98 196 295 
167 165 218 314 
168 184 220 312 
169 220 184 313 
170 218 217 320 
171 228 227 229 
172 199 200 201 
173 94 197 324 
174 171 230 275 
175 229 227 272 
176 230 229 275 
177 253 176 288 
178 229 113 275 
179 179 258 295 
180 89 205 306 
181 314 218 320 
182 228 229 230 
183 201 200 202 
184 226 90 305 
185 93 217 304 
186 218 165 322 
187 299 264 329 
188 234 235 237 
189 234 237 238 
190 261 230 293 
191 234 238 239 
192 134 137 239 
193 132 134 239 
194 137 234 239 
195 47 48 205 
196 92 105 106 
197 73 74 92 
198 92 74 105 
199 215 218 219 
200 105 104 204 
201 83 206 207 
202 83 20 206 
203 73 92 213 
204 148 150 211 
205 83 208 209 
206 150 153 211 
207 211 195 270 
208 75 104 105 
209 72 73 213 
210 19 20 83 
211 214 215 219 
212 235 232 236 
213 37 38 91 
214 212 181 246 
215 107 109 223 
216 221 86 222 
217 74 75 105 
218 100 72 213 
219 236 232 240 
220 19 83 209 
221 21 94 206 
222 91 214 219 
223 89 47 205 
224 170 192 195 
225 91 38 214 
226 137 138 233 
227 23 86 221 
228 213 107 223 
229 141 142 231 
230 92 106 107 
231 37 91 251 
232 186 127 241 
233 170 185 192 
234 141 231 232 
235 20 21 206 
236 21 22 94 
237 242 183 259 
238 94 22 221 
239 233 232 235 
240 36 37 251 
241 127 124 241 
242 181 133 246 
243 133 130 246 
244 243 244 245 
245 68 69 103 
246 137 233 234 
247 59 88 255 
248 83 207 208 
249 177 147 178 
250 92 107 213 
251 214 102 215 
252 39 102 214 
253 38 39 214 
254 225 224 226 
255 145 147 177 
256 153 170 211 
257 153 155 170 
258 8 81 243 
259 6 7 99 
260 243 81 244 
261 223 109 224 
262 88 247 248 
263 132 130 133 
264 75 76 104 
265 138 141 233 
266 183 121 259 
267 7 8 243 
268 145 146 147 
269 101 36 251 
270 91 219 220 
271 232 231 240 
272 142 145 231 
273 88 60 247 
274 168 186 187 
275 132 133 134 
276 168 212 246 
277 168 127 186 
278 54 55 96 
279 66 67 90 
280 123 183 188 
281 82 257 258 
282 124 123 241 
283 148 211 270 
284 26 27 84 
285 99 243 245 
286 23 24 86 
287 247 95 249 
288 98 32 256 
289 128 127 168 
290 142 144 145 
291 95 62 252 
292 130 128 246 
293 121 118 259 
294 223 224 225 
295 131 130 132 
296 252 85 253 
297 123 188 241 
298 248 247 249 
299 126 124 127 
300 137 136 138 
301 22 23 221 
302 99 7 243 
303 138 136 139 
304 43 44 93 
305 56 57 87 
306 106 105 204 
307 168 187 212 
308 254 58 255 
309 122 121 123 
310 164 179 184 
311 138 140 141 
312 215 217 218 
313 231 177 240 
314 134 133 135 
315 31 32 98 
316 11 12 97 
317 58 59 255 
318 145 177 231 
319 87 57 254 
320 128 168 246 
321 170 155 185 
322 234 233 235 
323 61 95 247 
324 85 64 261 
325 123 121 183 
326 215 216 217 
327 59 60 88 
328 82 30 257 
329 31 98 257 
330 100 213 223 
331 122 123 124 
332 126 127 128 
333 129 128 130 
334 145 144 146 
335 32 33 256 
336 162 163 164 
337 63 85 252 
338 141 140 142 
339 61 62 95 
340 170 195 211 
341 120 118 121 
342 151 149 260 
343 135 181 182 
344 64 65 261 
345 60 61 247 
346 57 58 254 
347 91 220 251 
348 135 133 181 
349 159 158 160 
350 63 64 85 
351 134 135 136 
352 160 161 162 
353 62 63 252 
354 191 167 250 
355 46 47 89 
356 162 164 165 
357 159 189 262 
358 28 29 263 
359 184 179 196 
360 134 136 137 
361 166 242 259 
362 138 139 140 
363 29 82 263 
364 39 40 102 
365 166 193 194 
366 166 194 242 
367 118 116 259 
368 160 162 250 
369 160 158 161 
370 120 121 122 
371 30 31 257 
372 156 157 158 
373 166 115 193 
374 162 165 250 
375 156 159 262 
376 190 167 191 
377 116 166 259 
378 29 30 82 
379 116 115 166 
380 156 158 159 
381 162 161 163 
382 215 102 216 
383 164 163 179 
384 125 124 126 
385 18 19 209 
386 167 160 250 
387 159 160 167 
388 119 118 120 
389 180 151 260 
390 8 9 81 
391 129 130 131 
392 156 154 157 
393 142 143 144 
394 117 116 118 
395 141 232 233 
396 178 147 270 
397 122 124 125 
398 126 128 129 
399 16 17 80 
400 13 14 79 
401 114 112 115 
402 172 151 180 
403 117 118 119 
404 114 115 116 
405 142 140 143 
406 189 167 190 
407 172 198 199 
408 119 120 176 
409 155 154 156 
410 120 122 265 
411 159 167 189 
412 163 161 173 
413 114 116 117 
414 155 156 262 
415 227 224 272 
416 97 12 264 
417 126 129 268 
418 152 151 172 
419 176 120 265 
420 125 126 268 
421 169 143 197 
422 147 146 148 
423 172 180 198 
424 117 119 171 
425 110 108 111 
426 110 111 112 
427 51 52 267 
428 49 50 77 
429 150 152 153 
430 52 53 78 
431 122 125 265 
432 107 106 108 
433 226 224 227 
434 50 51 266 
435 198 180 203 
436 153 154 155 
437 110 112 113 
438 113 112 114 
439 174 131 175 
440 35 36 101 
441 12 13 264 
442 144 143 169 
443 153 152 154 
444 129 131 174 
445 185 155 262 
446 129 174 268 
447 150 151 152 
448 157 154 269 
449 172 199 269 
450 152 172 269 
451 71 72 100 
452 154 152 269 
453 13 79 264 
454 147 148 270 
455 150 149 151 
456 224 109 272 
457 107 108 109 
458 109 108 110 
459 52 78 267 
460 266 51 267 
461 109 110 272 
462 77 50 266 
463 260 149 271 
464 146 144 271 
465 100 223 225 
466 144 169 271 
467 148 146 149 
468 148 149 150 
469 110 113 272 
470 149 146 271 
471 175 131 273 
472 132 239 273 
473 239 238 273 
474 131 132 273 
475 158 157 274 
476 173 161 274 
477 256 280 315 
478 161 158 274 
479 113 114 275 
480 117 171 275 
481 14 15 276 
482 114 117 275 
483 79 14 276 
484 188 299 329 
485 222 169 297 
486 125 268 277 
487 70 71 278 
488 5 6 279 
489 34 35 280 
490 100 225 278 
491 197 143 281 
492 140 139 281 
493 192 205 303 
494 45 46 282 
495 111 108 283 
496 106 204 283 
497 9 10 284 
498 112 111 285 
499 193 115 285 
500 139 136 286 
501 135 182 286 
502 88 248 287 
503 249 95 288 
504 252 253 288 
505 90 228 310 
506 277 268 321 
507 265 125 277 
508 248 249 277 
509 10 11 290 
510 203 180 291 
511 178 270 292 
512 200 84 311 
513 210 182 300 
514 71 100 278 
515 6 99 279 
516 35 101 280 
517 143 140 281 
518 44 45 294 
519 84 198 309 
520 202 263 296 
521 177 178 298 
522 183 242 299 
523 276 15 301 
524 46 89 282 
525 222 86 291 
526 237 96 302 
527 182 181 300 
528 16 80 301 
529 187 276 301 
530 56 87 302 
531 96 55 302 
532 205 48 303 
533 49 77 303 
534 43 93 304 
535 68 103 305 
536 90 67 305 
537 108 106 283 
538 262 189 306 
539 54 96 307 
540 78 53 307 
541 241 188 308 
542 248 277 321 
543 66 90 310 
544 261 65 310 
545 97 264 299 
546 84 27 311 
547 28 263 311 
548 164 184 312 
549 251 220 313 
550 250 165 314 
551 253 85 293 
552 217 93 320 
553 4 70 316 
554 2 34 318 
555 1 5 317 
556 76 1 317 
557 33 2 318 
558 69 4 316 
559 40 3 319 
560 3 41 319 
561 216 102 319 
562 94 221 297 
563 267 78 298 
564 175 273 289 
565 81 9 284 
566 220 219 322 
567 206 94 324 
568 115 112 285 
569 263 82 296 
570 273 238 289 
571 257 98 295 
572 136 135 286 
573 283 204 327 
574 173 202 296 
575 255 88 287 
576 281 139 325 
577 26 84 309 
578 95 252 288 
579 85 261 293 
580 258 257 295 
581 77 266 292 
582 197 281 324 
583 87 254 289 
584 265 277 323 
585 277 249 323 
586 11 97 290 
587 180 260 291 
588 270 195 292 
589 279 99 327 
590 82 258 296 
591 230 171 293 
592 221 222 297 
593 80 210 300 
594 111 283 326 
595 245 283 327 
596 207 281 325 
597 93 44 294 
598 196 179 295 
599 216 42 304 
600 203 25 309 
601 169 197 297 
602 240 177 298 
603 281 207 324 
604 188 183 299 
605 181 212 300 
606 312 220 322 
607 25 26 309 
608 15 16 301 
609 55 56 302 
610 285 111 326 
611 48 49 303 
612 42 43 304 
613 217 216 304 
614 67 68 305 
615 185 262 306 
616 53 54 307 
617 283 245 326 
618 80 300 328 
619 186 241 308 
620 198 203 309 
621 65 66 310 
622 139 286 325 
623 300 212 328 
624 5 279 317 
625 70 278 316 
626 34 280 318 
627 27 28 311 
628 101 251 313 
629 165 164 312 
630 191 250 314 
631 249 288 323 
632 308 188 329 
633 101 313 315 
634 301 80 328 
635 103 69 316 
636 104 76 317 
637 256 33 318 
638 102 40 319 
639 287 248 321 
640 244 285 326 
641 268 174 321 
642 219 218 322 
643 176 265 323 
644 207 206 324 
645 208 207 325 
646 245 244 326 
647 99 245 327 
648 264 79 329 
649 212 187 328 
650 278 103 316 
651 279 104 317 
652 280 256 318 
653 280 101 315 
654 286 208 325 
655 288 176 323 
656 174 287 321 
657 191 314 320 
658 187 301 328 
659 165 312 322 
660 79 308 329 
$EndElements
