$MeshFormat
4.1 0 8
$EndMeshFormat
$PhysicalNames
3
0 201 "rectangle_points"
1 202 "rectangle_lines"
2 203 "rectangle_surface"
$EndPhysicalNames
$Entities
4 4 1 0
1 0 0 0 1 201 
2 15 0 0 1 201 
3 15 4 0 1 201 
4 0 4 0 1 201 
1 0 0 0 15 0 0 1 202 2 1 -2 
2 15 0 0 15 4 0 1 202 2 2 -3 
3 0 4 0 15 4 0 1 202 2 3 -4 
4 0 0 0 0 4 0 1 202 2 4 -1 
1 0 0 0 15 4 0 1 203 4 1 2 3 4 
$EndEntities
$Nodes
9 279 1 279
0 1 0 1
1
0 0 0
0 2 0 1
2
15 0 0
0 3 0 1
3
15 4 0
0 4 0 1
4
0 4 0
1 1 0 29
5
6
7
8
9
10
11
12
13
14
15
16
17
18
19
20
21
22
23
24
25
26
27
28
29
30
31
32
33
0.4999999999998712 0 0
0.9999999999995183 0 0
1.499999999999772 0 0
1.999999999999871 0 0
2.499999999999415 0 0
2.999999999998959 0 0
3.499999999998503 0 0
3.999999999998025 0 0
4.499999999996237 0 0
4.9999999999943 0 0
5.499999999992363 0 0
5.999999999990425 0 0
6.499999999988487 0 0
6.99999999998655 0 0
7.499999999984786 0 0
7.999999999985638 0 0
8.499999999986663 0 0
8.999999999987688 0 0
9.499999999988715 0 0
9.999999999989742 0 0
10.49999999999077 0 0
10.99999999999179 0 0
11.49999999999282 0 0
11.99999999999384 0 0
12.49999999999487 0 0
12.99999999999589 0 0
13.49999999999692 0 0
13.99999999999795 0 0
14.49999999999898 0 0
1 2 0 7
34
35
36
37
38
39
40
15 0.4999999999990951 0
15 0.9999999999976495 0
15 1.499999999996191 0
15 1.999999999994777 0
15 2.49999999999605 0
15 2.999999999997367 0
15 3.499999999998683 0
1 3 0 29
41
42
43
44
45
46
47
48
49
50
51
52
53
54
55
56
57
58
59
60
61
62
63
64
65
66
67
68
69
14.49999999999874 4 0
13.99999999999748 4 0
13.49999999999622 4 0
12.99999999999496 4 0
12.4999999999937 4 0
11.99999999999244 4 0
11.49999999999118 4 0
10.99999999999002 4 0
10.49999999999407 4 0
9.999999999998737 4 0
9.500000000003396 4 0
9.000000000008059 4 0
8.500000000012722 4 0
8.000000000017128 4 0
7.500000000018748 4 0
7.000000000017661 4 0
6.500000000016399 4 0
6.000000000015138 4 0
5.500000000013877 4 0
5.000000000012616 4 0
4.500000000011351 4 0
4.000000000010091 4 0
3.500000000008828 4 0
3.000000000007569 4 0
2.500000000006306 4 0
2.000000000005045 4 0
1.500000000003784 4 0
1.000000000002521 4 0
0.5000000000012594 4 0
1 4 0 7
70
71
72
73
74
75
76
0 3.499999999998004 0
0 3.000000000001386 0
0 2.500000000004855 0
0 2.000000000008236 0
0 1.500000000006242 0
0 1.000000000004162 0
0 0.5000000000020806 0
2 1 0 203
77
78
79
80
81
82
83
84
85
86
87
88
89
90
91
92
93
94
95
96
97
98
99
100
101
102
103
104
105
106
107
108
109
110
111
112
113
114
115
116
117
118
119
120
121
122
123
124
125
126
127
128
129
130
131
132
133
134
135
136
137
138
139
140
141
142
143
144
145
146
147
148
149
150
151
152
153
154
155
156
157
158
159
160
161
162
163
164
165
166
167
168
169
170
171
172
173
174
175
176
177
178
179
180
181
182
183
184
185
186
187
188
189
190
191
192
193
194
195
196
197
198
199
200
201
202
203
204
205
206
207
208
209
210
211
212
213
214
215
216
217
218
219
220
221
222
223
224
225
226
227
228
229
230
231
232
233
234
235
236
237
238
239
240
241
242
243
244
245
246
247
248
249
250
251
252
253
254
255
256
257
258
259
260
261
262
263
264
265
266
267
268
269
270
271
272
273
274
275
276
277
278
279
8.500000000011715 3.500000000003509 0
9.99999999999838 3.500000000003239 0
4.999999999994517 0.4999999999986017 0
6.999999999987686 0.4999999999987121 0
3.4999992077102 0.49999920771115 0
12.99999999999635 0.5000000000007405 0
8.999999999988141 0.5000000000003466 0
10.49999999999057 0.5000000000005898 0
6.500000000015913 3.499999999999793 0
4.000000000010003 3.499999999999033 0
5.000000000012357 3.499999999999042 0
1.999999435595704 3.499999435591362 0
11.499999999992 3.499999999999925 0
11.99999999999374 0.5000000000008432 0
12.99999999999512 3.499999999998951 0
1.999401322109496 0.4994013221095023 0
0.4999853212634531 2.999985321265695 0
14.50000000000002 0.9999999999986572 0
14.49999999999993 1.999999999996911 0
0.4993917296487835 1.999391729654124 0
0.494939192029916 0.9949391920325399 0
14.49999999999912 2.999999999997753 0
0.9951889658357963 0.4951889658363491 0
7.000000000016808 3.500000000000681 0
0.4999981651581927 3.499998165158096 0
7.999999999986773 0.4999999999995944 0
7.50000000001675 3.500000000001763 0
13.49999999999642 3.499999999998952 0
13.99999999999768 3.49999999999892 0
9.999999999989756 0.5000000000005496 0
5.500000000013463 3.499999999999116 0
3.000000000007302 3.499999999999048 0
14.49999999999888 3.499999999998828 0
0.9999988532244506 3.499998853223878 0
11.99999999999275 3.499999999999301 0
11.49999999999255 0.5000000000007325 0
13.99999999999883 0.5000000000000103 0
2.999987352487088 0.4999873524876383 0
4.499999999996257 0.4999999999988571 0
6.499999999989134 0.499999999998528 0
5.99999999999085 0.499999999998485 0
10.49999999999475 3.500000000002299 0
9.000000000007301 3.500000000003698 0
14.49999999999952 0.4999999999994442 0
0.4959573345424357 0.4959573345437197 0
8.500000000010344 3.000000000006185 0
9.999999999997414 3.000000000005485 0
7.500000000014938 3.000000000003063 0
6.499999999990846 0.9999999999975351 0
4.999999999995198 0.9999999999975021 0
3.49999656253984 0.9999965625398191 0
11.99999999999372 1.00000000000136 0
10.49999999999064 1.000000000001424 0
5.000000000010555 2.999999999998149 0
11.49999999999247 3.000000000000144 0
12.99999999999561 2.999999999998381 0
0.9999773563233931 2.999977356325145 0
13.99999999999948 0.9999999999996499 0
0.9963705551206096 0.9963705551220655 0
8.499999999987502 0.5000000000000711 0
7.000000000014588 3.00000000000103 0
0.4998506167729171 2.499850616777243 0
1.499998088670165 3.499998088668025 0
0.4981987127528693 1.498198712757232 0
9.499999999989024 0.5000000000004888 0
13.49999999999694 2.99999999999831 0
10.9999999999915 0.5000000000006476 0
6.00000000001459 3.499999999999342 0
13.99999999999814 2.999999999998121 0
14.50000000000004 1.49999999999763 0
14.49999999999951 2.499999999997044 0
13.49999999999768 0.5000000000004097 0
4.500000000011069 3.49999999999905 0
7.499999999987041 0.4999999999991718 0
10.99999999999252 3.500000000001102 0
3.500000000008681 3.499999999999053 0
2.499999647250551 3.499999647244176 0
12.49999999999391 3.499999999999091 0
2.499866903700908 0.4998669037011048 0
12.49999999999501 0.5000000000008028 0
1.498221774601174 0.4982217746013893 0
3.999999686120425 0.4999996861219467 0
5.499999999992721 0.4999999999985497 0
8.000000000014838 3.500000000002653 0
9.500000000002679 3.500000000003477 0
2.49982240481075 0.9998224048105447 0
7.999999999990324 1.000000000000154 0
9.499999999990219 1.000000000001495 0
3.499999828948989 2.99999982893958 0
2.499994756081712 2.999994756076245 0
7.500000000010988 2.500000000003289 0
13.49999999999776 2.499999999998342 0
1.499978897968598 2.999978897968488 0
11.49999999999239 1.000000000001293 0
12.49999999999435 2.999999999998634 0
3.999999331080148 0.9999993310803567 0
5.999999999992055 0.9999999999973543 0
10.99999999999287 3.000000000002017 0
9.000000000005935 3.000000000006394 0
0.9980109183379839 1.498010918340765 0
13.49999999999832 1.000000000000461 0
13.99999999999942 1.999999999998182 0
8.499999999990509 1.000000000001027 0
9.999999999990388 1.000000000001594 0
10.99999999999138 1.000000000001337 0
4.500000000009762 2.999999999998194 0
6.000000000012263 2.999999999998633 0
6.500000000013227 2.999999999999527 0
13.99999999999874 2.499999999997889 0
11.99999999999322 2.999999999999195 0
5.500000000010958 2.999999999998273 0
12.9999999999968 1.000000000000973 0
12.49999999999526 1.000000000001175 0
2.999956032933304 0.9999560329331658 0
8.000000000013017 3.000000000004722 0
6.999999999990655 0.9999999999982699 0
0.9997937269122269 2.499793726915491 0
4.499999896764901 0.9999998967658768 0
5.499999999993607 0.9999999999973913 0
10.49999999999452 3.000000000003866 0
1.999231918259505 0.9992319182594921 0
1.498019911009723 0.9980199110103787 0
13.99999999999957 1.499999999998915 0
9.500000000001364 3.000000000005996 0
8.500000000007475 2.500000000007032 0
9.49999999999925 2.500000000006936 0
10.49999999999351 2.500000000004527 0
6.499999999994996 1.499999999997455 0
4.999999993545314 1.499999993544917 0
1.499829804960963 2.499829804962334 0
3.99999926449797 1.499999264495896 0
2.999959132196446 1.499959132195181 0
11.99999999999367 2.499999999999643 0
7.999999999996886 1.500000000002129 0
9.499999999992866 1.500000000003591 0
10.99999999999159 1.500000000002105 0
6.50000000000811 2.499999999998876 0
5.500000000006214 2.499999999997418 0
4.499999989466213 2.499999989457133 0
1.999439906519576 1.499439906519828 0
13.49999999999839 1.999999999999088 0
11.9999999999939 1.500000000001199 0
1.999978696010226 2.999978696007472 0
0.9992151869111782 1.99921518691465 0
1.498724885754313 1.498724885755762 0
7.000000000009508 2.500000000000733 0
2.999998047412635 2.99999804740517 0
8.999999999990624 1.000000000001538 0
9.99999999999177 1.500000000003401 0
12.99999999999717 1.500000000000504 0
12.99999999999643 2.499999999998727 0
3.999999959803933 2.999999959793499 0
8.000000000009626 2.500000000005273 0
10.99999999999265 2.500000000002425 0
7.499999999990907 0.9999999999993536 0
5.999999999995197 1.499999999996935 0
13.49999999999848 1.499999999999813 0
8.999999999994738 1.500000000003773 0
7.499999999997105 1.500000000000553 0
3.999999817016549 2.499999817008141 0
1.999897453629205 2.499897453628129 0
3.499997967879878 2.49999796787275 0
2.999989074790345 2.499989074784888 0
8.500000000002249 2.000000000005656 0
9.499999999996346 2.000000000005854 0
8.000000000003787 2.000000000004038 0
7.500000000003931 2.000000000001947 0
10.49999999999239 2.000000000004008 0
7.000000000002595 1.99999999999975 0
8.499999999995971 1.500000000003135 0
6.500000000001206 1.999999999998122 0
11.49999999999258 1.500000000001553 0
6.999999999996169 1.499999999998924 0
6.000000000006636 2.499999999997918 0
12.49999999999505 2.499999999999127 0
1.499390197777535 1.99939019777927 0
4.999999998688508 2.499999998679856 0
10.49999999999148 1.50000000000275 0
12.49999999999552 1.500000000000744 0
11.49999999999281 2.500000000000857 0
5.499999999189729 1.499999999190367 0
3.499989457021598 1.499989457019737 0
4.499999842003034 1.49999984200137 0
9.999999999995843 2.500000000005772 0
2.49979923034668 1.499799230346007 0
9.000000000003258 2.500000000006904 0
12.99999999999697 1.999999999999536 0
2.499954124000717 2.499954123997289 0
9.99999999999395 2.000000000004902 0
5.999999999950232 1.99999999994692 0
4.999999988446272 1.999999988441868 0
10.99999999999229 2.000000000002502 0
4.499999898518929 1.999999898513763 0
3.999998816772435 1.999998816767333 0
1.999667028389932 1.999667028389859 0
2.499860620708968 1.999860620707214 0
3.499991964418439 1.999991964414179 0
11.49999999999286 2.000000000001383 0
11.99999999999401 2.000000000000508 0
12.49999999999543 1.999999999999932 0
8.9999999999993 2.000000000005734 0
5.499999997963806 1.999999997959966 0
2.999953723449343 1.999953723446172 0
$EndNodes
$Elements
9 320 1 320
0 1 15 1
1 1 
0 2 15 1
2 2 
0 3 15 1
3 3 
0 4 15 1
4 4 
1 1 1 30
5 1 5 
6 5 6 
7 6 7 
8 7 8 
9 8 9 
10 9 10 
11 10 11 
12 11 12 
13 12 13 
14 13 14 
15 14 15 
16 15 16 
17 16 17 
18 17 18 
19 18 19 
20 19 20 
21 20 21 
22 21 22 
23 22 23 
24 23 24 
25 24 25 
26 25 26 
27 26 27 
28 27 28 
29 28 29 
30 29 30 
31 30 31 
32 31 32 
33 32 33 
34 33 2 
1 2 1 8
35 2 34 
36 34 35 
37 35 36 
38 36 37 
39 37 38 
40 38 39 
41 39 40 
42 40 3 
1 3 1 30
43 3 41 
44 41 42 
45 42 43 
46 43 44 
47 44 45 
48 45 46 
49 46 47 
50 47 48 
51 48 49 
52 49 50 
53 50 51 
54 51 52 
55 52 53 
56 53 54 
57 54 55 
58 55 56 
59 56 57 
60 57 58 
61 58 59 
62 59 60 
63 60 61 
64 61 62 
65 62 63 
66 63 64 
67 64 65 
68 65 66 
69 66 67 
70 67 68 
71 68 69 
72 69 4 
1 4 1 8
73 4 70 
74 70 71 
75 71 72 
76 72 73 
77 73 74 
78 74 75 
79 75 76 
80 76 1 
2 1 3 240
81 246 234 277 240 
82 234 211 241 277 
83 240 242 210 246 
84 242 243 235 210 
85 265 225 254 244 
86 243 245 249 235 
87 264 237 271 272 
88 226 188 177 233 
89 121 99 135 97 
90 213 250 266 247 
91 255 276 275 218 
92 233 217 263 226 
93 250 214 278 266 
94 110 68 69 101 
95 253 215 269 267 
96 273 270 236 238 
97 265 244 203 260 
98 168 185 145 142 
99 267 278 214 253 
100 247 245 222 213 
101 110 101 93 133 
102 103 100 137 124 
103 143 112 170 181 
104 244 254 212 268 
105 260 203 196 123 
106 180 164 141 106 
107 103 55 56 100 
108 219 169 206 237 
109 170 248 212 181 
110 265 241 211 225 
111 113 120 94 134 
112 133 193 206 169 
113 176 220 96 140 
114 241 265 260 202 
115 270 269 215 236 
116 270 273 258 207 
117 97 140 74 75 
118 214 250 183 187 
119 168 217 178 185 
120 276 251 209 275 
121 274 256 230 268 
122 234 246 179 224 
123 179 163 102 136 
124 130 87 149 182 
125 220 176 221 252 
126 164 180 225 211 
127 20 102 150 19 
128 169 219 88 139 
129 48 151 89 47 
130 251 171 186 209 
131 183 184 85 144 
132 197 198 157 92 
133 213 222 137 184 
134 207 259 269 270 
135 140 97 135 176 
136 236 228 165 238 
137 70 101 69 4 
138 224 83 141 164 
139 194 126 205 259 
140 185 178 95 147 
141 224 164 211 234 
142 237 264 166 219 
143 33 2 34 120 
144 223 108 153 166 
145 216 271 252 221 
146 139 67 68 110 
147 98 147 38 39 
148 182 215 253 130 
149 107 87 130 187 
150 144 107 187 183 
151 136 83 224 179 
152 84 129 180 106 
153 197 162 261 216 
154 123 200 202 260 
155 163 231 150 102 
156 121 97 75 76 
157 153 88 219 166 
158 157 7 8 92 
159 88 66 67 139 
160 98 109 105 145 
161 145 105 104 142 
162 175 122 201 262 
163 187 130 253 214 
164 143 181 129 84 
165 161 119 175 200 
166 120 113 32 33 
167 148 31 32 113 
168 83 22 23 141 
169 141 23 24 106 
170 84 106 24 25 
171 163 179 246 210 
172 136 21 22 83 
173 139 110 133 169 
174 147 98 145 185 
175 177 188 82 148 
176 171 154 111 186 
177 254 129 181 212 
178 223 166 264 239 
179 184 183 250 213 
180 149 86 228 182 
181 100 85 184 137 
182 228 86 152 165 
183 100 56 57 85 
184 239 238 165 223 
185 96 138 72 73 
186 195 173 232 257 
187 180 129 254 225 
188 274 268 212 248 
189 167 229 191 124 
190 108 223 165 152 
191 21 136 102 20 
192 242 240 201 229 
193 131 89 151 174 
194 256 131 174 230 
195 84 25 26 143 
196 73 74 140 96 
197 142 104 91 132 
198 255 218 128 189 
199 232 204 247 266 
200 188 226 255 189 
201 248 218 275 274 
202 159 117 173 195 
203 85 57 58 144 
204 245 243 167 222 
205 144 58 59 107 
206 107 59 60 87 
207 87 60 61 149 
208 228 236 215 182 
209 37 38 147 95 
210 230 174 196 203 
211 189 156 82 188 
212 194 259 207 172 
213 109 41 42 105 
214 111 46 47 89 
215 149 61 62 86 
216 86 62 63 152 
217 98 39 40 109 
218 152 63 64 108 
219 158 172 127 81 
220 95 146 36 37 
221 108 64 65 153 
222 143 26 27 112 
223 154 171 132 91 
224 153 65 66 88 
225 148 113 134 177 
226 170 112 90 128 
227 89 131 186 111 
228 40 3 41 109 
229 105 42 43 104 
230 142 132 227 168 
231 256 209 186 131 
232 156 189 128 90 
233 99 157 198 135 
234 271 216 261 272 
235 255 226 263 276 
236 6 7 157 99 
237 241 202 262 277 
238 124 191 160 103 
239 235 249 192 231 
240 111 154 45 46 
241 268 230 203 244 
242 92 8 9 155 
243 221 198 197 216 
244 190 127 258 208 
245 248 170 128 218 
246 263 227 251 276 
247 78 161 200 123 
248 243 242 229 167 
249 154 91 44 45 
250 198 221 176 135 
251 104 43 44 91 
252 173 125 204 232 
253 12 158 81 11 
254 208 279 272 261 
255 171 251 227 132 
256 112 27 28 90 
257 28 29 156 90 
258 148 82 30 31 
259 30 82 156 29 
260 278 257 232 266 
261 227 263 217 168 
262 245 247 204 249 
263 258 127 172 207 
264 200 175 262 202 
265 124 137 222 167 
266 79 159 195 126 
267 155 9 10 114 
268 190 114 81 127 
269 197 92 155 162 
270 256 274 275 209 
271 174 151 118 196 
272 199 178 217 233 
273 258 273 279 208 
274 162 190 208 261 
275 249 204 125 192 
276 231 192 80 150 
277 193 220 252 206 
278 134 199 233 177 
279 55 103 160 54 
280 119 77 122 175 
281 79 126 194 115 
282 51 52 119 161 
283 94 146 199 134 
284 192 125 116 80 
285 159 15 16 117 
286 201 240 277 262 
287 11 81 114 10 
288 159 79 14 15 
289 173 117 116 125 
290 239 264 272 279 
291 257 205 126 195 
292 114 190 162 155 
293 278 267 205 257 
294 210 235 231 163 
295 146 95 178 199 
296 206 252 271 237 
297 158 12 13 115 
298 18 19 150 80 
299 120 34 35 94 
300 146 94 35 36 
301 161 78 50 51 
302 18 80 116 17 
303 16 17 116 117 
304 269 259 205 267 
305 172 158 115 194 
306 78 123 196 118 
307 121 5 6 99 
308 93 138 193 133 
309 101 70 71 93 
310 14 79 115 13 
311 76 1 5 121 
312 138 96 220 193 
313 138 93 71 72 
314 151 48 49 118 
315 238 239 279 273 
316 229 201 122 191 
317 52 53 77 119 
318 53 54 160 77 
319 191 122 77 160 
320 50 78 118 49 
$EndElements
