$MeshFormat
4.1 0 8
$EndMeshFormat
$PhysicalNames
5
1 201 "bottom_support"
1 202 "right_bot_support"
1 203 "right_top_support"
1 204 "left_support"
1 205 "loadings"
$EndPhysicalNames
$Entities
7 8 2 0
1 0 0 0 0 
2 15 0 0 0 
3 15 4 0 0 
4 5 4 0 0 
5 0 4 0 0 
6 15 8 0 0 
7 12 8 0 0 
1 -1.000000002804313e-07 -1e-07 -1e-07 15.0000001 1e-07 1e-07 1 201 2 1 -2 
2 14.9999999 -9.999999983634211e-08 -1e-07 15.0000001 4.0000001 1e-07 1 202 2 2 -3 
3 4.9999999 3.9999999 -1e-07 15.0000001 4.0000001 1e-07 0 2 3 -4 
4 -9.999999983634211e-08 3.9999999 -1e-07 5.0000001 4.0000001 1e-07 0 2 4 -5 
5 -1e-07 -9.999999983634211e-08 -1e-07 1e-07 4.0000001 1e-07 1 204 2 5 -1 
6 14.9999999 3.9999999 -1e-07 15.0000001 8.000000099999999 1e-07 1 203 2 3 -6 
7 11.9999999 7.9999999 -1e-07 15.0000001 8.000000099999999 1e-07 1 205 2 6 -7 
8 4.9999999 3.9999999 -1e-07 12.0000001 8.000000099999999 1e-07 0 2 7 -4 
1 -1.000000002804313e-07 -9.999999983634211e-08 -1e-07 15.0000001 4.0000001 1e-07 0 5 1 2 3 4 5 
2 4.9999999 3.9999999 -1e-07 15.0000001 8.000000099999999 1e-07 0 4 -3 6 7 8 
$EndEntities
$Nodes
11 61 1 61
0 1 0 1
1
0 0 0
0 2 0 1
2
15 0 0
0 3 0 1
3
15 4 0
0 5 0 1
4
0 4 0
0 6 0 1
5
15 8 0
0 7 0 1
6
12 8 0
1 1 0 29
7
8
9
10
11
12
13
14
15
16
17
18
19
20
21
22
23
24
25
26
27
28
29
30
31
32
33
34
35
0.5 0 0
1 0 0
1.5 0 0
2 0 0
2.5 0 0
3 0 0
3.5 0 0
4 0 0
4.5 0 0
5 0 0
5.5 0 0
6 0 0
6.5 0 0
7 0 0
7.5 0 0
8 0 0
8.5 0 0
9 0 0
9.5 0 0
10 0 0
10.5 0 0
11 0 0
11.5 0 0
12 0 0
12.5 0 0
13 0 0
13.5 0 0
14 0 0
14.5 0 0
1 2 0 7
36
37
38
39
40
41
42
15 0.5 0
15 1 0
15 1.5 0
15 2 0
15 2.5 0
15 3 0
15 3.5 0
1 5 0 7
43
44
45
46
47
48
49
0 3.5 0
0 3 0
0 2.5 0
0 2 0
0 1.5 0
0 1 0
0 0.5 0
1 6 0 7
50
51
52
53
54
55
56
15 4.5 0
15 5 0
15 5.5 0
15 6 0
15 6.5 0
15 7 0
15 7.5 0
1 7 0 5
57
58
59
60
61
14.5 8 0
14 8 0
13.5 8 0
13 8 0
12.5 8 0
$EndNodes
$Elements
5 60 1 60
1 1 1 30
1 1 7 
2 7 8 
3 8 9 
4 9 10 
5 10 11 
6 11 12 
7 12 13 
8 13 14 
9 14 15 
10 15 16 
11 16 17 
12 17 18 
13 18 19 
14 19 20 
15 20 21 
16 21 22 
17 22 23 
18 23 24 
19 24 25 
20 25 26 
21 26 27 
22 27 28 
23 28 29 
24 29 30 
25 30 31 
26 31 32 
27 32 33 
28 33 34 
29 34 35 
30 35 2 
1 2 1 8
31 2 36 
32 36 37 
33 37 38 
34 38 39 
35 39 40 
36 40 41 
37 41 42 
38 42 3 
1 5 1 8
39 4 43 
40 43 44 
41 44 45 
42 45 46 
43 46 47 
44 47 48 
45 48 49 
46 49 1 
1 6 1 8
47 3 50 
48 50 51 
49 51 52 
50 52 53 
51 53 54 
52 54 55 
53 55 56 
54 56 5 
1 7 1 6
55 5 57 
56 57 58 
57 58 59 
58 59 60 
59 60 61 
60 61 6 
$EndElements
