$MeshFormat
4.1 0 8
$EndMeshFormat
$PhysicalNames
7
1 201 "bottom_support"
1 202 "right_bot_support"
1 203 "right_top_support"
1 204 "left_support"
1 205 "loadings"
2 301 "soil_bot"
2 302 "soil_top"
$EndPhysicalNames
$Entities
18 8 2 0
1 0 0 0 0 
2 15 0 0 0 
3 15 4 0 0 
4 5 4 0 0 
5 0 4 0 0 
6 15 8 0 0 
7 12 8 0 0 
8 11.252 6.2098 0 0 
9 10.145 5.2189 0 0 
10 8.6716 4.1979 0 0 
11 11.5 6.5 0 0 
12 11 5.5 0 0 
13 10 5 0 0 
14 9 3.5 0 0 
15 7 3.5 0 0 
16 6 3 0 0 
17 5.5 3 0 0 
18 5 2.5 0 0 
1 -1.000000002804313e-07 -1e-07 -1e-07 15.0000001 1e-07 1e-07 1 201 2 1 -2 
2 14.9999999 -9.999999983634211e-08 -1e-07 15.0000001 4.0000001 1e-07 1 202 2 2 -3 
3 4.9999999 3.9999999 -1e-07 15.0000001 4.0000001 1e-07 0 2 3 -4 
4 -9.999999983634211e-08 3.9999999 -1e-07 5.0000001 4.0000001 1e-07 0 2 4 -5 
5 -1e-07 -9.999999983634211e-08 -1e-07 1e-07 4.0000001 1e-07 1 204 2 5 -1 
6 14.9999999 3.9999999 -1e-07 15.0000001 8.000000099999999 1e-07 1 203 2 3 -6 
7 11.9999999 7.9999999 -1e-07 15.0000001 8.000000099999999 1e-07 1 205 2 6 -7 
8 4.9999999 3.9999999 -1e-07 12.0000001 8.000000099999999 1e-07 0 2 7 -4 
1 -1.000000002804313e-07 -9.999999983634211e-08 -1e-07 15.0000001 4.0000001 1e-07 1 301 5 1 2 3 4 5 
2 4.9999999 3.9999999 -1e-07 15.0000001 8.000000099999999 1e-07 1 302 4 -3 6 7 8 
$EndEntities
$Nodes
28 668 1 668
0 1 0 1
1
0 0 0
0 2 0 1
2
15 0 0
0 3 0 1
3
15 4 0
0 4 0 1
4
5 4 0
0 5 0 1
5
0 4 0
0 6 0 1
6
15 8 0
0 7 0 1
7
12 8 0
0 8 0 1
8
11.252 6.2098 0
0 9 0 1
9
10.145 5.2189 0
0 10 0 1
10
8.6716 4.1979 0
0 11 0 1
11
11.5 6.5 0
0 12 0 1
12
11 5.5 0
0 13 0 1
13
10 5 0
0 14 0 1
14
9 3.5 0
0 15 0 1
15
7 3.5 0
0 16 0 1
16
6 3 0
0 17 0 1
17
5.5 3 0
0 18 0 1
18
5 2.5 0
1 1 0 29
19
20
21
22
23
24
25
26
27
28
29
30
31
32
33
34
35
36
37
38
39
40
41
42
43
44
45
46
47
0.5 0 0
1 0 0
1.5 0 0
2 0 0
2.5 0 0
3 0 0
3.5 0 0
4 0 0
4.5 0 0
5 0 0
5.5 0 0
6 0 0
6.5 0 0
7 0 0
7.5 0 0
8 0 0
8.5 0 0
9 0 0
9.5 0 0
10 0 0
10.5 0 0
11 0 0
11.5 0 0
12 0 0
12.5 0 0
13 0 0
13.5 0 0
14 0 0
14.5 0 0
1 2 0 7
48
49
50
51
52
53
54
15 0.5 0
15 1 0
15 1.5 0
15 2 0
15 2.5 0
15 3 0
15 3.5 0
1 3 0 25
55
56
57
58
59
60
61
62
63
64
65
66
67
68
69
70
71
72
73
74
75
76
77
78
79
14.50716196092016 4 0
14.01432392184031 4 0
13.52148588276047 4 0
13.02864784368063 4 0
12.53580980460078 4 0
12.04297176552094 4 0
11.5501337264411 4 0
11.05729568736126 4 0
10.56445764828142 4 0
10.11804299171665 4 0
9.791463856255755 4 0
9.495761032807849 4 0
9.200058209359941 4 0
8.904355385912035 4 0
8.60865256246413 4 0
8.312949739016222 4 0
8.017246915568318 4 0
7.721544092120413 4 0
7.425841268672509 4 0
7.130138445224604 4 0
6.8344356217767 4 0
6.538732798328796 4 0
6.243029974880892 4 0
5.925851867392973 4 0
5.492838039079842 4 0
1 4 0 9
80
81
82
83
84
85
86
87
88
4.5 4 0
4 4 0
3.5 4 0
3 4 0
2.5 4 0
2 4 0
1.5 4 0
1 4 0
0.5 4 0
1 5 0 7
89
90
91
92
93
94
95
0 3.5 0
0 3 0
0 2.5 0
0 2 0
0 1.5 0
0 1 0
0 0.5 0
1 6 0 7
96
97
98
99
100
101
102
15 4.5 0
15 5 0
15 5.5 0
15 6 0
15 6.5 0
15 7 0
15 7.5 0
1 7 0 5
103
104
105
106
107
14.5 8 0
14 8 0
13.5 8 0
13 8 0
12.5 8 0
1 8 0 16
108
109
110
111
112
113
114
115
116
117
118
119
120
121
122
123
11.58823529411765 7.764705882352941 0
11.17647058823529 7.529411764705882 0
10.76470588235294 7.294117647058823 0
10.35294117647059 7.058823529411764 0
9.941176470588236 6.823529411764706 0
9.529411764705882 6.588235294117647 0
9.117647058823529 6.352941176470588 0
8.705882352941176 6.117647058823529 0
8.294117647058822 5.88235294117647 0
7.88235294117647 5.647058823529411 0
7.470588235294117 5.411764705882353 0
7.058823529411764 5.176470588235293 0
6.647058823529411 4.941176470588236 0
6.235294117647058 4.705882352941176 0
5.823529411764706 4.470588235294118 0
5.411764705882352 4.235294117647059 0
2 1 0 343
124
125
126
127
128
129
130
131
132
133
134
135
136
137
138
139
140
141
142
143
144
145
146
147
148
149
150
151
152
153
154
155
156
157
158
159
160
161
162
163
164
165
166
167
168
169
170
171
172
173
174
175
176
177
178
179
180
181
182
183
184
185
186
187
188
189
190
191
192
193
194
195
196
197
198
199
200
201
202
203
204
205
206
207
208
209
210
211
212
213
214
215
216
217
218
219
220
221
222
223
224
225
226
227
228
229
230
231
232
233
234
235
236
237
238
239
240
241
242
243
244
245
246
247
248
249
250
251
252
253
254
255
256
257
258
259
260
261
262
263
264
265
266
267
268
269
270
271
272
273
274
275
276
277
278
279
280
281
282
283
284
285
286
287
288
289
290
291
292
293
294
295
296
297
298
299
300
301
302
303
304
305
306
307
308
309
310
311
312
313
314
315
316
317
318
319
320
321
322
323
324
325
326
327
328
329
330
331
332
333
334
335
336
337
338
339
340
341
342
343
344
345
346
347
348
349
350
351
352
353
354
355
356
357
358
359
360
361
362
363
364
365
366
367
368
369
370
371
372
373
374
375
376
377
378
379
380
381
382
383
384
385
386
387
388
389
390
391
392
393
394
395
396
397
398
399
400
401
402
403
404
405
406
407
408
409
410
411
412
413
414
415
416
417
418
419
420
421
422
423
424
425
426
427
428
429
430
431
432
433
434
435
436
437
438
439
440
441
442
443
444
445
446
447
448
449
450
451
452
453
454
455
456
457
458
459
460
461
462
463
464
465
466
10.34125031999903 3.665283869569056 0
3.209183944052688 0.4305490106621892 0
8.24781032533981 0.4000388223603162 0
9.750484856537014 0.4126863321340877 0
11.22103782630012 0.4383709526313417 0
3.25 3.566987298107781 0
12.7384536751536 3.521905327307173 0
6.766605143417622 0.3988647030702148 0
12.7749208118777 0.5044303793862004 0
1.794724380644894 3.552054493128092 0
1.761498800066934 0.3723256694754196 0
7.855349743820204 3.734887120979787 0
11.29994791244907 3.558806813518675 0
14.56052995122096 1.737885009433995 0
4.772174321716839 0.3932755093958453 0
0.4151226828825738 2.236084628739925 0
5.745137434482373 0.3835566529328447 0
14.55600212950657 2.75758589280405 0
9.645841180531459 3.759697926383553 0
4.201886874697735 3.49952562654206 0
13.74567399944582 0.4305493586981297 0
0.4116300883658299 1.252336898500784 0
6.386874462089834 3.731568053043256 0
8.460129963398566 3.742907197223546 0
13.76865043771309 3.590644554288197 0
0.4541502981868453 3.226081012432831 0
5.73518561260053 3.687426041055488 0
14.57093207552395 0.7334565681353369 0
0.75 0.4330127018922192 0
5.233568546370454 3.62000621538544 0
4.75 3.570088518156664 0
4.47683372325822 3.237085540136824 0
7.2549143085235 3.74539535391473 0
6.056323753656396 3.703429708424031 0
6.2474188757202 3.462161144624379 0
6.543644815105338 3.491357282677877 0
6.432203111589887 3.216432768469538 0
5.923891945866766 3.437044396244232 0
5.605524642219687 3.370384426887959 0
6.701319577759437 3.252343864680779 0
6.611983735029777 2.980832367916757 0
6.928334454517851 3.034739355712227 0
6.780309156818338 2.727661776944969 0
7.114015504273625 2.75915975928132 0
6.93058234656309 2.494441788519034 0
7.3300369113172 2.442914651838377 0
6.58324701904491 2.437146949291095 0
6.934284164078821 2.1619279071463 0
6.455316412030414 1.983637638188089 0
7.344699827474881 1.949459544240282 0
7.784317310450909 2.221036834284094 0
7.454477149187274 2.8664365835166 0
7.786967678830726 1.75618574440767 0
8.207409418602918 2.000779393992221 0
8.239725055998917 2.532101028060992 0
8.639277946187207 2.324996976046448 0
8.645708683025873 1.789155248110304 0
9.059966395511562 2.10492996997653 0
9.074362465205079 1.573117473511097 0
9.468917290158089 1.837303304501776 0
9.473699593144797 2.289770318783254 0
9.86169398210097 2.081951890162045 0
9.79798173150842 2.586705058087934 0
10.23295574918778 2.326215915256202 0
10.27210366220467 1.867877719092537 0
10.65701439312276 2.110101896913326 0
10.69637546075112 1.651267393410252 0
11.09381095144701 1.915141580086362 0
11.01659534373963 2.431660166866396 0
11.487424957527 2.192346861601762 0
11.52496962429605 1.707245237970028 0
11.92872869160946 1.974549133807552 0
11.89563468753389 2.459995910720018 0
12.33452837944941 2.245131450466134 0
12.36793795751899 1.757083436901499 0
12.77544026142882 2.029784402763744 0
12.80855907800224 1.539318817895332 0
13.21803226073622 1.813716992474339 0
13.1840794508296 2.305370522930236 0
6.966660828603906 1.618243457091399 0
6.449315618770006 1.435395622414329 0
6.050402308068996 1.697875604730508 0
6.2348188720457 2.344952496071341 0
5.736747941699234 2.178177909533374 0
10.3029473637973 1.392336532745659 0
10.22924568732148 2.807845420616977 0
8.593168080365633 2.740659093688798 0
8.208376518169839 2.911715975276897 0
8.506309956390291 3.063593943261301 0
12.40441987177685 1.276357102816736 0
13.62808893862995 2.089323458420373 0
13.66201802661171 1.607686989371959 0
13.59393142291721 2.582774903588865 0
9.420899263981356 2.723668447932432 0
9.495596958782993 1.351539162100925 0
9.046763619883489 1.112873444809408 0
12.30027106153225 2.731825683421378 0
10.72900240754238 1.17546757115711 0
5.993229757706281 1.266923582230887 0
5.618565650771744 1.528031420382975 0
11.87320373182947 2.945879001980931 0
13.14204888704235 2.782864864790051 0
6.30524427680291 2.64635537623177 0
8.96139670405557 2.507168843432981 0
8.90938319997135 2.849467406338487 0
10.32623287984724 0.9097937362343642 0
6.031820617650922 2.580875455638935 0
6.846483603979659 1.168188548510504 0
7.290162693284149 1.216659601205839 0
5.553176675607992 1.067109282390926 0
5.14210749230297 1.311949271164099 0
5.170431158206839 1.804894249786943 0
4.817002167021547 1.500128411539812 0
14.03906576663502 2.365679888429121 0
12.28902337517747 3.213858784672194 0
12.80358132263286 1.043408669695044 0
14.00482231478806 2.860368715063843 0
14.36333674603435 3.233975399482373 0
7.850523769472497 2.721262146177329 0
7.764030215148801 3.113862713495992 0
8.092080153329357 3.234333797733027 0
7.435827200215945 3.179353472774836 0
7.651717430566051 3.413041203360793 0
11.83333628310958 3.504195092096759 0
10.80592134670117 3.612320802137499 0
10.98967273485996 3.207926612089718 0
10.53184823059586 3.243076391417929 0
10.05163617927414 3.326132507701711 0
10.72453611625134 2.841700695628889 0
10.74009947189698 0.7014087236256736 0
11.16505137652999 0.9590338944309091 0
11.61408028674643 0.7749536500003953 0
9.812772288040284 3.001233564179837 0
9.473815105181613 3.078067926927753 0
6.307693665051795 2.943474505330781 0
7.090316135389976 0.788466404250793 0
7.610797586518169 0.8501642765345909 0
5.057316110686608 0.8065703596981348 0
4.694254374354031 1.119279612939515 0
4.430569761720966 1.439456419624299 0
4.419968258923857 1.834249516907371 0
4.089601870100358 1.649739079201999 0
4.138349675645621 2.00843018021778 0
3.74622957380997 1.860789969766329 0
3.855594800197372 2.29406785073437 0
3.37106595927071 2.152630910757907 0
3.32561757218487 1.657776005874681 0
2.921701555746647 1.937166313993466 0
2.955402682979101 2.435941858910567 0
2.508110877013012 2.217178435463802 0
2.474262151804148 1.718755592598123 0
2.059478840132808 1.997997827829206 0
4.193272752284183 2.508399491365243 0
3.881970216902081 2.692140365676683 0
2.542991122611421 2.716036496105224 0
2.025072800576201 1.499169446444591 0
1.625484904879363 1.777456310253763 0
1.662516886082471 2.276106869675223 0
2.44055058476879 1.219813992696647 0
4.209834550869455 0.9229002994236912 0
1.574666967797934 1.287109144676715 0
4.449311103625663 2.116052352624899 0
1.205973250489165 1.612717482664732 0
4.699183588644658 1.996671205086318 0
1.132390978164258 1.156521961881979 0
2.976731855933846 2.911087554029724 0
2.600843928199437 3.189717126571712 0
2.085917105573253 3.068645385958355 0
4.21179365298101 2.823591494933402 0
4.482586928966491 2.609914937338016 0
3.948994661778964 3.140638422859671 0
4.729510798485466 2.272184811300826 0
4.980022268950122 2.151034124981354 0
5.254143085060182 2.311733182256364 0
5.275659024747474 2.616726754541493 0
5.023271951231266 2.805661738033194 0
5.513139649292907 2.418943190727288 0
4.537586744060009 2.955766938236438 0
9.956650607276531 3.717112576325274 0
4.755052644794246 2.720449331716963 0
8.183249386078469 1.5316039506914 0
14.53803118597961 2.205535272236052 0
2.887823888746825 1.43968833059669 0
3.314638410114997 1.190025493621933 0
2.915395605340107 0.8872904664230388 0
2.403446503015688 0.7500779016740107 0
11.4775741597245 2.665997933908773 0
13.24970926062042 0.4328448434331531 0
13.51455327786427 0.8407725416434886 0
14.0608929838354 0.888975243626255 0
12.24239563851669 0.3913166195057343 0
2.002121609426702 1.03719605240533 0
14.55232258958337 1.215356855594013 0
2.089725764525749 2.508682602125684 0
1.679339755741529 2.776130597722297 0
1.254352445194029 2.568568662006747 0
1.259281892357775 3.023276968248359 0
0.8153790717596969 2.835788598944579 0
13.55353860913491 3.099360458390646 0
1.255076182751727 0.3902801069645283 0
3.751992916111293 0.4670384720055853 0
4.2499858672054 0.4330045423194535 0
6.244771418115453 0.4060564433996796 0
8.749635054223301 0.4026199542668008 0
8.510275820987069 0.8511269871832612 0
9.255347026896869 0.3999844082797821 0
3.720813272762082 3.555862020313628 0
0.4082217733332847 1.748070254540118 0
0.8150278678002376 1.927482842619161 0
1.269306486756056 3.506951641992781 0
13.28011510564211 3.570205996584868 0
5.487416851943851 1.88896179952816 0
12.70527480828159 3.005554129811401 0
14.07736155409889 1.879498167034285 0
11.96341024506373 1.495848557657975 0
12.73983617307539 2.517230766843569 0
13.26410805118047 1.262636949728737 0
8.772332878645807 3.749357984873484 0
8.658874548053866 3.495744649478477 0
8.84520773993577 3.258134023778571 0
9.166745903312727 3.228874402273468 0
9.286038530359928 3.483055625593029 0
8.316216527754632 3.464536615527037 0
8.14732542622456 3.735319791176855 0
7.545251991804886 3.725631882405527 0
11.12683326428609 1.44003682020811 0
10.29110915669749 0.4395776074314579 0
9.490021020798906 0.8405620060270891 0
5.521041767365638 2.723348863116268 0
7.36214510712664 3.460467616177851 0
14.09960296039172 1.400807919125282 0
7.149362833205319 3.241860270728103 0
2.288580902402931 3.573156844100284 0
9.365428577511116 3.760732691611959 0
5.783682543159049 3.151644037849079 0
5.301584438380903 3.29427465700189 0
5.014057155279318 3.406627601930951 0
5.030051110476801 3.109767725290481 0
3.410793935896485 2.602314885746917 0
6.677280819198036 3.756225725530121 0
3.734086959382584 0.9523133632570944 0
9.742881640429932 3.31377949606441 0
8.613778838522705 1.314336019169821 0
9.883061795946738 1.612695927001111 0
11.55553047067433 1.232608328905293 0
7.76136545998772 0.3899806901607987 0
8.103185985719097 1.087674373144468 0
9.911467817962397 1.143251840636895 0
2.713004342068081 0.4003088107965869 0
14.25191227583679 0.4031677623740264 0
0.7496531948976921 3.596949099576419 0
0.3776417302397395 0.7590563129513885 0
3.430933255469204 3.12384466552293 0
11.99448231558063 1.045237940232334 0
4.731181255684758 3.24612026201063 0
7.922059667789423 3.469587813330759 0
9.077798797156571 3.754651080789159 0
3.710889763904543 1.390929412086115 0
6.963643936400808 3.764337622530039 0
1.539398434595105 0.7990359236423856 0
7.219390399302549 3.007595139278295 0
5.910670970599844 0.7736227762527719 0
6.471627521139834 0.8910740114470257 0
5.255411008783341 0.3773765505474262 0
11.44648533560631 3.128300457024807 0
5.759601937511509 2.508181038431201 0
0.3896210236208679 2.732656827779208 0
5.816981397051549 2.813922020812178 0
2.75 3.628524058943548 0
12.39156084893184 0.8223890119503183 0
6.13007223072684 3.203804801571163 0
5.448411432983036 2.16808573720635 0
12.28939078506086 3.647383385126952 0
14.23641339351444 3.632155678212925 0
4.813656335807842 2.964811324085979 0
11.75216599134288 0.358749843674028 0
7.25 0.3507924072979616 0
4.999406425412444 3.649180583868264 0
5.240799070187528 2.040709783550176 0
1.230196083028742 2.09647332327653 0
13.08388621705091 3.195978155376828 0
7.714152330169307 1.285348923588969 0
5.963291684589972 2.338426280487119 0
6.036248586631237 2.071294586478281 0
5.248618246712404 2.964617439805795 0
0.8183752666587329 2.412082890824638 0
2.25 0.3339354860202819 0
0.7711888644260281 1.474497645725994 0
8.340080820912757 3.228091297504261 0
11.11094988354287 2.816320952248667 0
7.992517600784394 3.026668898489589 0
9.466961533121204 3.326239575957292 0
9.182703592022449 2.937904235765691 0
9.143361587200149 2.685282025788905 0
9.781935064376718 3.533846122788153 0
4.447288047397176 2.373439226307719 0
1.648183100792574 3.177499305891414 0
13.72023505997671 1.200175928699144 0
10.58086492950985 2.495062135770126 0
4.23762087666304 3.132981009131383 0
9.964721035017892 0.7513411960316676 0
10.75 0.3005707803138564 0
5.481996881252917 3.61242058262925 0
0.7398237375580301 0.9752516551443593 0
6.531251366947919 2.745852186744745 0
13.98087172526528 3.248190503442932 0
0.909234986467955 3.231203144975664 0
14.63397459621556 0.3660254037844366 0
0.3660254037844384 0.3660254037844388 0
0.3660254037844366 3.633974596215563 0
9.548181087721726 3.529558573066399 0
14.64399737360649 3.641986060165962 0
4.943031310774525 1.858116082096527 0
9 0.7178208047186361 0
13.12576699495177 0.7930564909505802 0
2.983812305710243 3.299109114486867 0
6.123962203480994 2.809061789259896 0
3.385059567000334 0.785443361193968 0
4.682887683928676 2.495197661332705 0
4.552348690089341 0.7367138322930422 0
7.4336443969796 1.579259398929497 0
6.777710184386897 3.542882726693036 0
1.083337866613823 0.7508204699050942 0
8.029594154661369 0.7094167589687086 0
5.47082460689424 0.676694988505671 0
8.967544511643661 3.055908749497333 0
8.733682122976006 3.005163679330448 0
11.97931629656335 0.6694025873169744 0
9.199626732165697 2.4146085699798 0
8.575375495093693 3.255884010301347 0
14.73358399165949 3.25 0
4.66195101741711 1.725724327050866 0
5.779247174757393 1.881618319313496 0
2.050034503958178 0.6402410443066058 0
4.228682136858287 2.253445612155353 0
4.059004768336235 1.283595514852669 0
6.934769230447315 3.296928984229188 0
4.500514734515049 3.485548873665985 0
5.072927118374811 1.600163867775515 0
5.298289654320044 1.626800121727539 0
8.38689490273117 2.812017510071997 0
8.77580648264494 2.605573079876678 0
9.613426036420263 2.860976528252916 0
2 2 0 202
467
468
469
470
471
472
473
474
475
476
477
478
479
480
481
482
483
484
485
486
487
488
489
490
491
492
493
494
495
496
497
498
499
500
501
502
503
504
505
506
507
508
509
510
511
512
513
514
515
516
517
518
519
520
521
522
523
524
525
526
527
528
529
530
531
532
533
534
535
536
537
538
539
540
541
542
543
544
545
546
547
548
549
550
551
552
553
554
555
556
557
558
559
560
561
562
563
564
565
566
567
568
569
570
571
572
573
574
575
576
577
578
579
580
581
582
583
584
585
586
587
588
589
590
591
592
593
594
595
596
597
598
599
600
601
602
603
604
605
606
607
608
609
610
611
612
613
614
615
616
617
618
619
620
621
622
623
624
625
626
627
628
629
630
631
632
633
634
635
636
637
638
639
640
641
642
643
644
645
646
647
648
649
650
651
652
653
654
655
656
657
658
659
660
661
662
663
664
665
666
667
668
14.59872725574047 6.247108372281252 0
12.81357599518553 4.478427925646523 0
12.75 7.566987298107781 0
8.160484926766232 4.260225701655568 0
8.627373704683356 5.698947219136455 0
14.57257317701936 5.252018307677718 0
9.334139617264421 4.252947852520091 0
11.81590015804485 4.388226887667006 0
13.76192654606397 7.550574574980697 0
9.958223244968373 6.43407799065413 0
7.573692680396462 4.252155888057187 0
10.75165260659453 4.407640694655198 0
13.75820631521799 4.442138689388128 0
9.90005324115655 4.229995776221121 0
7.895245099255062 5.180411194344727 0
11.60965287603197 7.343851180820067 0
6.982287033500653 4.248687176670629 0
10.80876071660464 6.842048690103501 0
8.922666438149301 4.270239066757928 0
8.745914500910724 4.430462152062959 0
8.983506645574181 4.505002588930669 0
8.786936063791702 4.675836843654916 0
9.045966738527646 4.759481871602764 0
8.828113222273741 4.943365953158699 0
9.099101461986635 5.037475524468256 0
9.316851108054081 4.846684748182291 0
9.372198069604869 5.124336836350599 0
8.565940226734419 4.83495089451121 0
14.56698729810778 7.25 0
11.08891491863384 7.068810249603297 0
11.08519550789991 6.733120151954724 0
10.85349542270259 6.528395335245942 0
10.56514486459018 6.603290486441161 0
10.64155914140844 6.329073725057971 0
9.162006899758387 5.326432115917739 0
9.437041691300241 5.412490480114795 0
9.222258669395851 5.62065326916046 0
9.507609714087284 5.709313489234434 0
9.755710827316118 5.47534863898557 0
11.36338637424249 6.876584811620313 0
9.569149310868724 4.931557752837063 0
9.539566824337244 4.666589439482413 0
8.526778035507316 4.375198272857022 0
8.60219991359488 5.125076492132767 0
9.797185322612242 5.79200693462332 0
9.559422886630108 6.010215996491838 0
10.0389784010459 5.61094278663295 0
9.788932876680418 4.74017943494114 0
10.08129133831788 5.88899377798832 0
10.30711168292838 5.690552812846302 0
10.38318377926867 5.958028365179346 0
10.58827617183076 5.77512385536204 0
10.50504258581912 5.495150389899628 0
11.93264331036318 7.513282989425319 0
11.92446156392502 7.138182407612522 0
7.088816040416594 4.758569974210922 0
11.64959407590451 6.99462365468167 0
11.92466068451366 6.825715826699039 0
12.19325511944973 6.952114078820073 0
12.1860879940952 6.665710143715566 0
12.44891241053136 6.783311667836826 0
12.43425813748868 6.471979974791578 0
12.82224732743485 6.626516649514403 0
12.74419983206339 6.243133750944384 0
12.33870516499891 6.129437243619194 0
12.67466357018813 5.825516418386268 0
13.08116646902432 5.976301062778796 0
12.28677647874136 5.692344189571796 0
12.99775473468692 5.524804738382191 0
13.43483005759139 5.674066829831497 0
13.51785173606547 6.135913404678899 0
11.99109260745924 5.935092342810327 0
11.92995209887079 5.588194312025411 0
12.21386294356337 5.309482824033707 0
11.68229294016398 5.804368096873689 0
11.60422934274059 5.509860074592012 0
13.33952986938411 5.213385740425237 0
13.86516106087363 5.830667874461035 0
11.4115148308478 5.722041456899067 0
11.96555775308693 6.53969849312155 0
11.73913061803421 6.095292403084763 0
12.90717526056933 5.024721868671701 0
12.48014336969944 7.172736926182981 0
12.86287356345239 7.051681954698986 0
13.29615872271485 4.732416519130813 0
13.95683863124711 6.297544786373694 0
13.61007118055141 6.605771452782164 0
14.06108759956174 6.764488479042459 0
11.80227055972678 5.280415236132867 0
11.50769472480743 5.221920135215576 0
11.70473121802218 4.996455513914655 0
11.41031255792155 4.938725202712787 0
11.21671337440376 5.146228816044442 0
11.11587849845293 4.881103840452531 0
10.90832211633977 5.067149047800886 0
11.32783377024018 4.646802540839908 0
12.39159174182866 4.912433248854812 0
10.39089226518846 4.267829565720859 0
10.51279451755586 4.703671306759605 0
10.18991694280122 4.621256608496572 0
7.461158445625005 4.963145027695373 0
7.827636500699974 4.73575992528694 0
6.389323503531367 4.289146468553529 0
13.22878157871068 7.42627002399778 0
8.252105191943267 5.480290819387782 0
9.264948883456508 4.543928506552223 0
8.12918610186156 4.901914960632375 0
10.92934258788702 6.249558375276417 0
10.82149829897278 4.823307950504077 0
10.60566641736908 4.997735119401397 0
9.636447873897328 4.232679042391912 0
11.99292784515517 6.248815232463877 0
13.17414411651851 6.399076631403455 0
13.65860184465101 7.058579569553216 0
14.60226979051407 5.753547642327917 0
14.55974015147508 6.750158571483269 0
10.28827522385439 4.905702916180053 0
9.889317301054131 5.21682194380405 0
6.073023675832821 4.267855921041831 0
14.58288572618746 4.75374579430265 0
14.11676351546836 4.950150981702945 0
9.275733172301731 5.904748058889506 0
11.60743720044765 4.712869430104346 0
7.855961760659853 4.243657379409881 0
7.277989856948557 4.247468881096271 0
6.686324562873837 4.260933620944797 0
11.96799000406927 4.741143650879727 0
13.77224452316404 5.348792497921489 0
8.867800649402721 5.226880151602819 0
7.440139437347373 4.558577910851755 0
11.27539710657322 5.439572452427502 0
8.125190877070455 4.586553390469434 0
13.65658058918987 4.937376885713722 0
10.69481377791919 6.035446298185652 0
11.0142688237281 5.984114879133076 0
10.33573359172981 6.403932187999354 0
14.24100699078833 7.598433654960072 0
14.25423027036003 4.416682934624267 0
6.538732798328799 4.515893778211999 0
12.26130657820834 4.420038618841344 0
10.7470775835574 5.308393860583786 0
11.14255138182121 6.469038409472418 0
10.27682052351867 6.696195491296668 0
12.32570387594109 7.531981884479719 0
9.83758468072301 4.511905462166134 0
8.44553284554512 4.184729590424184 0
11.63131045778224 6.676959401719373 0
11.37113911401587 7.15822283983136 0
10.42749096569194 5.226872313158775 0
5.745401539990539 4.194747654796601 0
14.19555105017873 5.522685769819185 0
9.628034548022137 5.186501374414599 0
14.02041600904664 7.197549418794113 0
11.47044831558766 5.998115790380816 0
9.134768795298424 4.344698104843557 0
11.2027625747258 4.353552066314339 0
12.61641372257417 5.367020061764023 0
10.7313911807901 5.576946706188555 0
13.28361495191189 4.330596626833093 0
13.25358171856643 6.82668227940925 0
11.72089244991026 6.383902577001412 0
10.25057521473822 5.437561069886022 0
14.25055147888599 6.021668509200359 0
8.337936790748525 4.72420165551803 0
8.971727532571881 5.830616363090209 0
11.53649427670643 6.237422154093398 0
12.01608929344205 5.047986094763154 0
9.494290056536604 4.432571355896078 0
11.25083246984439 5.917668790522878 0
11.12809546562279 5.728243834013307 0
6.845559617312317 4.532222910710732 0
8.570401646891955 4.601262908974102 0
11.30422562826025 6.639188407619836 0
7.725968060047395 4.460654718047154 0
11.04392514979724 4.62248141855321 0
8.366343052427467 4.953369330011071 0
9.775086807325081 5.01501210119937 0
10.0173444729545 4.770268853485737 0
14.63380654047305 4.368058800270193 0
14.63397459621556 7.633974596215563 0
9.866299034682722 6.098002412422873 0
9.606200797962122 6.296694574031415 0
8.333494440723383 4.448130721736415 0
10.1647526947971 6.168899153430937 0
10.85947423664849 5.766645928813771 0
8.901365322437101 5.517762078270541 0
12.20159514650102 7.239240715967476 0
14.28492454233695 6.462249074989347 0
10.44688204716426 6.188035008859929 0
12.1914573389418 6.416653382202888 0
10.13711217391923 4.360131893356614 0
11.50363290596258 4.463241931514737 0
7.939048425048782 4.457370222973795 0
8.300350639648773 5.174017691204047 0
9.099197689196824 4.173577004824315 0
8.574800715957316 5.386437427878914 0
10.5536746327074 6.898895168862383 0
11.03605393847074 5.287680361810823 0
10.39143331952255 4.500366226240495 0
14.30205776454781 6.99054911732996 0
10.0238866077917 5.388250861574248 0
7.130138445224603 4.468076443637809 0
$EndNodes
$Elements
7 1307 1 1307
1 1 1 30
1 1 19 
2 19 20 
3 20 21 
4 21 22 
5 22 23 
6 23 24 
7 24 25 
8 25 26 
9 26 27 
10 27 28 
11 28 29 
12 29 30 
13 30 31 
14 31 32 
15 32 33 
16 33 34 
17 34 35 
18 35 36 
19 36 37 
20 37 38 
21 38 39 
22 39 40 
23 40 41 
24 41 42 
25 42 43 
26 43 44 
27 44 45 
28 45 46 
29 46 47 
30 47 2 
1 2 1 8
31 2 48 
32 48 49 
33 49 50 
34 50 51 
35 51 52 
36 52 53 
37 53 54 
38 54 3 
1 5 1 8
39 5 89 
40 89 90 
41 90 91 
42 91 92 
43 92 93 
44 93 94 
45 94 95 
46 95 1 
1 6 1 8
47 3 96 
48 96 97 
49 97 98 
50 98 99 
51 99 100 
52 100 101 
53 101 102 
54 102 6 
1 7 1 6
55 6 103 
56 103 104 
57 104 105 
58 105 106 
59 106 107 
60 107 7 
2 1 2 776
61 324 325 283 
62 283 364 324 
63 358 394 161 
64 162 359 17 
65 151 316 313 
66 291 356 133 
67 352 408 298 
68 222 386 204 
69 135 348 246 
70 16 394 358 
71 259 386 131 
72 231 386 259 
73 243 245 175 
74 61 247 60 
75 250 251 209 
76 264 285 266 
77 276 293 292 
78 133 420 291 
79 170 226 206 
80 172 204 203 
81 316 354 313 
82 347 379 346 
83 153 426 79 
84 17 358 162 
85 359 426 153 
86 246 379 135 
87 141 240 237 
88 162 426 359 
89 342 343 14 
90 257 415 344 
91 136 247 61 
92 295 296 18 
93 341 342 14 
94 17 408 352 
95 4 153 79 
96 244 379 243 
97 256 365 257 
98 304 370 366 
99 296 297 18 
100 17 391 358 
101 238 336 130 
102 209 252 250 
103 150 157 78 
104 79 150 78 
105 366 370 328 
106 207 389 300 
107 15 353 156 
108 172 203 171 
109 80 154 4 
110 251 256 209 
111 77 157 146 
112 301 378 155 
113 237 305 141 
114 169 242 175 
115 251 365 256 
116 301 398 378 
117 357 380 345 
118 345 380 14 
119 175 384 167 
120 171 173 169 
121 4 401 153 
122 346 379 244 
123 210 464 178 
124 179 465 210 
125 308 372 125 
126 204 386 231 
127 243 379 246 
128 260 400 369 
129 344 415 345 
130 219 366 328 
131 337 354 137 
132 161 394 158 
133 78 157 77 
134 207 406 389 
135 348 353 246 
136 259 400 260 
137 157 161 158 
138 328 437 219 
139 168 171 169 
140 250 252 249 
141 125 441 308 
142 235 463 335 
143 179 210 178 
144 130 396 238 
145 236 262 234 
146 166 428 170 
147 137 354 316 
148 248 250 249 
149 344 416 257 
150 277 376 362 
151 242 243 175 
152 157 158 146 
153 294 376 277 
154 247 396 60 
155 211 412 244 
156 385 386 222 
157 124 248 63 
158 264 266 265 
159 174 242 169 
160 276 292 277 
161 170 206 172 
162 153 360 359 
163 239 393 132 
164 352 391 17 
165 148 334 322 
166 132 438 239 
167 15 355 353 
168 141 241 240 
169 305 337 137 
170 128 254 253 
171 156 382 15 
172 186 466 217 
173 64 124 63 
174 135 379 347 
175 236 462 436 
176 237 337 305 
177 124 250 248 
178 181 227 179 
179 124 302 251 
180 165 384 355 
181 63 248 62 
182 236 455 263 
183 207 395 335 
184 212 412 211 
185 298 408 299 
186 229 350 253 
187 335 402 235 
188 290 356 291 
189 156 353 348 
190 358 391 16 
191 143 330 294 
192 234 462 236 
193 236 263 262 
194 169 175 167 
195 302 418 251 
196 335 456 207 
197 227 465 179 
198 178 464 211 
199 300 395 207 
200 263 455 264 
201 150 161 157 
202 319 409 403 
203 252 422 192 
204 186 217 184 
205 313 373 151 
206 223 463 234 
207 330 376 294 
208 154 378 360 
209 346 453 342 
210 243 246 245 
211 128 255 254 
212 412 453 346 
213 80 461 154 
214 264 287 285 
215 52 305 51 
216 293 301 292 
217 226 230 206 
218 172 205 204 
219 204 231 203 
220 343 344 14 
221 18 442 295 
222 62 248 136 
223 297 298 18 
224 268 362 269 
225 350 425 253 
226 365 415 257 
227 334 404 322 
228 170 428 226 
229 14 380 341 
230 64 302 124 
231 266 458 268 
232 268 458 276 
233 192 413 252 
234 209 256 186 
235 171 203 173 
236 173 174 169 
237 256 466 186 
238 403 409 332 
239 248 249 136 
240 261 443 138 
241 141 305 52 
242 79 426 150 
243 51 305 137 
244 176 405 304 
245 149 390 321 
246 158 159 146 
247 124 251 250 
248 227 417 228 
249 355 460 165 
250 262 443 261 
251 293 303 301 
252 336 404 130 
253 253 425 128 
254 286 411 288 
255 183 184 181 
256 129 376 330 
257 360 361 359 
258 257 416 217 
259 65 302 64 
260 177 179 178 
261 177 178 174 
262 180 181 179 
263 136 388 247 
264 294 423 143 
265 172 407 205 
266 185 186 184 
267 150 162 161 
268 206 407 172 
269 207 456 407 
270 62 136 61 
271 411 427 288 
272 187 209 186 
273 287 295 285 
274 215 354 337 
275 296 436 402 
276 344 345 14 
277 402 436 235 
278 231 232 203 
279 297 300 298 
280 298 299 18 
281 205 222 204 
282 127 351 329 
283 41 128 40 
284 209 422 252 
285 158 160 159 
286 228 417 416 
287 173 176 174 
288 182 183 181 
289 388 413 310 
290 177 304 180 
291 309 372 308 
292 306 308 307 
293 304 405 370 
294 193 310 192 
295 282 306 274 
296 327 328 126 
297 180 182 181 
298 238 247 224 
299 139 409 390 
300 320 420 333 
301 351 437 329 
302 282 308 306 
303 287 296 295 
304 176 304 177 
305 225 339 202 
306 436 462 235 
307 220 224 196 
308 36 329 327 
309 299 303 18 
310 196 310 193 
311 183 185 184 
312 132 314 43 
313 224 310 196 
314 177 180 179 
315 43 314 42 
316 36 327 35 
317 35 327 126 
318 274 306 271 
319 167 384 165 
320 160 163 159 
321 144 312 311 
322 205 223 222 
323 231 259 232 
324 53 141 52 
325 37 329 36 
326 127 329 37 
327 282 309 308 
328 220 238 224 
329 144 313 312 
330 216 322 225 
331 144 311 45 
332 44 132 43 
333 284 315 279 
334 216 225 202 
335 44 311 132 
336 160 164 163 
337 291 318 317 
338 279 315 282 
339 137 316 50 
340 275 317 281 
341 282 315 309 
342 51 137 50 
343 273 317 275 
344 317 318 281 
345 164 165 163 
346 160 258 164 
347 49 316 151 
348 45 311 44 
349 50 316 49 
350 46 144 45 
351 318 319 281 
352 26 324 25 
353 25 324 125 
354 164 166 165 
355 138 325 27 
356 26 325 324 
357 49 151 48 
358 278 317 273 
359 166 167 165 
360 331 332 139 
361 27 325 26 
362 86 333 133 
363 87 333 86 
364 318 320 319 
365 81 330 143 
366 90 149 89 
367 92 139 91 
368 94 145 93 
369 81 143 80 
370 82 330 81 
371 83 129 82 
372 129 330 82 
373 86 133 85 
374 20 152 19 
375 21 323 20 
376 20 323 152 
377 22 134 21 
378 134 323 21 
379 25 125 24 
380 28 138 27 
381 30 140 29 
382 31 326 30 
383 30 326 140 
384 32 131 31 
385 131 326 31 
386 35 126 34 
387 38 127 37 
388 92 331 139 
389 145 331 93 
390 93 331 92 
391 291 317 278 
392 320 321 319 
393 286 288 284 
394 280 286 284 
395 290 291 278 
396 275 281 280 
397 280 284 279 
398 279 282 274 
399 275 280 279 
400 240 322 216 
401 275 279 274 
402 289 290 278 
403 272 289 278 
404 273 275 274 
405 273 274 271 
406 176 177 174 
407 272 278 273 
408 253 254 221 
409 306 307 270 
410 272 273 271 
411 234 262 261 
412 336 339 225 
413 259 260 232 
414 59 130 58 
415 234 261 233 
416 223 233 222 
417 201 202 199 
418 58 334 57 
419 246 353 245 
420 223 234 233 
421 214 216 202 
422 237 240 216 
423 57 148 56 
424 191 192 189 
425 130 334 58 
426 269 272 271 
427 271 306 270 
428 152 427 375 
429 277 362 268 
430 205 456 223 
431 147 346 342 
432 214 237 216 
433 198 213 200 
434 201 214 202 
435 38 350 127 
436 245 384 175 
437 57 334 148 
438 201 215 214 
439 197 220 196 
440 202 339 199 
441 200 201 199 
442 195 196 193 
443 333 420 133 
444 436 455 236 
445 213 239 200 
446 220 336 238 
447 198 199 197 
448 198 200 199 
449 304 366 180 
450 195 197 196 
451 198 338 213 
452 195 198 197 
453 214 337 237 
454 197 339 220 
455 215 337 214 
456 201 340 215 
457 220 339 336 
458 199 339 197 
459 254 349 221 
460 191 193 192 
461 194 338 195 
462 190 191 189 
463 200 340 201 
464 66 142 65 
465 69 341 68 
466 70 147 69 
467 72 135 71 
468 71 347 70 
469 73 348 72 
470 77 146 76 
471 74 156 73 
472 188 190 189 
473 194 195 193 
474 229 253 221 
475 239 340 200 
476 195 338 198 
477 191 194 193 
478 269 271 270 
479 85 356 84 
480 208 221 190 
481 142 302 65 
482 188 208 190 
483 185 187 186 
484 188 189 187 
485 182 218 183 
486 152 446 427 
487 210 450 212 
488 228 450 210 
489 269 362 272 
490 147 342 341 
491 219 437 351 
492 300 352 298 
493 39 350 38 
494 383 457 315 
495 208 229 221 
496 221 349 190 
497 359 408 17 
498 340 438 312 
499 190 349 191 
500 178 242 174 
501 191 349 194 
502 147 341 69 
503 70 347 147 
504 135 347 71 
505 156 348 73 
506 72 348 135 
507 147 347 346 
508 219 351 218 
509 321 430 149 
510 159 363 146 
511 255 368 254 
512 182 219 218 
513 133 356 85 
514 162 358 161 
515 138 387 261 
516 249 413 388 
517 126 369 34 
518 211 464 212 
519 228 465 227 
520 210 465 228 
521 212 464 210 
522 194 368 338 
523 286 403 332 
524 185 367 188 
525 66 357 142 
526 144 373 313 
527 24 372 23 
528 67 357 66 
529 272 362 289 
530 183 367 185 
531 47 373 46 
532 88 374 87 
533 95 375 94 
534 185 188 187 
535 146 363 76 
536 258 394 16 
537 353 355 245 
538 217 466 257 
539 257 466 256 
540 76 363 75 
541 238 396 247 
542 128 399 255 
543 254 368 349 
544 224 388 310 
545 188 367 208 
546 332 411 286 
547 368 377 338 
548 226 428 258 
549 270 381 267 
550 218 367 183 
551 349 368 194 
552 390 409 321 
553 372 410 23 
554 180 366 182 
555 131 400 259 
556 233 448 385 
557 182 366 219 
558 134 457 383 
559 356 392 84 
560 269 270 267 
561 308 441 307 
562 131 386 326 
563 239 438 340 
564 418 434 365 
565 41 399 128 
566 233 385 222 
567 223 456 335 
568 284 383 315 
569 255 377 368 
570 140 387 29 
571 28 387 138 
572 367 371 208 
573 328 447 126 
574 34 369 33 
575 295 419 285 
576 208 371 229 
577 90 390 149 
578 139 390 91 
579 166 170 168 
580 290 392 356 
581 83 392 129 
582 314 399 42 
583 141 454 241 
584 341 380 68 
585 125 372 24 
586 181 452 227 
587 303 442 18 
588 218 371 367 
589 46 373 144 
590 87 374 333 
591 94 375 145 
592 160 394 258 
593 74 382 156 
594 59 396 130 
595 322 404 225 
596 351 371 218 
597 128 425 40 
598 296 402 297 
599 32 400 131 
600 148 397 56 
601 132 393 314 
602 309 410 372 
603 67 380 357 
604 370 447 328 
605 280 403 286 
606 319 403 281 
607 417 452 217 
608 360 378 361 
609 327 437 328 
610 361 398 299 
611 192 422 189 
612 363 382 75 
613 22 410 134 
614 338 377 213 
615 299 398 303 
616 322 429 148 
617 331 411 332 
618 365 434 415 
619 134 383 323 
620 291 420 318 
621 362 376 289 
622 385 448 140 
623 53 454 141 
624 311 438 132 
625 258 428 164 
626 48 431 2 
627 2 431 47 
628 19 432 1 
629 1 432 95 
630 5 433 88 
631 89 433 5 
632 187 422 209 
633 39 425 350 
634 249 388 136 
635 312 421 340 
636 258 440 226 
637 416 449 228 
638 377 393 213 
639 355 384 245 
640 324 441 125 
641 285 458 266 
642 307 381 270 
643 276 419 293 
644 155 423 301 
645 68 380 67 
646 369 400 33 
647 377 451 393 
648 211 242 178 
649 3 435 54 
650 361 408 359 
651 383 446 323 
652 364 381 307 
653 55 435 3 
654 301 423 292 
655 230 440 391 
656 288 383 284 
657 75 382 74 
658 333 430 320 
659 342 453 343 
660 326 385 140 
661 364 441 324 
662 29 387 28 
663 247 388 224 
664 363 445 382 
665 295 442 419 
666 288 446 383 
667 163 445 159 
668 230 391 389 
669 148 429 397 
670 91 390 90 
671 153 401 360 
672 360 401 154 
673 230 406 206 
674 84 392 83 
675 300 389 352 
676 263 283 262 
677 130 404 334 
678 213 393 239 
679 244 412 346 
680 163 460 445 
681 158 394 160 
682 264 265 263 
683 251 418 365 
684 340 421 215 
685 303 398 301 
686 267 381 265 
687 226 440 230 
688 207 407 406 
689 406 407 206 
690 297 395 300 
691 203 444 173 
692 154 461 378 
693 266 267 265 
694 60 396 59 
695 266 268 267 
696 276 277 268 
697 292 294 277 
698 56 397 55 
699 232 444 203 
700 416 417 217 
701 42 399 41 
702 165 460 163 
703 170 172 171 
704 33 400 32 
705 382 445 15 
706 374 430 333 
707 143 423 155 
708 325 443 283 
709 326 386 385 
710 391 440 16 
711 217 452 184 
712 393 451 314 
713 240 429 322 
714 321 409 319 
715 395 402 335 
716 376 439 289 
717 129 439 376 
718 143 461 80 
719 335 463 223 
720 283 459 364 
721 252 413 249 
722 299 408 361 
723 268 269 267 
724 260 405 232 
725 281 403 280 
726 241 429 240 
727 310 413 192 
728 378 398 361 
729 313 421 312 
730 225 404 336 
731 332 409 139 
732 16 440 258 
733 149 430 374 
734 350 424 127 
735 127 424 351 
736 23 410 22 
737 378 461 155 
738 229 424 350 
739 389 391 352 
740 155 461 143 
741 364 459 381 
742 241 435 397 
743 354 421 313 
744 170 171 168 
745 145 411 331 
746 344 449 416 
747 351 424 371 
748 397 429 241 
749 314 451 399 
750 318 420 320 
751 47 431 373 
752 88 433 374 
753 95 432 375 
754 370 405 260 
755 389 406 230 
756 264 455 287 
757 357 434 142 
758 142 418 302 
759 150 426 162 
760 184 452 181 
761 293 442 303 
762 343 449 344 
763 189 422 187 
764 145 427 411 
765 138 443 325 
766 40 425 39 
767 410 457 134 
768 164 428 166 
769 320 430 321 
770 289 439 290 
771 151 431 48 
772 149 433 89 
773 152 432 19 
774 215 421 354 
775 329 437 327 
776 392 439 129 
777 345 434 357 
778 287 436 296 
779 241 454 435 
780 462 463 235 
781 312 438 311 
782 173 444 176 
783 140 448 387 
784 261 448 233 
785 445 460 15 
786 126 447 369 
787 323 446 152 
788 54 454 53 
789 315 457 309 
790 371 424 229 
791 373 431 151 
792 374 433 149 
793 375 432 152 
794 343 453 450 
795 450 453 212 
796 307 441 364 
797 297 402 395 
798 287 455 436 
799 369 447 260 
800 375 427 145 
801 15 460 355 
802 159 445 363 
803 283 443 262 
804 260 447 370 
805 407 456 205 
806 142 434 418 
807 244 414 211 
808 243 414 244 
809 263 459 283 
810 419 442 293 
811 176 444 405 
812 234 463 462 
813 255 451 377 
814 290 439 392 
815 168 169 167 
816 387 448 261 
817 166 168 167 
818 381 459 265 
819 397 435 55 
820 211 414 242 
821 212 453 412 
822 405 444 232 
823 399 451 255 
824 242 414 243 
825 292 423 294 
826 415 434 345 
827 343 450 449 
828 427 446 288 
829 435 454 54 
830 309 457 410 
831 449 450 228 
832 419 458 285 
833 265 459 263 
834 276 458 419 
835 227 452 417 
836 154 401 4 
2 2 2 471
837 479 604 587 
838 78 616 79 
839 484 497 496 
840 548 563 468 
841 484 496 110 
842 468 551 548 
843 587 599 479 
844 123 616 122 
845 482 523 521 
846 106 570 105 
847 538 541 539 
848 11 608 8 
849 566 644 611 
850 578 627 547 
851 611 657 566 
852 512 648 114 
853 114 588 512 
854 7 610 107 
855 531 578 538 
856 69 68 10 
857 496 614 109 
858 549 550 469 
859 538 578 547 
860 506 639 613 
861 520 610 7 
862 564 657 64 
863 109 614 482 
864 105 570 475 
865 567 568 481 
866 63 564 64 
867 528 656 531 
868 12 624 607 
869 607 664 12 
870 567 596 568 
871 11 639 608 
872 596 640 568 
873 109 482 108 
874 550 626 570 
875 469 570 106 
876 68 485 10 
877 64 657 480 
878 478 665 564 
879 570 626 580 
880 579 626 529 
881 529 626 550 
882 571 662 471 
883 613 639 11 
884 506 613 523 
885 550 570 469 
886 8 632 11 
887 574 601 8 
888 479 599 551 
889 118 567 481 
890 482 521 520 
891 551 625 479 
892 546 627 578 
893 563 623 540 
894 110 496 109 
895 611 644 514 
896 548 623 563 
897 114 631 588 
898 636 651 12 
899 538 539 534 
900 531 538 534 
901 561 576 575 
902 478 564 63 
903 522 596 567 
904 527 550 549 
905 529 550 527 
906 13 643 514 
907 583 615 9 
908 13 583 9 
909 487 572 489 
910 554 580 553 
911 523 614 506 
912 482 614 523 
913 116 571 471 
914 478 575 565 
915 587 604 586 
916 111 663 110 
917 485 486 10 
918 593 606 563 
919 481 571 117 
920 568 573 481 
921 508 634 611 
922 481 660 571 
923 121 585 569 
924 489 572 492 
925 528 531 530 
926 518 600 517 
927 115 631 114 
928 601 635 8 
929 508 611 514 
930 565 665 478 
931 66 577 473 
932 469 610 549 
933 497 506 496 
934 484 498 497 
935 575 576 565 
936 561 607 576 
937 468 625 551 
938 523 524 521 
939 565 583 566 
940 116 471 115 
941 541 542 539 
942 538 547 541 
943 570 580 475 
944 553 579 537 
945 522 567 119 
946 531 656 578 
947 572 621 473 
948 514 644 13 
949 113 476 112 
950 480 577 65 
951 502 618 505 
952 64 480 65 
953 576 615 583 
954 118 481 117 
955 107 610 469 
956 539 555 540 
957 12 651 624 
958 612 649 470 
959 65 577 66 
960 120 522 119 
961 601 651 636 
962 600 655 517 
963 563 606 468 
964 473 634 572 
965 492 508 507 
966 554 619 580 
967 562 641 622 
968 492 507 493 
969 482 520 108 
970 119 567 118 
971 505 618 584 
972 515 650 647 
973 62 478 63 
974 510 660 642 
975 107 469 106 
976 487 621 572 
977 467 581 99 
978 66 473 67 
979 492 572 508 
980 622 641 478 
981 100 582 467 
982 510 662 660 
983 509 649 612 
984 484 499 498 
985 576 583 565 
986 587 617 594 
987 537 579 533 
988 489 492 491 
989 58 468 59 
990 561 664 607 
991 524 525 521 
992 542 555 539 
993 541 545 542 
994 472 617 587 
995 100 467 99 
996 114 648 113 
997 98 581 472 
998 508 514 507 
999 117 571 116 
1000 495 582 101 
1001 472 587 586 
1002 99 581 98 
1003 101 582 100 
1004 120 637 522 
1005 499 500 498 
1006 524 526 525 
1007 472 586 97 
1008 542 556 555 
1009 98 472 97 
1010 105 475 104 
1011 613 627 546 
1012 8 608 574 
1013 652 662 595 
1014 97 586 96 
1015 102 495 101 
1016 499 602 500 
1017 500 574 498 
1018 524 546 526 
1019 526 527 525 
1020 556 557 555 
1021 568 598 573 
1022 56 479 57 
1023 526 528 527 
1024 556 558 557 
1025 556 559 558 
1026 559 560 558 
1027 559 561 560 
1028 560 562 558 
1029 561 575 560 
1030 516 519 518 
1031 516 518 517 
1032 516 517 515 
1033 513 516 515 
1034 513 515 511 
1035 511 512 504 
1036 505 513 511 
1037 505 511 504 
1038 502 505 504 
1039 558 589 557 
1040 562 589 558 
1041 502 504 503 
1042 70 470 71 
1043 69 612 70 
1044 60 474 61 
1045 502 503 501 
1046 552 553 537 
1047 535 548 543 
1048 540 633 563 
1049 603 619 495 
1050 493 502 501 
1051 468 606 59 
1052 73 591 74 
1053 71 590 72 
1054 72 477 73 
1055 74 483 75 
1056 76 569 77 
1057 75 592 76 
1058 548 551 543 
1059 544 552 537 
1060 545 597 542 
1061 536 537 533 
1062 552 554 553 
1063 569 605 121 
1064 594 599 587 
1065 474 606 593 
1066 542 597 556 
1067 536 544 537 
1068 575 641 560 
1069 11 627 613 
1070 76 592 569 
1071 477 591 73 
1072 72 590 477 
1073 74 591 483 
1074 470 590 71 
1075 483 592 75 
1076 535 543 536 
1077 122 585 121 
1078 619 666 495 
1079 598 659 470 
1080 492 493 491 
1081 493 501 491 
1082 535 536 533 
1083 566 665 565 
1084 536 594 544 
1085 70 612 470 
1086 104 603 103 
1087 543 594 536 
1088 55 604 56 
1089 556 597 559 
1090 515 647 511 
1091 607 624 519 
1092 478 641 575 
1093 79 616 123 
1094 480 657 611 
1095 605 637 120 
1096 8 635 620 
1097 60 606 474 
1098 560 641 562 
1099 600 601 574 
1100 490 510 494 
1101 585 616 78 
1102 533 579 530 
1103 108 520 7 
1104 58 625 468 
1105 532 535 533 
1106 543 599 594 
1107 500 600 574 
1108 485 487 486 
1109 517 650 515 
1110 514 643 507 
1111 551 599 543 
1112 522 668 596 
1113 475 603 104 
1114 534 623 532 
1115 56 604 479 
1116 12 664 597 
1117 563 633 593 
1118 476 609 112 
1119 611 634 577 
1120 578 656 546 
1121 511 647 512 
1122 598 630 573 
1123 479 625 57 
1124 597 636 12 
1125 9 584 13 
1126 532 623 535 
1127 584 667 505 
1128 620 632 8 
1129 96 645 3 
1130 486 509 10 
1131 3 645 55 
1132 574 608 498 
1133 498 608 497 
1134 630 649 638 
1135 470 649 598 
1136 476 650 602 
1137 524 613 546 
1138 513 628 516 
1139 471 631 115 
1140 59 606 60 
1141 493 618 502 
1142 6 646 102 
1143 103 646 6 
1144 530 579 529 
1145 581 617 472 
1146 13 644 583 
1147 506 614 496 
1148 546 656 526 
1149 487 489 488 
1150 480 611 577 
1151 62 622 478 
1152 523 613 524 
1153 121 605 120 
1154 487 488 486 
1155 602 609 476 
1156 505 667 513 
1157 553 626 579 
1158 583 644 566 
1159 113 648 476 
1160 489 491 490 
1161 638 649 509 
1162 572 634 508 
1163 580 619 475 
1164 490 494 488 
1165 597 664 559 
1166 577 634 473 
1167 547 620 541 
1168 580 626 553 
1169 473 661 67 
1170 590 640 477 
1171 10 612 69 
1172 660 662 571 
1173 500 655 600 
1174 470 659 590 
1175 471 662 652 
1176 532 533 530 
1177 545 636 597 
1178 489 490 488 
1179 541 620 545 
1180 507 618 493 
1181 594 617 544 
1182 77 585 78 
1183 539 540 534 
1184 475 619 603 
1185 531 534 532 
1186 485 621 487 
1187 535 623 548 
1188 491 595 490 
1189 467 629 581 
1190 484 663 499 
1191 531 532 530 
1192 519 615 607 
1193 617 629 544 
1194 540 623 534 
1195 607 615 576 
1196 519 624 518 
1197 57 625 58 
1198 591 668 483 
1199 509 612 10 
1200 581 629 617 
1201 516 628 519 
1202 488 638 486 
1203 554 654 582 
1204 497 639 506 
1205 544 629 552 
1206 650 655 602 
1207 517 655 650 
1208 67 661 68 
1209 582 654 467 
1210 486 638 509 
1211 582 666 554 
1212 621 661 473 
1213 68 661 485 
1214 603 646 103 
1215 501 595 491 
1216 490 595 510 
1217 601 636 635 
1218 474 658 61 
1219 513 667 628 
1220 595 662 510 
1221 112 609 111 
1222 55 645 604 
1223 586 645 96 
1224 629 654 552 
1225 600 651 601 
1226 102 646 495 
1227 467 654 629 
1228 510 642 494 
1229 608 639 497 
1230 495 666 582 
1231 61 622 62 
1232 630 642 573 
1233 494 642 630 
1234 602 655 500 
1235 573 660 481 
1236 547 632 620 
1237 526 656 528 
1238 519 628 615 
1239 521 653 520 
1240 499 609 602 
1241 122 616 585 
1242 518 651 600 
1243 494 638 488 
1244 559 664 561 
1245 495 646 603 
1246 584 643 13 
1247 552 654 554 
1248 615 628 9 
1249 598 649 630 
1250 604 645 586 
1251 477 596 591 
1252 569 585 77 
1253 568 659 598 
1254 520 653 610 
1255 11 632 627 
1256 620 635 545 
1257 507 643 618 
1258 555 633 540 
1259 630 638 494 
1260 627 632 547 
1261 564 665 657 
1262 657 665 566 
1263 477 640 596 
1264 501 652 595 
1265 618 643 584 
1266 528 530 529 
1267 499 663 609 
1268 61 658 622 
1269 9 667 584 
1270 527 549 525 
1271 528 529 527 
1272 504 588 503 
1273 512 588 504 
1274 589 593 557 
1275 557 633 555 
1276 647 650 476 
1277 483 637 592 
1278 592 605 569 
1279 635 636 545 
1280 590 659 640 
1281 628 667 9 
1282 610 653 549 
1283 624 651 518 
1284 588 631 503 
1285 596 668 591 
1286 647 648 512 
1287 485 661 621 
1288 554 666 619 
1289 503 652 501 
1290 631 652 503 
1291 525 653 521 
1292 483 668 637 
1293 474 593 589 
1294 609 663 111 
1295 592 637 605 
1296 562 658 589 
1297 471 652 631 
1298 640 659 568 
1299 622 658 562 
1300 637 668 522 
1301 476 648 647 
1302 589 658 474 
1303 642 660 573 
1304 593 633 557 
1305 549 653 525 
1306 79 123 4 
1307 110 663 484 
$EndElements
