<?xml version="1.0" encoding="UTF-8" standalone="no"?>
<svg
   xmlns:dc="http://purl.org/dc/elements/1.1/"
   xmlns:cc="http://creativecommons.org/ns#"
   xmlns:rdf="http://www.w3.org/1999/02/22-rdf-syntax-ns#"
   xmlns:svg="http://www.w3.org/2000/svg"
   xmlns="http://www.w3.org/2000/svg"
   xmlns:sodipodi="http://sodipodi.sourceforge.net/DTD/sodipodi-0.dtd"
   xmlns:inkscape="http://www.inkscape.org/namespaces/inkscape"
   height="1025.1699"
   version="1.1"
   viewBox="0 0 115.01562 1025.1699"
   width="115.01562"
   id="svg479"
   sodipodi:docname="1dconsolidation_r1c10.svg"
   inkscape:version="0.92.4 (5da689c313, 2019-01-14)"
   inkscape:export-filename="F:\mega\work\repos\openseespy_examples\geotech\1d_consolidation\plt\1dconsolidation_r1c10.png"
   inkscape:export-xdpi="600"
   inkscape:export-ydpi="600">
  <metadata
     id="metadata483">
    <rdf:RDF>
      <cc:Work
         rdf:about="">
        <dc:format>image/svg+xml</dc:format>
        <dc:type
           rdf:resource="http://purl.org/dc/dcmitype/StillImage" />
        <dc:title></dc:title>
      </cc:Work>
    </rdf:RDF>
  </metadata>
  <sodipodi:namedview
     pagecolor="#ffffff"
     bordercolor="#666666"
     borderopacity="1"
     objecttolerance="10"
     gridtolerance="10"
     guidetolerance="10"
     inkscape:pageopacity="1"
     inkscape:pageshadow="2"
     inkscape:window-width="2880"
     inkscape:window-height="1526"
     id="namedview481"
     showgrid="false"
     inkscape:zoom="0.78666667"
     inkscape:cx="364.54348"
     inkscape:cy="621.73951"
     inkscape:window-x="-11"
     inkscape:window-y="-11"
     inkscape:window-maximized="1"
     inkscape:current-layer="g94"
     fit-margin-top="0"
     fit-margin-left="0"
     fit-margin-right="0"
     fit-margin-bottom="0" />
  <defs
     id="defs2" />
  <g
     inkscape:groupmode="layer"
     inkscape:label="Default layer"
     sodipodi:insensitive="true"
     id="g4"
     transform="translate(-40.085937,-145.5)" />
  <g
     inkscape:groupmode="layer"
     inkscape:label="Corner nodes"
     id="g94"
     transform="translate(-40.085937,-145.5)">
    <circle
       cx="50"
       cy="1150"
       r="4"
       id="circle6"
       style="fill:none;stroke-width:1" />
    <text
       x="40"
       y="1170"
       id="text8">1</text>
    <circle
       cx="150"
       cy="1150"
       r="4"
       id="circle10"
       style="fill:none;stroke-width:1" />
    <text
       x="140"
       y="1170"
       id="text12">2</text>
    <circle
       cx="50"
       cy="1050"
       r="4"
       id="circle14"
       style="fill:none;stroke-width:1" />
    <text
       x="40"
       y="1070"
       id="text16">3</text>
    <circle
       cx="150"
       cy="1050"
       r="4"
       id="circle18"
       style="fill:none;stroke-width:1" />
    <text
       x="140"
       y="1070"
       id="text20">4</text>
    <circle
       cx="50"
       cy="950"
       r="4"
       id="circle22"
       style="fill:none;stroke-width:1" />
    <text
       x="40"
       y="970"
       id="text24">5</text>
    <circle
       cx="150"
       cy="950"
       r="4"
       id="circle26"
       style="fill:none;stroke-width:1" />
    <text
       x="140"
       y="970"
       id="text28">6</text>
    <circle
       cx="50"
       cy="850"
       r="4"
       id="circle30"
       style="fill:none;stroke-width:1" />
    <text
       x="40"
       y="870"
       id="text32">7</text>
    <circle
       cx="150"
       cy="850"
       r="4"
       id="circle34"
       style="fill:none;stroke-width:1" />
    <text
       x="140"
       y="870"
       id="text36">8</text>
    <circle
       cx="50"
       cy="750"
       r="4"
       id="circle38"
       style="fill:none;stroke-width:1" />
    <text
       x="40"
       y="770"
       id="text40">9</text>
    <circle
       cx="150"
       cy="750"
       r="4"
       id="circle42"
       style="fill:none;stroke-width:1" />
    <text
       x="140"
       y="770"
       id="text44">10</text>
    <circle
       cx="50"
       cy="650"
       r="4"
       id="circle46"
       style="fill:none;stroke-width:1" />
    <text
       x="40"
       y="670"
       id="text48">11</text>
    <circle
       cx="150"
       cy="650"
       r="4"
       id="circle50"
       style="fill:none;stroke-width:1" />
    <text
       x="140"
       y="670"
       id="text52">12</text>
    <circle
       cx="50"
       cy="550"
       r="4"
       id="circle54"
       style="fill:none;stroke-width:1" />
    <text
       x="40"
       y="570"
       id="text56">13</text>
    <circle
       cx="150"
       cy="550"
       r="4"
       id="circle58"
       style="fill:none;stroke-width:1" />
    <text
       x="140"
       y="570"
       id="text60">14</text>
    <circle
       cx="50"
       cy="450"
       r="4"
       id="circle62"
       style="fill:none;stroke-width:1" />
    <text
       x="40"
       y="470"
       id="text64">15</text>
    <circle
       cx="150"
       cy="450"
       r="4"
       id="circle66"
       style="fill:none;stroke-width:1" />
    <text
       x="140"
       y="470"
       id="text68">16</text>
    <circle
       cx="50"
       cy="350"
       r="4"
       id="circle70"
       style="fill:none;stroke-width:1" />
    <text
       x="40"
       y="370"
       id="text72">17</text>
    <circle
       cx="150"
       cy="350"
       r="4"
       id="circle74"
       style="fill:none;stroke-width:1" />
    <text
       x="140"
       y="370"
       id="text76">18</text>
    <circle
       cx="50"
       cy="250"
       r="4"
       id="circle78"
       style="fill:none;stroke-width:1" />
    <text
       x="40"
       y="270"
       id="text80">19</text>
    <circle
       cx="150"
       cy="250"
       r="4"
       id="circle82"
       style="fill:none;stroke-width:1" />
    <text
       x="140"
       y="270"
       id="text84">20</text>
    <circle
       cx="50"
       cy="150"
       r="4"
       id="circle86"
       style="fill:none;stroke-width:1" />
    <text
       x="40"
       y="170"
       id="text88">21</text>
    <circle
       cx="150"
       cy="150"
       r="4"
       id="circle90"
       style="fill:none;stroke-width:1" />
    <text
       x="140"
       y="170"
       id="text92">22</text>
  </g>
  <g
     id="outernodes"
     style="font-family:'DejaVu Sans';stroke:#2c7bb6"
     transform="translate(-40.085937,-145.5)">
    <circle
       cx="50"
       cy="1150"
       r="4"
       id="circle96"
       style="fill:none;stroke-width:1" />
    <text
       x="40"
       y="1170"
       id="text98">1</text>
    <circle
       cx="150"
       cy="1150"
       r="4"
       id="circle100"
       style="fill:none;stroke-width:1" />
    <text
       x="140"
       y="1170"
       id="text102">2</text>
    <circle
       cx="50"
       cy="1050"
       r="4"
       id="circle104"
       style="fill:none;stroke-width:1" />
    <text
       x="40"
       y="1070"
       id="text106">3</text>
    <circle
       cx="150"
       cy="1050"
       r="4"
       id="circle108"
       style="fill:none;stroke-width:1" />
    <text
       x="140"
       y="1070"
       id="text110">4</text>
    <circle
       cx="50"
       cy="950"
       r="4"
       id="circle112"
       style="fill:none;stroke-width:1" />
    <text
       x="40"
       y="970"
       id="text114">5</text>
    <circle
       cx="150"
       cy="950"
       r="4"
       id="circle116"
       style="fill:none;stroke-width:1" />
    <text
       x="140"
       y="970"
       id="text118">6</text>
    <circle
       cx="50"
       cy="850"
       r="4"
       id="circle120"
       style="fill:none;stroke-width:1" />
    <text
       x="40"
       y="870"
       id="text122">7</text>
    <circle
       cx="150"
       cy="850"
       r="4"
       id="circle124"
       style="fill:none;stroke-width:1" />
    <text
       x="140"
       y="870"
       id="text126">8</text>
    <circle
       cx="50"
       cy="750"
       r="4"
       id="circle128"
       style="fill:none;stroke-width:1" />
    <text
       x="40"
       y="770"
       id="text130">9</text>
    <circle
       cx="150"
       cy="750"
       r="4"
       id="circle132"
       style="fill:none;stroke-width:1" />
    <text
       x="140"
       y="770"
       id="text134">10</text>
    <circle
       cx="50"
       cy="650"
       r="4"
       id="circle136"
       style="fill:none;stroke-width:1" />
    <text
       x="40"
       y="670"
       id="text138">11</text>
    <circle
       cx="150"
       cy="650"
       r="4"
       id="circle140"
       style="fill:none;stroke-width:1" />
    <text
       x="140"
       y="670"
       id="text142">12</text>
    <circle
       cx="50"
       cy="550"
       r="4"
       id="circle144"
       style="fill:none;stroke-width:1" />
    <text
       x="40"
       y="570"
       id="text146">13</text>
    <circle
       cx="150"
       cy="550"
       r="4"
       id="circle148"
       style="fill:none;stroke-width:1" />
    <text
       x="140"
       y="570"
       id="text150">14</text>
    <circle
       cx="50"
       cy="450"
       r="4"
       id="circle152"
       style="fill:none;stroke-width:1" />
    <text
       x="40"
       y="470"
       id="text154">15</text>
    <circle
       cx="150"
       cy="450"
       r="4"
       id="circle156"
       style="fill:none;stroke-width:1" />
    <text
       x="140"
       y="470"
       id="text158">16</text>
    <circle
       cx="50"
       cy="350"
       r="4"
       id="circle160"
       style="fill:none;stroke-width:1" />
    <text
       x="40"
       y="370"
       id="text162">17</text>
    <circle
       cx="150"
       cy="350"
       r="4"
       id="circle164"
       style="fill:none;stroke-width:1" />
    <text
       x="140"
       y="370"
       id="text166">18</text>
    <circle
       cx="50"
       cy="250"
       r="4"
       id="circle168"
       style="fill:none;stroke-width:1" />
    <text
       x="40"
       y="270"
       id="text170">19</text>
    <circle
       cx="150"
       cy="250"
       r="4"
       id="circle172"
       style="fill:none;stroke-width:1" />
    <text
       x="140"
       y="270"
       id="text174">20</text>
    <circle
       cx="50"
       cy="150"
       r="4"
       id="circle176"
       style="fill:none;stroke-width:1" />
    <text
       x="40"
       y="170"
       id="text178">21</text>
    <circle
       cx="150"
       cy="150"
       r="4"
       id="circle180"
       style="fill:none;stroke-width:1" />
    <text
       x="140"
       y="170"
       id="text182">22</text>
  </g>
  <g
     id="tdnodes"
     style="font-family:'DejaVu Sans';stroke:#d7191c"
     transform="translate(-40.085937,-145.5)">
    <circle
       cx="100"
       cy="1150"
       r="4"
       id="circle185"
       style="fill:none;stroke-width:1" />
    <text
       x="90"
       y="1170"
       id="text187">23</text>
    <circle
       cx="100"
       cy="1050"
       r="4"
       id="circle189"
       style="fill:none;stroke-width:1" />
    <text
       x="90"
       y="1070"
       id="text191">24</text>
    <circle
       cx="100"
       cy="950"
       r="4"
       id="circle193"
       style="fill:none;stroke-width:1" />
    <text
       x="90"
       y="970"
       id="text195">25</text>
    <circle
       cx="100"
       cy="850"
       r="4"
       id="circle197"
       style="fill:none;stroke-width:1" />
    <text
       x="90"
       y="870"
       id="text199">26</text>
    <circle
       cx="100"
       cy="750"
       r="4"
       id="circle201"
       style="fill:none;stroke-width:1" />
    <text
       x="90"
       y="770"
       id="text203">27</text>
    <circle
       cx="100"
       cy="650"
       r="4"
       id="circle205"
       style="fill:none;stroke-width:1" />
    <text
       x="90"
       y="670"
       id="text207">28</text>
    <circle
       cx="100"
       cy="550"
       r="4"
       id="circle209"
       style="fill:none;stroke-width:1" />
    <text
       x="90"
       y="570"
       id="text211">29</text>
    <circle
       cx="100"
       cy="450"
       r="4"
       id="circle213"
       style="fill:none;stroke-width:1" />
    <text
       x="90"
       y="470"
       id="text215">30</text>
    <circle
       cx="100"
       cy="350"
       r="4"
       id="circle217"
       style="fill:none;stroke-width:1" />
    <text
       x="90"
       y="370"
       id="text219">31</text>
    <circle
       cx="100"
       cy="250"
       r="4"
       id="circle221"
       style="fill:none;stroke-width:1" />
    <text
       x="90"
       y="270"
       id="text223">32</text>
    <circle
       cx="100"
       cy="150"
       r="4"
       id="circle225"
       style="fill:none;stroke-width:1" />
    <text
       x="90"
       y="170"
       id="text227">33</text>
  </g>
  <g
     id="lrnodes"
     style="font-family:'DejaVu Sans';stroke:#fdae61"
     transform="translate(-40.085937,-145.5)">
    <circle
       cx="50"
       cy="1100"
       r="4"
       id="circle230"
       style="fill:none;stroke-width:1" />
    <text
       x="40"
       y="1120"
       id="text232">34</text>
    <circle
       cx="150"
       cy="1100"
       r="4"
       id="circle234"
       style="fill:none;stroke-width:1" />
    <text
       x="140"
       y="1120"
       id="text236">35</text>
    <circle
       cx="50"
       cy="1000"
       r="4"
       id="circle238"
       style="fill:none;stroke-width:1" />
    <text
       x="40"
       y="1020"
       id="text240">36</text>
    <circle
       cx="150"
       cy="1000"
       r="4"
       id="circle242"
       style="fill:none;stroke-width:1" />
    <text
       x="140"
       y="1020"
       id="text244">37</text>
    <circle
       cx="50"
       cy="900"
       r="4"
       id="circle246"
       style="fill:none;stroke-width:1" />
    <text
       x="40"
       y="920"
       id="text248">38</text>
    <circle
       cx="150"
       cy="900"
       r="4"
       id="circle250"
       style="fill:none;stroke-width:1" />
    <text
       x="140"
       y="920"
       id="text252">39</text>
    <circle
       cx="50"
       cy="800"
       r="4"
       id="circle254"
       style="fill:none;stroke-width:1" />
    <text
       x="40"
       y="820"
       id="text256">40</text>
    <circle
       cx="150"
       cy="800"
       r="4"
       id="circle258"
       style="fill:none;stroke-width:1" />
    <text
       x="140"
       y="820"
       id="text260">41</text>
    <circle
       cx="50"
       cy="700"
       r="4"
       id="circle262"
       style="fill:none;stroke-width:1" />
    <text
       x="40"
       y="720"
       id="text264">42</text>
    <circle
       cx="150"
       cy="700"
       r="4"
       id="circle266"
       style="fill:none;stroke-width:1" />
    <text
       x="140"
       y="720"
       id="text268">43</text>
    <circle
       cx="50"
       cy="600"
       r="4"
       id="circle270"
       style="fill:none;stroke-width:1" />
    <text
       x="40"
       y="620"
       id="text272">44</text>
    <circle
       cx="150"
       cy="600"
       r="4"
       id="circle274"
       style="fill:none;stroke-width:1" />
    <text
       x="140"
       y="620"
       id="text276">45</text>
    <circle
       cx="50"
       cy="500"
       r="4"
       id="circle278"
       style="fill:none;stroke-width:1" />
    <text
       x="40"
       y="520"
       id="text280">46</text>
    <circle
       cx="150"
       cy="500"
       r="4"
       id="circle282"
       style="fill:none;stroke-width:1" />
    <text
       x="140"
       y="520"
       id="text284">47</text>
    <circle
       cx="50"
       cy="400"
       r="4"
       id="circle286"
       style="fill:none;stroke-width:1" />
    <text
       x="40"
       y="420"
       id="text288">48</text>
    <circle
       cx="150"
       cy="400"
       r="4"
       id="circle290"
       style="fill:none;stroke-width:1" />
    <text
       x="140"
       y="420"
       id="text292">49</text>
    <circle
       cx="50"
       cy="300"
       r="4"
       id="circle294"
       style="fill:none;stroke-width:1" />
    <text
       x="40"
       y="320"
       id="text296">50</text>
    <circle
       cx="150"
       cy="300"
       r="4"
       id="circle298"
       style="fill:none;stroke-width:1" />
    <text
       x="140"
       y="320"
       id="text300">51</text>
    <circle
       cx="50"
       cy="200"
       r="4"
       id="circle302"
       style="fill:none;stroke-width:1" />
    <text
       x="40"
       y="220"
       id="text304">52</text>
    <circle
       cx="150"
       cy="200"
       r="4"
       id="circle306"
       style="fill:none;stroke-width:1" />
    <text
       x="140"
       y="220"
       id="text308">53</text>
  </g>
  <g
     id="g351"
     style="stroke:#abd9e9"
     transform="translate(-40.085937,-145.5)">
    <circle
       cx="100"
       cy="1100"
       r="4"
       id="circle311"
       style="fill:none;stroke-width:1" />
    <text
       x="90"
       y="1120"
       id="text313">54</text>
    <circle
       cx="100"
       cy="1000"
       r="4"
       id="circle315"
       style="fill:none;stroke-width:1" />
    <text
       x="90"
       y="1020"
       id="text317">55</text>
    <circle
       cx="100"
       cy="900"
       r="4"
       id="circle319"
       style="fill:none;stroke-width:1" />
    <text
       x="90"
       y="920"
       id="text321">56</text>
    <circle
       cx="100"
       cy="800"
       r="4"
       id="circle323"
       style="fill:none;stroke-width:1" />
    <text
       x="90"
       y="820"
       id="text325">57</text>
    <circle
       cx="100"
       cy="700"
       r="4"
       id="circle327"
       style="fill:none;stroke-width:1" />
    <text
       x="90"
       y="720"
       id="text329">58</text>
    <circle
       cx="100"
       cy="600"
       r="4"
       id="circle331"
       style="fill:none;stroke-width:1" />
    <text
       x="90"
       y="620"
       id="text333">59</text>
    <circle
       cx="100"
       cy="500"
       r="4"
       id="circle335"
       style="fill:none;stroke-width:1" />
    <text
       x="90"
       y="520"
       id="text337">60</text>
    <circle
       cx="100"
       cy="400"
       r="4"
       id="circle339"
       style="fill:none;stroke-width:1" />
    <text
       x="90"
       y="420"
       id="text341">61</text>
    <circle
       cx="100"
       cy="300"
       r="4"
       id="circle343"
       style="fill:none;stroke-width:1" />
    <text
       x="90"
       y="320"
       id="text345">62</text>
    <circle
       cx="100"
       cy="200"
       r="4"
       id="circle347"
       style="fill:none;stroke-width:1" />
    <text
       x="90"
       y="220"
       id="text349">63</text>
  </g>
  <g
     id="hlines"
     style="stroke:#636363"
     transform="translate(-40.085937,-145.5)">
    <line
       x1="53"
       x2="97"
       y1="1150"
       y2="1150"
       id="line353" />
    <line
       x1="103"
       x2="147"
       y1="1150"
       y2="1150"
       id="line355" />
    <line
       x1="53"
       x2="97"
       y1="1050"
       y2="1050"
       id="line357" />
    <line
       x1="103"
       x2="147"
       y1="1050"
       y2="1050"
       id="line359" />
    <line
       x1="53"
       x2="97"
       y1="950"
       y2="950"
       id="line361" />
    <line
       x1="103"
       x2="147"
       y1="950"
       y2="950"
       id="line363" />
    <line
       x1="53"
       x2="97"
       y1="850"
       y2="850"
       id="line365" />
    <line
       x1="103"
       x2="147"
       y1="850"
       y2="850"
       id="line367" />
    <line
       x1="53"
       x2="97"
       y1="750"
       y2="750"
       id="line369" />
    <line
       x1="103"
       x2="147"
       y1="750"
       y2="750"
       id="line371" />
    <line
       x1="53"
       x2="97"
       y1="650"
       y2="650"
       id="line373" />
    <line
       x1="103"
       x2="147"
       y1="650"
       y2="650"
       id="line375" />
    <line
       x1="53"
       x2="97"
       y1="550"
       y2="550"
       id="line377" />
    <line
       x1="103"
       x2="147"
       y1="550"
       y2="550"
       id="line379" />
    <line
       x1="53"
       x2="97"
       y1="450"
       y2="450"
       id="line381" />
    <line
       x1="103"
       x2="147"
       y1="450"
       y2="450"
       id="line383" />
    <line
       x1="53"
       x2="97"
       y1="350"
       y2="350"
       id="line385" />
    <line
       x1="103"
       x2="147"
       y1="350"
       y2="350"
       id="line387" />
    <line
       x1="53"
       x2="97"
       y1="250"
       y2="250"
       id="line389" />
    <line
       x1="103"
       x2="147"
       y1="250"
       y2="250"
       id="line391" />
    <line
       x1="53"
       x2="97"
       y1="150"
       y2="150"
       id="line393" />
    <line
       x1="103"
       x2="147"
       y1="150"
       y2="150"
       id="line395" />
  </g>
  <g
     id="vlines"
     style="stroke:#636363"
     transform="translate(-40.085937,-145.5)">
    <line
       x1="50"
       x2="50"
       y1="1147"
       y2="1103"
       id="line398" />
    <line
       x1="50"
       x2="50"
       y1="1047"
       y2="1003"
       id="line400" />
    <line
       x1="50"
       x2="50"
       y1="947"
       y2="903"
       id="line402" />
    <line
       x1="50"
       x2="50"
       y1="847"
       y2="803"
       id="line404" />
    <line
       x1="50"
       x2="50"
       y1="747"
       y2="703"
       id="line406" />
    <line
       x1="50"
       x2="50"
       y1="647"
       y2="603"
       id="line408" />
    <line
       x1="50"
       x2="50"
       y1="547"
       y2="503"
       id="line410" />
    <line
       x1="50"
       x2="50"
       y1="447"
       y2="403"
       id="line412" />
    <line
       x1="50"
       x2="50"
       y1="347"
       y2="303"
       id="line414" />
    <line
       x1="50"
       x2="50"
       y1="247"
       y2="203"
       id="line416" />
    <line
       x1="50"
       x2="50"
       y1="1097"
       y2="1053"
       id="line418" />
    <line
       x1="50"
       x2="50"
       y1="997"
       y2="953"
       id="line420" />
    <line
       x1="50"
       x2="50"
       y1="897"
       y2="853"
       id="line422" />
    <line
       x1="50"
       x2="50"
       y1="797"
       y2="753"
       id="line424" />
    <line
       x1="50"
       x2="50"
       y1="697"
       y2="653"
       id="line426" />
    <line
       x1="50"
       x2="50"
       y1="597"
       y2="553"
       id="line428" />
    <line
       x1="50"
       x2="50"
       y1="497"
       y2="453"
       id="line430" />
    <line
       x1="50"
       x2="50"
       y1="397"
       y2="353"
       id="line432" />
    <line
       x1="50"
       x2="50"
       y1="297"
       y2="253"
       id="line434" />
    <line
       x1="50"
       x2="50"
       y1="197"
       y2="153"
       id="line436" />
    <line
       x1="150"
       x2="150"
       y1="1147"
       y2="1103"
       id="line438" />
    <line
       x1="150"
       x2="150"
       y1="1047"
       y2="1003"
       id="line440" />
    <line
       x1="150"
       x2="150"
       y1="947"
       y2="903"
       id="line442" />
    <line
       x1="150"
       x2="150"
       y1="847"
       y2="803"
       id="line444" />
    <line
       x1="150"
       x2="150"
       y1="747"
       y2="703"
       id="line446" />
    <line
       x1="150"
       x2="150"
       y1="647"
       y2="603"
       id="line448" />
    <line
       x1="150"
       x2="150"
       y1="547"
       y2="503"
       id="line450" />
    <line
       x1="150"
       x2="150"
       y1="447"
       y2="403"
       id="line452" />
    <line
       x1="150"
       x2="150"
       y1="347"
       y2="303"
       id="line454" />
    <line
       x1="150"
       x2="150"
       y1="247"
       y2="203"
       id="line456" />
    <line
       x1="150"
       x2="150"
       y1="1097"
       y2="1053"
       id="line458" />
    <line
       x1="150"
       x2="150"
       y1="997"
       y2="953"
       id="line460" />
    <line
       x1="150"
       x2="150"
       y1="897"
       y2="853"
       id="line462" />
    <line
       x1="150"
       x2="150"
       y1="797"
       y2="753"
       id="line464" />
    <line
       x1="150"
       x2="150"
       y1="697"
       y2="653"
       id="line466" />
    <line
       x1="150"
       x2="150"
       y1="597"
       y2="553"
       id="line468" />
    <line
       x1="150"
       x2="150"
       y1="497"
       y2="453"
       id="line470" />
    <line
       x1="150"
       x2="150"
       y1="397"
       y2="353"
       id="line472" />
    <line
       x1="150"
       x2="150"
       y1="297"
       y2="253"
       id="line474" />
    <line
       x1="150"
       x2="150"
       y1="197"
       y2="153"
       id="line476" />
  </g>
</svg>
